<?xml version="1.0" encoding="UTF-8" standalone="no"?>
<svg width="205px" height="49px" viewBox="0 0 205 49" version="1.1" xmlns="http://www.w3.org/2000/svg" xmlns:xlink="http://www.w3.org/1999/xlink" xmlns:sketch="http://www.bohemiancoding.com/sketch/ns">
    <!-- Generator: Sketch 3.3.3 (12072) - http://www.bohemiancoding.com/sketch -->
    <title>leaves-overlay</title>
    <desc>Created with Sketch.</desc>
    <defs>
        <linearGradient x1="46.9586998%" y1="21.4730306%" x2="46.9587001%" y2="80.2573674%" id="linearGradient-1">
            <stop stop-color="#453F70" offset="0%"></stop>
            <stop stop-color="#714F72" offset="100%"></stop>
        </linearGradient>
        <filter x="-50%" y="-50%" width="200%" height="200%" filterUnits="objectBoundingBox" id="filter-2">
            <feOffset dx="0" dy="2" in="SourceAlpha" result="shadowOffsetOuter1"></feOffset>
            <feGaussianBlur stdDeviation="0" in="shadowOffsetOuter1" result="shadowBlurOuter1"></feGaussianBlur>
            <feColorMatrix values="0 0 0 0 0   0 0 0 0 0   0 0 0 0 0  0 0 0 0.042 0" in="shadowBlurOuter1" type="matrix" result="shadowMatrixOuter1"></feColorMatrix>
            <feMerge>
                <feMergeNode in="shadowMatrixOuter1"></feMergeNode>
                <feMergeNode in="SourceGraphic"></feMergeNode>
            </feMerge>
        </filter>
        <filter x="-50%" y="-50%" width="200%" height="200%" filterUnits="objectBoundingBox" id="filter-3">
            <feOffset dx="0" dy="2" in="SourceAlpha" result="shadowOffsetOuter1"></feOffset>
            <feGaussianBlur stdDeviation="0" in="shadowOffsetOuter1" result="shadowBlurOuter1"></feGaussianBlur>
            <feColorMatrix values="0 0 0 0 0   0 0 0 0 0   0 0 0 0 0  0 0 0 0.042 0" in="shadowBlurOuter1" type="matrix" result="shadowMatrixOuter1"></feColorMatrix>
            <feMerge>
                <feMergeNode in="shadowMatrixOuter1"></feMergeNode>
                <feMergeNode in="SourceGraphic"></feMergeNode>
            </feMerge>
        </filter>
    </defs>
    <g id="Page-1" stroke="none" stroke-width="1" fill="none" fill-rule="evenodd" sketch:type="MSPage">
        <g id="Product" sketch:type="MSArtboardGroup" transform="translate(-485.000000, 0.000000)" fill="url(#linearGradient-1)">
            <g id="leaves-overlay" sketch:type="MSLayerGroup" transform="translate(478.000000, -26.000000)">
                <path d="M34.1908571,17.5903562 C33.7247476,17.9675293 31.8329948,19.6851758 31.8329948,19.6851758 C25.667835,24.7284513 28.9092175,32.4450781 28.9092175,32.4450781 C29.300381,33.8515493 31.024668,35.8193565 31.024668,35.8193565 C31.8717847,36.9297168 32.9050893,39.1223893 32.9050893,39.1223893 L30.2554127,38.4362123 C27.9381025,38.2914009 27.1423251,36.8182903 27.1423251,36.8182903 C24.8271175,33.6987522 18.9269266,30.1876577 18.9269266,30.1876577 C15.7815049,28.1731791 9.70037055,29.4115027 9.70037055,29.4115027 C6.43152636,30.4750637 8.16515889,32.5340469 8.16515889,32.5340469 C9.39289576,34.7810663 13.9520966,37.6323011 13.9520966,37.6323011 C20.0709719,41.2557104 24.2446308,39.6540458 24.2446308,39.6540458 C26.7305774,38.6679707 28.2291822,38.8175753 28.2291822,38.8175753 L32.5603011,39.6795554 L26.6444462,42.0875859 C25.3535493,42.6702008 23.582786,42.1227381 23.582786,42.1227381 C19.3483286,41.2043421 15.45223,42.2929396 15.45223,42.2929396 C9.86148686,43.7770668 8.12855428,50.3225587 8.12855428,50.3225587 C7.59137624,52.1108852 11.1518322,51.8084773 11.1518322,51.8084773 C19.7043259,52.5531403 24.294986,45.4091532 24.294986,45.4091532 C25.2225417,44.150124 25.8934777,43.2951786 25.8934777,43.2951786 C26.9817352,42.559307 32.4676873,40.5045922 32.4676873,40.5045922 C32.2140267,40.7148352 27.5440206,45.9783268 27.5440206,45.9783268 C26.9504821,46.9139537 25.7987757,47.7444896 25.7987757,47.7444896 C21.8037362,50.0898368 19.1639022,54.9016763 19.1639022,54.9016763 C15.1155558,62.1921458 19.8556647,67.5626818 19.8556647,67.5626818 C20.4694378,68.1216526 21.3213498,69.1620687 21.3213498,69.1620687 C22.1471766,70.3835058 22.8709984,68.9478104 22.8709984,68.9478104 C23.3232156,68.2433573 24.8976891,66.9597874 24.8976891,66.9597874 C32.7353538,58.6087151 27.5125484,47.836892 27.5125484,47.836892 C27.1194633,46.9108415 32.7120732,41.3236365 32.7120732,41.3236365 C33.0531743,40.8373589 33.3452148,41.123323 33.3452148,41.123323 C33.2488011,42.6684962 33.0425826,49.5914635 33.0425826,49.5914635 C32.6323684,50.073654 32.5951422,51.3537241 32.5951422,51.3537241 C30.2747559,56.9189685 33.1821117,63.2041635 33.1821117,63.2041635 C36.9048215,71.351885 43.5616336,72.1971951 43.5616336,72.1971951 C46.9003525,73.138051 47.0377946,69.2343815 45.6204538,65.8545071 C42.7747007,59.0699246 35.6284095,51.9803544 35.6284095,51.9803544 C33.7872565,50.7796161 33.7864378,49.4124173 33.7864378,49.4124173 C33.3040958,45.8576005 34.1157096,41.4111592 34.1157096,41.4111592 C34.5865416,41.7929478 36.6593276,46.7582002 36.6593276,46.7582002 C37.7238824,50.7147285 39.8642666,53.0191186 39.8642666,53.0191186 C46.8213345,61.2773167 57.168456,59.4830848 57.168456,59.4830848 C59.8475376,58.7899412 54.4034851,52.4871899 54.4034851,52.4871899 C49.3309092,47.7020138 38.8722534,46.0917416 38.8722534,46.0917416 C37.0580768,46.0069427 36.7517753,45.043701 36.7517753,45.043701 C36.3228134,44.2251926 34.5904381,40.5947571 34.5904381,40.5947571 L36.565904,41.4649029 C37.9891509,42.1602313 39.385161,43.2763415 39.385161,43.2763415 C42.9789318,47.1515614 48.8252363,48.1218 48.8252363,48.1218 C54.4517518,49.4587366 60.3379559,44.8069202 60.3379559,44.8069202 C62.2042339,43.8095914 60.500861,43.0971753 60.500861,43.0971753 C59.6501004,42.9456266 57.8723473,41.1709935 57.8723473,41.1709935 C52.9927442,36.2013348 46.7696497,37.8859707 46.7696497,37.8859707 C46.797866,37.8732861 46.8268317,37.8602836 46.85473,37.8468498 C49.8150108,36.4171534 51.3459216,30.0644062 51.3459216,30.0644062 C52.6543334,28.0732096 49.4302754,28.4506988 49.4302754,28.4506988 C44.2411514,27.3380284 40.4473411,28.9484054 40.4473411,28.9484054 C34.913995,31.7755385 34.9307844,37.6128024 34.6520031,38.2438132 C34.3726634,38.8755915 33.7407205,39.0753962 33.7407205,39.0753962 L32.7148965,36.9815881 C32.2598754,35.3930145 33.6941825,34.8091225 34.1276232,34.4341447 C37.9840517,31.0939888 38.096784,21.8805875 38.096784,21.8805875 C37.9666016,19.8724132 36.9930614,18.3150669 36.9930614,18.3150669 C36.7385636,15.3811751 34.6558724,17.214355 34.1908571,17.5903562 L34.1908571,17.5903562 Z" id="Path-Copy-7" filter="url(#filter-2)" sketch:type="MSShapeGroup"></path>
                <path d="M176.61275,17.0658607 C175.04486,15.0213635 173.196418,14.8821919 170.727227,15.1914622 C166.301901,16.1579316 163.221349,20.7262948 163.680836,25.0886619 C163.718942,25.4515022 163.826635,25.8701215 164.169593,26.0043227 C164.318154,26.0623109 164.485491,26.0540269 164.644544,26.0297271 C165.944584,25.8303582 166.866319,24.7087014 167.783085,23.7687408 C169.227266,22.2881095 171.002809,21.0720148 173.003124,20.5219556 C173.911606,20.271778 174.918943,20.1712652 175.753421,20.5788392 C176.587898,20.9858609 177.129673,22.0440069 176.700008,22.8724093 C176.214012,23.8112654 174.931093,23.9255849 173.869081,24.0034548 C169.609988,24.3149341 164.213775,26.548307 163.882966,31.2591554 C163.81338,32.2488201 163.500244,39.2013255 165.732513,38.1647179 C167.046911,37.5544615 168.342533,35.3730018 169.463085,34.3877552 C170.753736,33.2528439 172.144347,32.2283862 173.614485,31.3320548 C174.231921,30.9554078 174.999574,30.5925676 175.640758,30.9045992 C175.192868,32.8309109 173.474209,34.1878341 171.933933,35.4729623 C170.298667,36.837065 168.718627,38.3315029 167.700244,40.1838107 C166.678548,42.0410889 166.612276,43.7757636 166.897799,45.7860201 C167.038075,46.7751326 167.291014,48.9709513 168.659534,49.1001821 C169.138351,49.145468 169.596734,48.8268093 169.859061,48.4247579 C170.121941,48.0232589 170.229081,47.5477559 170.343953,47.0855074 C171.397681,42.8474006 173.617247,38.6761183 177.324071,36.242272 C177.746004,35.9650334 178.227582,35.7027059 178.725728,35.7623509 C181.973618,36.1533568 175.01062,43.0545012 174.305373,43.7956453 C172.663479,45.5203791 171.515866,47.3031011 170.954209,49.5894917 C170.429002,51.7273222 171.139771,53.390202 172.379061,55.1773422 C173.023006,56.1051529 174.463322,58.0883482 175.714762,56.7408137 C176.032316,56.3984073 176.17204,55.9372633 176.302375,55.4943442 C177.310817,52.0581309 178.159653,48.5882294 180.129594,45.4717795 C180.394131,45.0537124 180.75421,44.5820753 181.250147,44.5997479 C183.612198,44.6836926 180.210225,50.4858232 179.751291,51.2921348 C178.788687,52.9853894 178.482178,54.5588017 178.108845,56.4668886 C177.828845,57.8950544 177.380955,59.3939105 178.292198,60.6657843 C178.93559,61.5643248 180.162178,62.1994333 180.928727,61.0120565 C181.229713,60.5459421 181.31918,59.983733 181.390975,59.4391965 C181.55279,58.2120563 181.673184,51.5439692 183.550896,49.8810894 C183.929752,49.5453103 184.379851,49.4138704 184.916103,49.5712669 C185.303796,49.6850342 185.520837,50.1102807 185.519733,50.510123 C185.518628,50.9099652 185.347977,51.2910303 185.18064,51.6582887 C183.738668,54.8194723 180.692908,60.2968691 183.722652,63.4033781 C185.218746,64.9370271 187.195867,65.9984868 189.175196,66.8191574 C189.480049,66.9456269 189.820798,67.0649168 190.1378,66.9594336 C190.391291,66.8754888 190.576853,66.6628655 190.749161,66.460183 C191.749319,65.2816425 192.749477,64.1025498 193.749635,62.9240093 C196.113895,60.1367113 195.654408,56.7606953 193.434842,54.0750147 C192.592633,53.056632 189.395551,51.2888212 189.701508,49.7446791 C189.985926,48.311543 191.833816,48.8814838 192.623007,49.4381702 C194.50569,50.7680322 195.587031,53.412845 196.377327,55.4645217 C196.680522,56.2503994 196.945059,57.0804586 197.517761,57.7006559 C198.466006,58.7262181 199.183402,57.0765928 199.477209,56.2758038 C200.697169,52.9472829 198.574802,50.0351722 196.204467,47.9155666 C195.57709,47.3550143 189.084072,42.7214835 189.355788,42.5480712 C190.03066,42.1211678 190.898826,42.5072034 191.581982,42.8937912 C195.439575,45.0752509 198.717288,47.3019965 201.110818,51.0485845 C201.592396,51.8024307 202.004941,52.7810501 202.838866,51.4743834 C203.953895,49.7253497 203.735197,47.1688999 202.49425,45.5629037 C200.492278,42.9727655 197.503954,41.6290968 194.52999,40.38815 C193.282968,39.8679133 191.41851,39.4150533 190.401232,38.5225878 C189.546873,37.7720552 189.402731,36.4112661 190.838076,36.1566705 C192.954368,35.7816803 195.78143,37.6704378 197.346006,38.8412465 C199.323678,40.3207733 200.90427,42.2708325 202.917288,43.7249549 C203.890385,44.4279924 205.012042,45.2282292 205.843758,43.9635348 C206.315947,43.2466906 206.368965,41.9201422 206.233107,41.1094124 C206.042574,39.9772624 205.149004,39.1013649 204.213462,38.4264931 C202.042495,36.861917 199.437998,35.9059407 196.951134,34.9245599 C195.370542,34.3004968 193.432633,34.2485836 191.969674,33.3699247 C190.743086,32.6326466 190.959575,31.3149345 192.586005,31.737972 C196.525335,32.7624296 200.267505,34.4700431 203.591055,36.7591951 C205.157288,37.8383274 207.079734,38.5794714 206.997446,36.0042444 C206.956026,34.7025481 206.411489,33.2705164 205.808412,32.131187 C204.58569,29.819392 201.735434,29.6371435 199.378905,29.2704373 C198.330148,29.1069659 189.843441,29.0489777 190.725413,26.9326857 C190.776222,26.8100822 190.868451,26.706808 190.972277,26.6217587 C191.516814,26.1722123 192.210463,26.3334746 192.839496,26.4273602 C195.975828,26.8956837 198.94427,27.5147765 202.017091,28.1907528 C202.627899,28.3255063 203.264112,28.4602598 203.878787,28.3188791 C206.425848,27.7323702 204.151608,24.0940268 203.512081,22.8630208 C202.63784,21.1797071 201.378669,19.5836518 199.56281,18.8281488 C197.740325,18.0704367 196.134881,18.5006537 194.352159,19.2114229 C192.9135,19.7852297 191.474842,20.3584841 190.036183,20.9317386 C189.329279,21.2139477 188.571567,21.5011272 187.829871,21.358642 C187.620009,21.3188787 187.405729,21.2354862 187.282021,21.0653875 C187.06995,20.7732376 187.204703,20.3573796 187.398549,20.0459003 C188.249043,18.6773795 189.954999,18.0997069 191.542218,17.762271 C193.605493,17.32377 195.72068,17.1094899 197.727071,16.4556042 C198.334566,16.2573399 199.002258,15.9464129 199.191134,15.345545 C199.320917,14.9324483 199.18285,14.4906337 199.011647,14.097971 C198.287071,12.4361957 197.030108,11.3084639 195.438471,10.450239 C193.525966,9.41915413 191.266084,8.89173793 188.953737,8.99943024 C186.925808,9.09442038 183.815433,9.90735929 182.901429,11.9894107 C182.286202,13.389963 182.505452,14.8672807 182.600443,16.267833 C182.637997,16.8267285 183.236103,19.9967484 181.709082,19.3715807 C181.186084,19.1573006 181.022612,18.554776 180.916024,18.0163144 C180.290304,14.8462945 180.03847,11.5923298 179.696064,8.36100811 C179.658509,8.00369054 179.632001,7.64416389 179.608805,7.28463724 L177.801784,7.28463724 C178.278391,9.10546575 178.888095,10.8903968 179.267504,12.7366297 C179.506636,13.8991544 180.810541,18.4067681 179.18135,18.9993519 C178.108292,19.3892533 177.115866,17.7214031 176.61275,17.0658607 Z" id="Path-Copy-2" filter="url(#filter-3)" sketch:type="MSShapeGroup" transform="translate(185.317743, 37.142319) rotate(-46.000000) translate(-185.317743, -37.142319) "></path>
            </g>
        </g>
    </g>
</svg>