<?xml version="1.0" encoding="UTF-8"?>
<svg width="17px" height="19px" viewBox="0 0 17 19" version="1.1" xmlns="http://www.w3.org/2000/svg" xmlns:xlink="http://www.w3.org/1999/xlink">
    <!-- Generator: Sketch 41.2 (35397) - http://www.bohemiancoding.com/sketch -->
    <title>balance</title>
    <desc>Created with Sketch.</desc>
    <defs></defs>
    <g id="Page-1" stroke="none" stroke-width="1" fill="none" fill-rule="evenodd">
        <path d="M17.0000383,3.68260959 C17.0000383,5.71653975 13.1943963,7.36521917 8.50020108,7.36521917 C3.80564201,7.36521917 0,5.71653975 0,3.68260959 C0,1.64867942 3.80564201,0 8.50020108,0 C13.1943963,0 17.0000383,1.64867942 17.0000383,3.68260959 Z M8.50005554,8.85543908 C4.66566835,8.85543908 1.42546928,7.75520171 0.366628253,6.24400539 C0.129025782,6.58305585 0.000218317737,6.94259836 0.000218317737,7.31518128 C0.000218317737,9.34911145 3.80549647,10.9977909 8.50005554,10.9977909 C13.1946146,10.9977909 16.9998928,9.34911145 16.9998928,7.31518128 C16.9998928,6.94259836 16.8710853,6.58305585 16.6334828,6.24400539 C15.5746418,7.75520171 12.3344427,8.85543908 8.50005554,8.85543908 Z M8.50005554,12.5812683 C4.66566835,12.5812683 1.42546928,11.4810309 0.366628253,9.96983459 C0.129025782,10.308885 0.000218317737,10.6684276 0.000218317737,11.0410105 C0.000218317737,13.0749407 3.80549647,14.7236201 8.50005554,14.7236201 C13.1946146,14.7236201 16.9998928,13.0749407 16.9998928,11.0410105 C16.9998928,10.6684276 16.8710853,10.308885 16.6334828,9.96983459 C15.5746418,11.4810309 12.3344427,12.5812683 8.50005554,12.5812683 Z M8.50005554,16.3070975 C4.66566835,16.3070975 1.42546928,15.2068601 0.366628253,13.6956638 C0.129025782,14.0347143 0.000218317737,14.3942568 0.000218317737,14.7668397 C0.000218317737,16.8007699 3.80549647,18.4494493 8.50005554,18.4494493 C13.1946146,18.4494493 16.9998928,16.8007699 16.9998928,14.7668397 C16.9998928,14.3942568 16.8710853,14.0347143 16.6334828,13.6956638 C15.5746418,15.2068601 12.3344427,16.3070975 8.50005554,16.3070975 Z" id="balance" fill="#BF827E"></path>
    </g>
</svg>