<?xml version="1.0" encoding="UTF-8" standalone="no"?>
<svg width="104px" height="123px" viewBox="0 0 104 123" version="1.1" xmlns="http://www.w3.org/2000/svg" xmlns:xlink="http://www.w3.org/1999/xlink" xmlns:sketch="http://www.bohemiancoding.com/sketch/ns">
    <!-- Generator: Sketch 3.3.3 (12072) - http://www.bohemiancoding.com/sketch -->
    <title>glox copy</title>
    <desc>Created with Sketch.</desc>
    <defs>
        <linearGradient x1="0%" y1="0%" x2="78.0751813%" y2="109.864152%" id="linearGradient-1">
            <stop stop-color="#31386F" offset="0%"></stop>
            <stop stop-color="#5B4771" offset="66.5914493%"></stop>
            <stop stop-color="#5B4771" offset="66.6055655%"></stop>
            <stop stop-color="#5B4771" offset="66.6055655%"></stop>
            <stop stop-color="#5B4771" offset="66.6055655%"></stop>
            <stop stop-color="#5C4771" offset="66.9776056%"></stop>
            <stop stop-color="#5C4771" offset="66.9776056%"></stop>
            <stop stop-color="#5C4771" offset="67.5052275%"></stop>
            <stop stop-color="#5C4771" offset="67.5052275%"></stop>
            <stop stop-color="#5C4771" offset="67.5052275%"></stop>
            <stop stop-color="#5C4771" offset="67.5052275%"></stop>
            <stop stop-color="#5C4771" offset="67.5702945%"></stop>
            <stop stop-color="#5C4771" offset="67.9476282%"></stop>
            <stop stop-color="#5C4771" offset="67.9476282%"></stop>
            <stop stop-color="#5C4771" offset="67.9476282%"></stop>
            <stop stop-color="#5C4771" offset="67.9476282%"></stop>
            <stop stop-color="#5C4771" offset="68.052728%"></stop>
            <stop stop-color="#5E4871" offset="70.0448453%"></stop>
            <stop stop-color="#644A71" offset="79.8359266%"></stop>
            <stop stop-color="#714F72" offset="100%"></stop>
        </linearGradient>
        <filter x="-50%" y="-50%" width="200%" height="200%" filterUnits="objectBoundingBox" id="filter-2">
            <feOffset dx="0" dy="2" in="SourceAlpha" result="shadowOffsetOuter1"></feOffset>
            <feGaussianBlur stdDeviation="0" in="shadowOffsetOuter1" result="shadowBlurOuter1"></feGaussianBlur>
            <feColorMatrix values="0 0 0 0 0   0 0 0 0 0   0 0 0 0 0  0 0 0 0.0417685688 0" in="shadowBlurOuter1" type="matrix" result="shadowMatrixOuter1"></feColorMatrix>
            <feMerge>
                <feMergeNode in="shadowMatrixOuter1"></feMergeNode>
                <feMergeNode in="SourceGraphic"></feMergeNode>
            </feMerge>
        </filter>
        <linearGradient x1="50%" y1="0%" x2="50.7751116%" y2="67.8645833%" id="linearGradient-3">
            <stop stop-color="#A8797D" offset="0%"></stop>
            <stop stop-color="#8F6B7B" offset="100%"></stop>
        </linearGradient>
        <filter x="-50%" y="-50%" width="200%" height="200%" filterUnits="objectBoundingBox" id="filter-4">
            <feOffset dx="0" dy="-1" in="SourceAlpha" result="shadowOffsetInner1"></feOffset>
            <feGaussianBlur stdDeviation="0" in="shadowOffsetInner1" result="shadowBlurInner1"></feGaussianBlur>
            <feComposite in="shadowBlurInner1" in2="SourceAlpha" operator="arithmetic" k2="-1" k3="1" result="shadowInnerInner1"></feComposite>
            <feColorMatrix values="0 0 0 0 0   0 0 0 0 0   0 0 0 0 0  0 0 0 0.105768795 0" in="shadowInnerInner1" type="matrix" result="shadowMatrixInner1"></feColorMatrix>
            <feMerge>
                <feMergeNode in="SourceGraphic"></feMergeNode>
                <feMergeNode in="shadowMatrixInner1"></feMergeNode>
            </feMerge>
        </filter>
        <linearGradient x1="57.1952343%" y1="0%" x2="60.2629333%" y2="123.637821%" id="linearGradient-5">
            <stop stop-color="#FFFFFF" stop-opacity="0.04" offset="0%"></stop>
            <stop stop-color="#FFFFFF" stop-opacity="0.01" offset="100%"></stop>
        </linearGradient>
    </defs>
    <g id="Page-1" stroke="none" stroke-width="1" fill="none" fill-rule="evenodd" sketch:type="MSPage">
        <g id="about" sketch:type="MSArtboardGroup" transform="translate(-648.000000, -96.000000)">
            <g id="glox-copy" sketch:type="MSLayerGroup" transform="translate(648.000000, 96.000000)">
                <g id="Group-Copy-3" sketch:type="MSShapeGroup">
                    <path d="M95.5509003,57.0355079 C94.6871309,54.4458155 93.5954587,51.8925235 92.2867567,49.3936129 C95.46087,52.7770975 98.2157115,56.3276732 100.490391,59.9984142 C98.5306003,54.8856904 95.6070062,50.0251382 91.8700945,45.5395542 C91.873139,45.4250902 91.8744438,45.3106263 91.8753137,45.1979165 C93.5850204,46.5267511 95.2016522,47.9147911 96.7147709,49.3589667 C95.3530075,47.0863527 93.6524344,44.994425 91.7965915,43.0976563 C90.9976266,33.4318104 84.3018915,24.0760258 74.4172557,18.1866136 C69.8800743,10.4425344 62.0265577,6.60996505 53.0804991,6.4016494 C56.0158362,5.44032752 58.9389954,4.70267086 61.82823,4.20841458 C57.841669,4.12464977 53.7824748,4.59873232 49.7228456,5.58987623 C53.5641403,3.42909479 57.4624107,1.69722431 61.3598113,0.438559252 C55.8288167,1.11701042 50.3091302,2.89273683 44.9816825,5.6311008 C46.8492684,4.10579172 48.7616521,2.71512033 50.7118746,1.47048917 C46.1294606,3.29094863 41.7697303,5.94247787 37.7292381,9.29657903 C29.5251686,12.534462 23.2052124,18.0414505 20.2894471,25.0426104 C15.2790627,30.2904104 12.0997303,36.6245217 11.5652023,43.0976563 C9.70848956,44.994425 8.00878625,47.0863527 6.64615308,49.3589667 C8.15970669,47.9147911 9.77633852,46.5267511 11.4860452,45.1979165 C11.4869151,45.3106263 11.4882198,45.4250902 11.4908294,45.5395542 C7.75435267,50.0251382 4.8307586,54.8856904 2.87140257,59.9984142 C5.14564734,56.3276732 7.90005395,52.7770975 11.0741672,49.3936129 C9.76546529,51.8925235 8.67466286,54.4458155 7.81045854,57.0346307 C2.86226905,65.0944727 0,73.2104502 0,79.0739874 C0,95.7545886 23.1377984,120.655544 51.680462,120.655544 C80.2226906,120.655544 103.361359,95.7545886 103.361359,79.0739874 C103.361359,73.2104502 100.49909,65.0949112 95.5509003,57.0355079" id="Imported-Layers" fill="url(#linearGradient-1)" filter="url(#filter-2)"></path>
                    <path d="M67.5926814,28.1805278 C66.9432569,34.3614311 64.5493338,40.1601676 60.9160673,45.1714753 C66.0712216,39.662523 69.5251151,32.7708856 70.3115308,25.2961934 C70.6771264,21.8091949 70.4279734,18.4568479 69.6578254,15.3149759 C68.3628294,14.7720116 67.0327294,14.2830823 65.6713782,13.8525456 C67.4060307,18.2019249 68.1308004,23.0537422 67.5926814,28.1805278 Z M37.2949123,13.8525456 C35.9339892,14.2830823 34.6038892,14.7720116 33.3084651,15.3149759 C32.5383171,18.4568479 32.288736,21.8091949 32.6547597,25.2961934 C33.4407473,32.7708856 36.8946408,39.662523 42.0502232,45.1714753 C38.4169567,40.1601676 36.0230336,34.3614311 35.3740372,28.1805278 C34.835062,23.0537422 35.5594036,18.2019249 37.2949123,13.8525456 L37.2949123,13.8525456 Z M89.0849058,59.8175665 C87.7894817,57.0338941 86.141305,54.6005774 84.2234266,52.5250245 C83.5371858,53.3621308 82.7931517,54.1682977 82.006736,54.9343741 C84.5128208,57.3463382 86.640039,60.2934229 88.2496869,63.7538397 C90.8555185,69.3560459 91.7849189,75.5879338 91.2596429,81.83028 C92.8230562,74.332928 92.2352779,66.5932902 89.0849058,59.8175665 L89.0849058,59.8175665 Z M13.8809566,59.8175665 C10.7310126,66.5932902 10.1432343,74.332928 11.7066476,81.83028 C11.1813716,75.5879338 12.1103439,69.3560459 14.7161755,63.7538397 C16.3258234,60.2934229 18.4526135,57.3463382 20.9586983,54.9343741 C20.1727107,54.1682977 19.4286766,53.3621308 18.7424358,52.5250245 C16.8245574,54.6005774 15.1763807,57.0338941 13.8809566,59.8175665 L13.8809566,59.8175665 Z" id="Imported-Layers-Copy-32" fill="#302E56"></path>
                    <path d="M72.1706139,61.3835974 C81.525506,58.2470216 94.333736,45.8248308 87.7132437,36.2466967 C84.6391642,31.800583 79.0777245,30.9532866 73.1974817,32.081261 C67.5290495,29.709094 59.9016962,28.325001 51.511477,28.325001 C43.1216928,28.325001 35.4939045,29.709094 29.8254723,32.081261 C23.9447946,30.9532866 18.38292,31.800583 15.3097103,36.2466967 C8.68878308,45.8248308 21.497013,58.2470216 30.8519052,61.3835974 C22.2416118,67.8782214 16.6523367,78.2983892 16.6523367,89.9509085 C16.6523367,109.427763 32.2589011,113.435756 51.5110421,113.435756 C70.7640529,113.435756 86.3706173,109.427763 86.3706173,89.9509085 C86.3706173,78.2979506 80.7813422,67.8782214 72.1706139,61.3835974" id="Imported-Layers-Copy-27" fill="url(#linearGradient-3)"></path>
                    <g id="Imported-Layers-Copy-31" transform="translate(15.657451, 65.602537)">
                        <path d="M58.6684226,8.34197371 C56.8092207,13.7203442 58.0149448,19.0312848 60.4124017,19.8730542 C62.8109559,20.7137182 68.6593351,17.8761317 70.5182626,12.4972085 C72.3769158,7.11883797 69.5424354,1.23584796 67.1444298,0.394907587 C64.7461499,-0.446309135 60.5268014,2.96305049 58.6684226,8.34197371" id="Fill-1" fill="#D9DADB"></path>
                        <path d="M12.6125051,8.34197371 C14.4711583,13.7203442 13.2659829,19.0312848 10.8679773,19.8730542 C8.46997179,20.7137182 2.62159262,17.8761317 0.762116397,12.4972085 C-1.0965368,7.11883797 1.73821796,1.23584796 4.13622351,0.394907587 C6.53450341,-0.446309135 10.7535776,2.96305049 12.6125051,8.34197371" id="Fill-2" fill="#D9DADB"></path>
                        <path d="M65.0759066,0.523411456 C63.1637571,1.23640066 60.9473646,3.40355623 59.4563269,6.45421043 C60.0052812,6.75046021 60.5476513,7.05278974 61.0809681,7.36340984 C62.0353968,4.52057265 63.4987262,2.14560008 65.0759066,0.523411456" id="Fill-3" fill="#E1E1E2"></path>
                        <path d="M70.5182626,12.4972085 C70.508112,12.5265018 70.4979614,12.5552425 70.4878109,12.5842595 C70.4979614,12.5555188 70.508112,12.5265018 70.5182626,12.4972085 M70.5284132,12.4679151 C70.5251211,12.4778638 70.5215547,12.4875361 70.5182626,12.4972085 C70.5215547,12.4875361 70.5251211,12.4778638 70.5284132,12.4679151 M70.5396611,12.4350292 C70.536369,12.4441488 70.5333513,12.4538212 70.5300592,12.4629408 C70.5333513,12.4535448 70.536369,12.4444252 70.5396611,12.4350292 M71.1124829,8.45555455 C71.1536339,9.75606897 70.9882069,11.1093667 70.5399355,12.4339238 C70.9884813,11.1093667 71.1536339,9.75579262 71.1124829,8.45555455 M71.1116599,8.42764296 C71.1119343,8.43703894 71.1122086,8.44588222 71.1124829,8.4552782 C71.1122086,8.44615857 71.1119343,8.43676259 71.1116599,8.42764296 M71.1102882,8.39586243 C71.1108369,8.40470571 71.1111112,8.41382534 71.1113856,8.42266861 C71.1111112,8.41382534 71.1108369,8.40470571 71.1102882,8.39586243 M71.1094652,8.37043801 C71.1094652,8.3745833 71.1097395,8.37900493 71.1100139,8.38315022 C71.1097395,8.37900493 71.1094652,8.3745833 71.1094652,8.37043801 M71.1086422,8.34832982 L71.1086422,8.35275146 L71.1086422,8.34832982" id="Fill-4" fill="#CCCCCC"></path>
                        <path d="M69.0798982,2.07126128 C70.0450262,4.92183634 70.3377469,8.46992488 69.1652179,11.8615979 C69.0557563,12.1791269 68.931206,12.4875361 68.8008945,12.7912474 C69.1956697,13.1236994 69.5846837,13.4578094 69.9638216,13.7957884 C70.1588773,13.4069606 70.3377469,13.0051442 70.4878109,12.5842595 C70.4979614,12.5552425 70.508112,12.5265018 70.5182626,12.4972085 C70.5215547,12.4875361 70.5251211,12.4778638 70.5284132,12.4679151 C70.5289619,12.466257 70.5295105,12.4645989 70.5300592,12.4629408 C70.5333513,12.4538212 70.536369,12.4441488 70.5396611,12.4350292 C70.5396611,12.4347528 70.5399355,12.4342001 70.5399355,12.4339238 C70.9882069,11.1093667 71.1536339,9.75606897 71.1124829,8.45555455 C71.1124829,8.45555455 71.1124829,8.45555455 71.1124829,8.4552782 C71.1122086,8.44588222 71.1119343,8.43703894 71.1116599,8.42764296 C71.1113856,8.42598484 71.1113856,8.42432673 71.1113856,8.42266861 C71.1111112,8.41382534 71.1108369,8.40470571 71.1102882,8.39586243 C71.1102882,8.39144079 71.1100139,8.38729551 71.1100139,8.38315022 C71.1097395,8.37900493 71.1094652,8.3745833 71.1094652,8.37043801 C71.1091909,8.36463461 71.1089165,8.35855486 71.1086422,8.35275146 L71.1086422,8.34832982 C71.0074107,5.85424936 70.149824,3.56632779 69.0798982,2.07126128" id="Fill-5" fill="#AEAEAF"></path>
                        <path d="M6.20447244,0.523411456 C7.78192718,2.14560008 9.24498217,4.52057265 10.1996852,7.36340984 C10.7330021,7.05278974 11.2756465,6.75018386 11.8246008,6.45421043 C10.3327401,3.40355623 8.11689627,1.23640066 6.20447244,0.523411456" id="Fill-6" fill="#E1E1E2"></path>
                        <path id="Fill-7" fill="#CCCCCC"></path>
                        <path d="M2.20020645,2.07126128 C0.570352768,4.35061592 -0.567335028,8.47241205 0.715204265,12.3587559 C0.715478605,12.3590323 0.715478605,12.3593086 0.715478605,12.359585 C0.717947664,12.3667701 0.720416724,12.3739553 0.722885783,12.3811405 C0.723160123,12.3825222 0.723708803,12.383904 0.723983143,12.3852858 C0.728098243,12.3974453 0.732213342,12.4093284 0.736328441,12.4214879 C0.737151461,12.4242514 0.737974481,12.4264623 0.738797501,12.4292258 C0.740717881,12.4342001 0.74208958,12.4388981 0.74373562,12.4438725 C0.74538166,12.4482941 0.747027699,12.4535448 0.748673739,12.4582428 C0.750045439,12.4621117 0.751417139,12.466257 0.752788839,12.4704023 C0.755806578,12.4792456 0.759098658,12.4883652 0.762116397,12.4972085 C0.764859797,12.5049463 0.767328856,12.5124079 0.770072256,12.5198694 C0.925074331,12.9645204 1.11189984,13.3870632 1.31683179,13.7960648 C1.69542093,13.4580858 2.08470932,13.1236994 2.4800332,12.7912474 C2.34944738,12.4878125 2.22517138,12.1791269 2.11516106,11.8615979 C0.943180768,8.46992488 1.23562716,4.92183634 2.20020645,2.07126128" id="Fill-8" fill="#AEAEAF"></path>
                    </g>
                    <path d="M38.5821049,40.1940713 C34.7076481,40.4652706 32.0805487,43.4985445 32.7138936,46.9693873 C33.3476587,50.4402301 37.0018947,53.0342373 40.8759313,52.7621891 C44.7512286,52.4914142 47.3779078,49.4581403 46.7445629,45.9872975 C46.111218,42.5164547 42.4561414,39.9224475 38.5821049,40.1940713 L38.5821049,40.1940713 Z M63.9158999,40.1940713 C60.0414431,39.9224475 56.3872071,42.5164547 55.7534419,45.9872975 C55.1200971,49.4581403 57.7471965,52.4914142 61.6220736,52.7621891 C65.4956898,53.0342373 69.1499259,50.4402301 69.7845315,46.9693873 C70.4174561,43.4985445 67.7899365,40.4652706 63.9158999,40.1940713 L63.9158999,40.1940713 Z" id="Imported-Layers-Copy-28" fill="#2E2747"></path>
                    <ellipse id="Oval-270" fill="#725357" cx="51.5435846" cy="58.0656077" rx="0.425980038" ry="3.87104051"></ellipse>
                    <path d="M51.4398152,114.975009 C74.5987816,114.975009 93.372949,103.284786 93.372949,92.9475417 C93.372949,82.6102977 74.5987816,63.895089 51.4398152,63.895089 C28.2812822,63.895089 9.5075481,82.6102977 9.5075481,92.9475417 C9.5075481,103.284786 28.2812822,114.975009 51.4398152,114.975009" id="Imported-Layers-Copy-25" fill="url(#linearGradient-3)"></path>
                    <path d="M46.2035744,54.1052955 C44.7188566,54.1052955 42.5914004,54.889571 41.1379975,55.904748 C39.0050612,57.3939636 38.0750086,59.5557537 38.9475201,60.8109103 C39.3452193,61.3828354 40.0486303,61.6682059 40.8984385,61.6682059 C41.9134328,61.6682059 43.137454,61.2612668 44.298454,60.4505462 C46.4313903,58.9609358 48.6026873,55.9323772 47.7301758,54.6772206 C47.4518647,54.2769914 46.8983738,54.1052955 46.2035744,54.1052955 L46.2035744,54.1052955 Z M61.5513994,55.904748 C60.0976051,54.889571 57.9701489,54.1052955 56.4854311,54.1052955 C55.7906317,54.1052955 55.2371408,54.2769914 54.9588296,54.6772206 C54.0859267,55.9323772 56.2572237,58.9609358 58.3905515,60.4505462 C59.55116,61.2612668 60.7755727,61.6682059 61.790567,61.6682059 C62.6403751,61.6682059 63.3437861,61.3828354 63.7410939,60.8109103 C64.6139968,59.5557537 63.6835528,57.3939636 61.5513994,55.904748 L61.5513994,55.904748 Z" id="Imported-Layers" fill="#302E56" filter="url(#filter-4)"></path>
                    <path d="M71.9664606,31.6440174 C66.441555,29.5402486 59.2713123,28.325001 51.4338881,28.325001 C43.5968989,28.325001 36.4270911,29.5402486 30.9021855,31.6440174 C36.943787,30.4638544 43.9557155,29.809524 51.4338881,29.809524 C58.9124957,29.809524 65.9244242,30.4638544 71.9664606,31.6440174 L71.9664606,31.6440174 Z M68.6727418,59.1798371 C67.8642084,57.9233649 66.6846805,56.6888206 65.1902637,55.6323314 C62.4567337,53.6982851 58.4532104,52.2032366 55.6605301,52.202798 C55.4430655,52.202798 55.2334296,52.2120077 55.0320574,52.2304272 C57.8695355,52.4448827 61.6086218,53.9083549 64.2260257,55.7599521 C68.389168,58.705316 70.2045625,62.9786374 68.5013797,65.4604442 C68.3056616,65.7450691 68.0707998,65.9924166 67.8041882,66.2051178 C68.4243972,65.9332111 68.9406582,65.5275438 69.3125227,64.985046 C70.0275463,63.9430292 70.0988747,62.5729701 69.6204525,61.1244089 C72.2539488,62.4479807 74.7012954,64.0443364 76.9085611,65.8783912 C74.5181902,63.2439657 71.7394276,60.9836313 68.6727418,59.1798371 L68.6727418,59.1798371 Z M38.6417505,55.7599521 C41.2595894,53.9083549 44.9982408,52.4448827 47.8370237,52.2304272 C47.6356514,52.2120077 47.4255806,52.202798 47.208551,52.202798 C44.4150007,52.202798 40.4119124,53.6978465 37.6775125,55.6323314 C36.1830958,56.6892592 35.0035678,57.9238034 34.1945995,59.1802757 C31.1283486,60.9840699 28.349586,63.2444043 25.9596501,65.8783912 C28.1669157,64.0443364 30.6138274,62.4484193 33.2473237,61.1244089 C32.7689016,62.5734086 32.8406649,63.9430292 33.5552536,64.985046 C33.9279879,65.5275438 34.443379,65.9332111 35.0631531,66.2051178 C34.7969764,65.9924166 34.5616797,65.7450691 34.3668315,65.4604442 C32.6636487,62.9786374 34.4790432,58.705316 38.6417505,55.7599521 L38.6417505,55.7599521 Z M14.5701281,81.8059861 C22.9608103,73.6295823 36.0425101,66.5378128 50.7789594,66.3397477 C50.989392,66.3369194 51.200162,66.3354968 51.4112607,66.3354968 C66.4054482,66.3354968 79.742771,73.5132834 88.2532698,81.8059861 C80.2144076,72.8550525 66.712275,64.7254189 51.4112607,64.7254189 C36.1102463,64.7254189 22.608552,72.8545944 14.5701281,81.8059861 Z M17.9099805,82.6445114 C19.1482239,81.8603674 20.4443129,81.1038527 21.7899838,80.3806685 C23.6510459,84.7609983 26.6268314,88.4093727 29.7604963,90.9806456 C27.1169967,87.9409915 24.7414134,84.066759 23.2461268,79.6206453 C25.0710897,78.700548 26.9821686,77.8449189 28.9710998,77.0721775 C31.2592623,85.4920766 35.7420776,92.8589949 40.7850816,98.3173034 C36.7541578,92.1274781 33.4195557,84.4961085 31.8177114,76.0441946 C33.6844275,75.4174935 35.6094242,74.8653474 37.5853075,74.4035445 C38.2485745,79.7096729 40.3388443,84.5601382 42.9336319,88.2957859 C41.0151592,84.1974497 39.6455671,79.2794462 39.4020068,74.0075255 C43.2554795,73.2255743 47.2850985,72.7848223 51.4338881,72.7848223 C58.3988443,72.7848223 65.0293399,74.0233136 71.0504997,76.0441946 C69.4486555,84.4961085 66.1136184,92.1274781 62.0835645,98.3173034 C67.1261336,92.8589949 71.6093838,85.4920766 73.8971113,77.0726161 C75.0335813,77.5133681 76.1439556,77.9839422 77.2295389,78.4764442 C75.1327452,84.588206 71.8407661,89.9118767 68.1851862,94.0948549 C72.5362179,90.5429635 76.6728295,85.5043563 79.274141,79.4487301 C81.2761201,80.4433825 83.1763258,81.5156599 84.9573609,82.6445114 C76.9546636,75.4486312 64.9079947,69.4035304 51.4338881,69.4035304 C37.9602165,69.4035304 25.9131126,75.4486312 17.9099805,82.6445114 L17.9099805,82.6445114 Z M21.5346804,55.955111 C16.5808368,50.8945758 13.5780856,44.3043459 17.1223237,38.6328976 C17.9860931,39.8367428 19.2491275,40.6844778 20.6813493,41.1309311 C19.5387903,40.6081685 18.5436723,39.8192004 17.8290836,38.7850777 C17.6846871,38.5758849 17.5585577,38.361868 17.4437364,38.1447812 C18.2679272,36.9672496 19.2678294,36.0462752 20.4021248,35.3489659 C20.4195219,35.6015761 20.449532,35.8568176 20.4960695,36.1138133 C20.8105233,37.8452452 21.7504053,39.3929208 23.0708503,40.5866791 C22.1213999,39.4819483 21.4520438,38.1706562 21.1923911,36.7387602 C21.082354,36.1309171 21.0549535,35.5349151 21.0975766,34.956894 C22.212735,34.3845741 23.4392354,34.0047818 24.7440229,33.7929577 C24.6544275,33.9999577 24.5726608,34.2130975 24.5048119,34.4358856 C24.0607492,35.8954108 24.1707863,37.4689614 24.7140128,38.9262938 C24.4213055,37.6891181 24.4256548,36.407648 24.792735,35.2002944 C24.9601828,34.6499025 25.1937397,34.1464365 25.4820978,33.6942819 C26.1192691,33.6227967 26.7729677,33.5885891 27.4388443,33.5885891 C34.6947681,33.5881505 43.442934,37.6724529 48.8747647,42.229522 C43.8561167,36.9584784 33.6287566,31.6361233 25.3468348,31.6361233 C21.2228362,31.6361233 17.581174,32.9557481 15.3056244,36.2598535 C10.8154154,42.7794753 15.2812684,50.6160906 21.5346804,55.955111 L21.5346804,55.955111 Z M54.0430284,42.229522 C59.4731194,37.6728914 68.2225901,33.587712 75.478079,33.587712 C77.1542961,33.587712 78.7500513,33.8056759 80.207934,34.2863369 C80.4910729,35.4072943 80.5445692,36.6102623 80.3197108,37.8518236 C80.0061269,39.5806242 79.1988983,41.1629459 78.051555,42.4974817 C79.6464404,41.0559375 80.7803008,39.1876751 81.159994,37.0975017 C81.3104795,36.2690633 81.3296164,35.4594829 81.2365416,34.6810402 C82.9279812,35.4248367 84.3928228,36.5725463 85.5205942,38.2101265 C89.4906279,43.9741108 86.4604762,50.7687092 81.3826778,55.955111 C87.6352199,50.6160906 92.1010729,42.7794753 87.6112988,36.2598535 C85.3361842,32.9566252 81.6932172,31.6361233 77.5696535,31.6361233 C69.2877317,31.6361233 59.0612415,36.9580398 54.0430284,42.229522 L54.0430284,42.229522 Z" id="Imported-Layers" fill="#B18B90"></path>
                    <path d="M58.8745727,32.47728 C56.5868451,31.2830831 54.0020609,30.5177972 51.2654864,30.5177972 C48.5293468,30.5177972 45.9445626,31.2830831 43.656835,32.47728 C46.0493805,31.8760152 48.6071991,31.5216593 51.2654864,31.5216593 C53.9242086,31.5216593 56.4820272,31.8760152 58.8745727,32.47728 L58.8745727,32.47728 Z M41.7548896,35.0064512 C44.7454628,34.2534449 47.9426273,33.8105001 51.2654864,33.8105001 C54.5892153,33.8105001 57.7859449,34.2534449 60.7765181,35.0060126 C57.9172936,33.5135955 54.6862045,32.5566592 51.2654864,32.5566592 C47.8452032,32.5566592 44.6145491,33.5135955 41.7548896,35.0064512 L41.7548896,35.0064512 Z M42.8404729,36.5343916 C43.0683758,36.678239 43.2927993,36.8238407 43.5150481,36.9698809 C46.0058876,36.5203577 48.5989355,36.2642391 51.2654864,36.2642391 C53.9320373,36.2642391 56.5250852,36.5203577 59.0159247,36.9698809 C59.2381735,36.8234021 59.462597,36.678239 59.6904999,36.5343916 C57.0696165,35.4787795 54.2308337,34.8433071 51.2654864,34.8433071 C48.3005741,34.8433071 45.4622261,35.4787795 42.8404729,36.5343916 L42.8404729,36.5343916 Z M66.9960056,39.1104886 C66.7567946,39.0938234 66.5180184,39.0854908 66.2805471,39.0854908 C65.3380555,39.0854908 64.4120913,39.2148657 63.5265754,39.4543191 C64.051535,39.3771327 64.5860629,39.3367852 65.1258101,39.3367852 C65.3741547,39.3367852 65.6242389,39.3455564 65.8751931,39.3626602 C71.1182646,39.7284186 74.6738108,43.8223693 73.8174352,48.5057435 C73.5351661,50.0472793 72.8070947,51.4590015 71.7745727,52.6488128 C73.2111439,51.3633956 74.2323576,49.697309 74.5737771,47.8334322 C75.3923138,43.3645134 71.9998661,39.4595818 66.9960056,39.1104886 L66.9960056,39.1104886 Z M35.5340973,39.1104886 C30.5311067,39.4595818 27.1390939,43.3645134 27.9571957,47.8334322 C28.2981802,49.697309 29.3198289,51.3633956 30.7559651,52.6488128 C29.7234432,51.4590015 28.9962416,50.0472793 28.7139725,48.5057435 C27.8567271,43.8223693 31.4122733,39.7284186 36.6562146,39.3626602 C36.9067338,39.3455564 37.1563832,39.3367852 37.4051627,39.3367852 C37.9449098,39.3367852 38.4794378,39.3771327 39.0039624,39.4543191 C38.1188815,39.2148657 37.1929173,39.0854908 36.2495558,39.0854908 C36.0120845,39.0854908 35.7733084,39.0938234 35.5340973,39.1104886 L35.5340973,39.1104886 Z" id="Imported-Layers" fill="#725357"></path>
                    <path d="M51.7822354,46.8865827 C52.1380075,46.6287099 52.4898652,46.3655744 52.8308497,46.0870892 C53.2579502,45.7436973 53.6754822,45.3853944 54.0677883,44.9902525 C53.566315,45.226636 53.0913723,45.5016126 52.6255631,45.7897461 C52.2041167,46.0471803 51.7939785,46.322157 51.3890594,46.6054663 C50.9845753,46.3225955 50.574437,46.0480575 50.1525557,45.7901846 C49.6871815,45.5024897 49.2122388,45.2270745 48.7120702,44.9902525 C49.1039414,45.3853944 49.5219084,45.7428202 49.948139,46.0866507 C50.2899933,46.3651358 50.6414161,46.6287099 50.9971882,46.8865827 C50.6414161,47.1444556 50.2899933,47.4080297 49.948139,47.6860763 C49.5219084,48.0299067 49.1039414,48.3877711 48.7120702,48.7824744 C49.2122388,48.5452138 49.6871815,48.2711143 50.1525557,47.9829809 C50.574437,47.7246695 50.9845753,47.4501314 51.3890594,47.1672607 C51.7939785,47.4505699 52.2041167,47.7259852 52.6255631,47.9834194 C53.0913723,48.2715529 53.566315,48.546091 54.0677883,48.7824744 C53.6754822,48.3868939 53.2579502,48.0294682 52.8308497,47.6860763 C52.4898652,47.4075911 52.1380075,47.1444556 51.7822354,46.8865827" id="Imported-Layers" fill="#725357"></path>
                    <path d="M103.361024,78.1041074 C103.333189,69.8140219 97.4786068,57.0041447 88.0528212,46.2984748 C95.7597666,57.4536679 100.462656,70.0876829 100.490926,78.4953023 C100.515282,85.6710088 97.1498004,94.2501049 91.4139541,102.019182 C98.8956062,94.3334311 103.38538,85.4157673 103.361024,78.1041074 L103.361024,78.1041074 Z M0.000100293453,78.4501307 C0.0248912577,85.761352 4.5746856,94.6491938 12.1076593,102.28451 C6.31962154,94.5540264 2.89672875,85.9972969 2.87280765,78.8220289 C2.84453725,70.4144095 7.46174562,57.7492569 15.0943181,46.5423137 C5.74029585,57.3111362 -0.0277351752,70.1596066 0.000100293453,78.4501307 L0.000100293453,78.4501307 Z M55.8519682,7.47720979 C58.2214625,7.46931572 60.5109298,7.66447459 62.6899251,8.06838766 C59.6597733,6.88559335 56.33213,6.26854049 52.8409534,6.19880957 C55.7715063,5.23573345 58.6916209,4.49412975 61.578681,3.9941722 C61.2790147,3.98890949 60.9780437,3.9867167 60.6775077,3.98759382 C56.9810444,4.00031203 53.2289102,4.48316577 49.4776459,5.40501732 C53.3119817,3.24906003 57.2041631,1.51850523 61.0976493,0.257208816 C55.5688293,0.947939639 50.0552318,2.72761308 44.7369176,5.46159146 C46.5992844,3.94242221 48.5073188,2.55701353 50.4531921,1.31632941 C45.8764321,3.13678887 41.5258353,5.78042404 37.4970862,9.12136842 C31.0701374,11.6619422 25.8061893,15.5813462 22.4398373,20.5103136 C27.1035831,15.872111 33.6144732,12.1925989 41.1939844,9.84937678 C46.2195913,8.29599991 51.1890923,7.49255936 55.8519682,7.47720979 L55.8519682,7.47720979 Z M91.7632022,44.3832865 C91.7075313,27.8399544 73.6562299,11.6452769 51.4570087,11.7193934 C29.2573525,11.7935099 11.3156532,28.1087912 11.3713242,44.6521234 C11.3734988,45.2064623 11.3956802,45.7752736 11.4378683,46.3546104 C12.5338899,30.0279265 30.010215,14.4340752 51.4657072,14.3621515 C72.9211995,14.2906663 90.5019076,29.7674223 91.7079662,46.0857736 C91.74624,45.5064368 91.7649419,44.9376254 91.7632022,44.3832865 L91.7632022,44.3832865 Z" id="Imported-Layers" fill="url(#linearGradient-5)"></path>
                    <ellipse id="Oval-260" fill="url(#linearGradient-5)" cx="37.1864464" cy="50.0336839" rx="1.087323" ry="1.09639813"></ellipse>
                    <ellipse id="Oval-260-Copy" fill="url(#linearGradient-5)" cx="59.3678355" cy="50.0336839" rx="1.087323" ry="1.09639813"></ellipse>
                    <g id="Group" transform="translate(73.503034, 93.231770)" fill="#634A55">
                        <ellipse id="Oval-262" cx="3.79574573" cy="2.87056965" rx="2.8468093" ry="2.87056965"></ellipse>
                        <ellipse id="Oval-262-Copy" cx="1.89787286" cy="8.22545275" rx="1.89787286" ry="1.9137131"></ellipse>
                        <ellipse id="Oval-262-Copy-2" cx="5.69361859" cy="7.2685962" rx="0.948936432" ry="0.95685655"></ellipse>
                        <ellipse id="Oval-262-Copy-3" cx="9.48936432" cy="2.19148078" rx="0.948936432" ry="0.95685655"></ellipse>
                    </g>
                </g>
                <path d="M65.7287414,58.2487257 C66.2669992,59.5111717 66.2588702,60.7209636 65.5992576,61.6198452 C64.9692579,62.4786094 63.8544197,62.9067378 62.5079042,62.9067378 C60.8989372,62.9067378 58.9601638,62.2962003 57.1201002,61.0788865 C56.76881,60.8457038 56.4163586,60.586194 56.0679716,60.3091329 C56.688681,60.8845676 57.3453904,61.4098554 58.0003578,61.8436254 C59.7533248,63.0032704 61.6009368,63.5856003 63.1332587,63.5856003 C64.4164839,63.5856003 65.4784834,63.1775306 66.0794509,62.3588839 C66.8633215,61.2901299 66.682741,59.761279 65.7287414,58.2487257 L65.7287414,58.2487257 Z M40.4329465,62.9067378 C39.086431,62.9067378 37.9715928,62.4786094 37.3415931,61.6198452 C36.6819805,60.7209636 36.6738515,59.5111717 37.2121093,58.2487257 C36.2575291,59.761279 36.0769485,61.2901299 36.8613998,62.3588839 C37.4617866,63.1775306 38.5237861,63.5856003 39.8070113,63.5856003 C41.3399138,63.5856003 43.1875259,63.0032704 44.9404928,61.8436254 C45.5954603,61.4098554 46.2521697,60.8845676 46.872879,60.3091329 C46.5250728,60.586194 46.1720407,60.8457038 45.8201699,61.0788865 C43.9801062,62.2962003 42.0413329,62.9067378 40.4329465,62.9067378 L40.4329465,62.9067378 Z" id="Imported-Layers" fill="#725357" sketch:type="MSShapeGroup"></path>
            </g>
        </g>
    </g>
</svg>