<?xml version="1.0" encoding="UTF-8" standalone="no"?>
<svg width="555px" height="531px" viewBox="0 0 555 531" version="1.1" xmlns="http://www.w3.org/2000/svg" xmlns:xlink="http://www.w3.org/1999/xlink" xmlns:sketch="http://www.bohemiancoding.com/sketch/ns">
    <!-- Generator: Sketch 3.3.3 (12072) - http://www.bohemiancoding.com/sketch -->
    <title>Moon</title>
    <desc>Created with Sketch.</desc>
    <defs>
        <linearGradient x1="50%" y1="-40.0223545%" x2="50%" y2="50%" id="linearGradient-1">
            <stop stop-color="#FFF5C2" offset="0%"></stop>
            <stop stop-color="#FDC481" offset="100%"></stop>
        </linearGradient>
        <filter x="-50%" y="-50%" width="200%" height="200%" filterUnits="objectBoundingBox" id="filter-2">
            <feMorphology radius="10" in="SourceAlpha" operator="dilate" result="shadowSpreadOuter1"></feMorphology>
            <feOffset dx="0" dy="0" in="shadowSpreadOuter1" result="shadowOffsetOuter1"></feOffset>
            <feGaussianBlur stdDeviation="30" in="shadowOffsetOuter1" result="shadowBlurOuter1"></feGaussianBlur>
            <feColorMatrix values="0 0 0 0 0.764705882   0 0 0 0 0.435294118   0 0 0 0 0.48627451  0 0 0 0.35 0" in="shadowBlurOuter1" type="matrix" result="shadowMatrixOuter1"></feColorMatrix>
            <feMerge>
                <feMergeNode in="shadowMatrixOuter1"></feMergeNode>
                <feMergeNode in="SourceGraphic"></feMergeNode>
            </feMerge>
        </filter>
    </defs>
    <g id="Page-1" stroke="none" stroke-width="1" fill="none" fill-rule="evenodd" sketch:type="MSPage">
        <g id="Product" sketch:type="MSArtboardGroup" transform="translate(-422.000000, 0.000000)">
            <g id="Moon" sketch:type="MSLayerGroup" transform="translate(488.000000, 41.000000)">
                <ellipse id="Oval-1" fill="url(#linearGradient-1)" filter="url(#filter-2)" sketch:type="MSShapeGroup" cx="211.571708" cy="211.730931" rx="211.571708" ry="211.730931"></ellipse>
                <path d="M68.7622035,171.54634 C68.9857524,172.103502 69.131245,173.02343 69.0855794,173.590684 C69.0393829,174.157406 69.0138951,174.847352 69.027701,175.124605 C69.0420378,175.401327 69.0393829,175.821987 69.02186,176.058342 C69.0048682,176.294698 68.9756635,176.837519 68.9576096,177.263491 C68.9395558,177.689993 68.3920999,178.504756 67.7411,179.074665 C67.0906311,179.644574 65.7456207,179.791699 64.752129,179.401845 C63.7591682,179.01146 62.5867312,178.107466 62.1465363,177.392557 C61.7063414,176.677647 61.4227901,175.191528 61.5157142,174.08942 C61.6091693,172.986782 62.1937949,171.656285 62.8145281,171.131523 C63.4352613,170.607291 64.3692815,169.952931 64.8907187,169.678334 C65.4116248,169.403737 66.4045855,169.483938 67.097003,169.855733 C67.7894205,170.22806 68.5386545,170.988647 68.7622035,171.54634 L68.7622035,171.54634 Z M231.520677,217.390834 C231.475543,215.571692 234.976393,210.950807 239.299224,207.122377 C243.621523,203.293947 253.354131,200.643577 260.925589,201.233138 C268.497579,201.822168 283.707931,197.286796 294.726078,191.154297 C305.744225,185.021798 315.939861,170.8309 317.381512,159.619145 C318.823695,148.40739 316.463953,127.702106 312.137937,113.607343 C307.811389,99.5125809 295.619743,85.3593935 285.043915,82.1561108 C274.468618,78.9528282 253.375371,75.3634094 238.169797,74.1795068 C222.964754,72.9961352 203.955132,77.8443468 195.927018,84.9546677 C187.898904,92.0644574 181.855119,119.242168 182.49603,145.349638 C183.13641,171.457109 189.705349,201.413193 197.092552,211.919599 C204.479755,222.426005 215.266388,228.699255 221.06273,225.860332 C226.859603,223.02194 231.565812,219.210506 231.520677,217.390834 L231.520677,217.390834 Z M146.075611,82.8518993 C149.366719,85.5654744 154.169038,88.2222178 156.747019,88.7544163 C159.325531,89.287146 164.115106,88.1005876 167.390814,86.117856 C170.667053,84.1345933 173.142021,79.989075 172.89033,76.905298 C172.638638,73.8215209 176.464988,69.7668269 181.392622,67.8945716 C186.319725,66.0228475 192.335368,62.2379707 194.760422,59.4834981 C197.186538,56.7295567 199.05511,50.1100057 198.913334,44.7731488 C198.771559,39.4373541 194.362707,33.0684995 189.115945,30.6210237 C183.869183,28.1735479 175.54265,26.5865128 170.610768,27.0948102 C165.679948,27.6031076 160.740632,31.136757 159.633508,34.9471284 C158.527445,38.7574997 156.033361,43.9031476 154.09045,46.3814293 C152.148071,48.859711 151.546984,52.773654 152.754998,55.0793164 C153.963012,57.38551 154.858269,59.2944136 154.744105,59.3215016 C154.630472,59.3491207 152.708801,59.10108 150.474905,58.7712444 C148.240478,58.44194 144.82087,60.6514667 142.875835,63.6810678 C140.930801,66.7112001 139.508265,71.1541547 139.715353,73.5538283 C139.92191,75.9540329 142.783973,80.1383243 146.075611,82.8518993 L146.075611,82.8518993 Z M159.747141,299.228306 C165.192495,295.932074 169.189294,287.609169 168.628564,280.733079 C168.068895,273.857521 164.797965,264.300255 161.361366,259.495066 C157.924766,254.689876 151.348392,251.661337 146.74732,252.765038 C142.146779,253.868208 135.34314,254.32233 131.629361,253.773135 C127.91505,253.224471 122.230748,256.896216 118.998051,261.933512 C115.765353,266.970277 113.400832,274.355195 113.744386,278.34456 C114.08794,282.333924 118.845124,289.288091 124.316497,293.799031 C129.787339,298.309971 137.769787,302.725307 142.054917,303.611242 C146.340047,304.496646 154.301787,302.524006 159.747141,299.228306 L159.747141,299.228306 Z M265.816054,290.373733 C267.098407,289.253036 269.230352,287.122117 270.554653,285.640247 C271.879486,284.157846 273.976916,279.832803 275.216259,276.029868 C276.455601,272.226933 280.353636,266.801376 283.878912,263.972013 C287.403657,261.14265 288.934515,254.419528 287.279935,249.030088 C285.625885,243.64118 280.96428,238.229964 276.920753,237.005164 C272.877757,235.780364 264.812473,234.407908 258.999139,233.95538 C253.185275,233.50232 241.983935,236.773057 234.107154,241.222386 C226.230374,245.672245 220.179154,254.685627 220.660236,261.252596 C221.140786,267.819564 222.845281,277.385859 224.447293,282.511324 C226.049836,287.636257 233.653153,293.664653 241.344617,295.907111 C249.035549,298.149037 257.164021,298.280227 259.406944,296.198173 C261.649867,294.116119 264.534232,291.494962 265.816054,290.373733 L265.816054,290.373733 Z M385.844295,235.33474 C384.241752,229.568194 380.309203,222.885438 377.104117,220.482578 C373.899562,218.080248 365.542231,216.991419 358.531504,218.063252 C351.520776,219.134554 342.908037,222.141847 339.391788,224.745477 C335.875539,227.349638 332.040692,234.597523 330.87091,240.852184 C329.701128,247.106844 333.24552,255.632112 338.747691,259.796751 C344.249861,263.96139 353.558204,267.89233 359.432071,268.53288 C365.305938,269.17343 371.948155,266.290954 374.191078,262.126315 C376.434001,257.961675 380.629393,252.589232 383.513758,250.186372 C386.398123,247.784043 387.446307,241.100755 385.844295,235.33474 L385.844295,235.33474 Z M292.099246,317.179648 C286.686283,320.55077 279.868837,324.744622 276.949958,326.498965 C274.031078,328.252777 271.512037,331.916023 271.351677,334.638628 C271.190785,337.361232 272.072768,342.957815 273.311049,347.075714 C274.549329,351.193613 275.469012,354.584918 275.354848,354.612006 C275.241216,354.639625 273.319545,354.392116 271.085648,354.06228 C268.851752,353.731913 265.432144,355.941971 263.486578,358.971572 C261.541013,362.001704 260.118477,366.444659 260.326096,368.844864 C260.533184,371.245068 263.395247,375.428829 266.686355,378.142404 C269.977462,380.855979 274.536585,381.67924 276.81774,379.970575 C279.098894,378.261909 282.800992,377.650572 285.043915,378.611928 C287.286838,379.572754 292.399789,380.096985 296.406147,379.77671 C300.411442,379.456435 306.049016,376.573427 308.93285,373.370145 C311.817215,370.166331 317.191947,363.221193 320.877584,357.935325 C324.56322,352.649989 328.364614,341.117959 329.326246,332.308533 C330.287878,323.499638 324.519148,315.112466 316.507495,313.670962 C308.495842,312.22999 297.512209,313.808527 292.099246,317.179648 L292.099246,317.179648 Z M105.89681,281.558996 C101.448134,279.41533 96.6511246,279.329286 95.2376159,281.367787 C93.8241071,283.406819 92.9580542,285.567481 93.3138209,286.169259 C93.6701185,286.772098 93.3605484,288.97897 92.6272443,291.072709 C91.8939401,293.16751 89.123208,295.87896 86.4708878,297.09898 C83.8185677,298.319 79.5626425,302.68972 77.0133353,306.811869 C74.4640281,310.933486 73.7009883,317.605619 75.3178681,321.639599 C76.935279,325.673579 81.6075043,332.182122 85.700945,336.10297 C89.7943858,340.024349 96.5390847,342.492539 100.689342,341.588014 C104.839599,340.682958 112.593189,337.938577 117.919069,335.488977 C123.24548,333.038845 128.718446,327.851769 130.080979,323.961727 C131.443512,320.072216 128.37914,309.817038 123.271499,301.172795 C118.163857,292.528553 110.344956,283.702662 105.89681,281.558996 L105.89681,281.558996 Z M80.9862401,285.754441 C83.0226061,284.817517 86.1698137,281.622733 87.9799757,278.653681 C89.7901378,275.684629 90.1326296,271.525833 88.7403606,269.41191 C87.3486226,267.297457 84.9835708,264.40542 83.4851028,262.984631 C81.9866348,261.563841 78.3047152,260.964189 75.3030003,261.65201 C72.3007544,262.339831 69.5480761,263.817984 69.1848755,264.936556 C68.8222059,266.055129 68.3448414,267.474857 68.1250094,268.091506 C67.9046465,268.708155 67.5881734,269.822479 67.421441,270.568194 C67.2547086,271.313909 67.3609076,273.158014 67.6572028,274.666441 C67.954029,276.174868 67.6619817,278.726447 67.0088578,280.336321 C66.355734,281.945663 67.101782,284.489806 68.6671553,285.989204 C70.2325287,287.488601 72.8115716,288.43243 74.3981847,288.08613 C75.9853289,287.74036 78.9493432,286.690835 80.9862401,285.754441 L80.9862401,285.754441 Z M157.434126,201.191709 C156.910034,202.808488 156.220272,204.860267 155.901675,205.750983 C155.583078,206.641698 155.12536,208.251572 154.884819,209.329248 C154.644278,210.406392 153.810085,213.028612 153.031115,215.157406 C152.252146,217.285669 151.830536,220.971754 152.093909,223.34912 C152.357283,225.727017 154.423384,229.444971 156.685423,231.611475 C158.947462,233.77798 162.673985,235.141938 164.966291,234.642139 C167.259658,234.141808 171.543195,232.625414 174.48597,231.27261 C177.428213,229.919275 181.089955,225.431174 182.622407,221.298403 C184.154858,217.165632 184.649215,211.156356 183.721035,207.944044 C182.792856,204.731732 179.253243,200.01418 175.854875,197.460477 C172.457569,194.906774 167.136998,194.040491 164.032271,195.534577 C160.927012,197.028664 157.958218,199.5744 157.434126,201.191709 L157.434126,201.191709 Z M273.851071,53.7456333 C275.109529,54.8886385 276.696142,56.3614793 277.377409,57.0179637 C278.058144,57.6744481 279.337842,58.7542481 280.220887,59.4171061 C281.104463,60.0799641 283.15198,61.9192889 284.772045,63.5047306 C286.392111,65.0901723 289.587108,66.2985072 291.872511,66.1901554 C294.158445,66.0812725 297.788858,65.3265279 299.94045,64.5122961 C302.092572,63.6980642 304.239916,61.0291046 304.713033,58.5816288 C305.185619,56.134153 304.56754,51.7538724 303.33988,48.8474949 C302.111688,45.9411174 298.419149,42.3777244 295.134414,40.9277224 C291.849147,39.4782516 286.811597,37.7244398 283.939445,37.0302447 C281.067824,36.3360496 277.038634,36.5283209 274.986869,37.4567471 C272.935104,38.3851732 271.324596,41.9623758 271.409555,45.4062632 C271.494515,48.8501506 272.592612,52.6031593 273.851071,53.7456333 L273.851071,53.7456333 Z M330.432839,151.853402 C331.712537,152.973037 333.326231,154.416665 334.01918,155.060402 C334.712659,155.704139 336.011473,156.760569 336.906731,157.406431 C337.802519,158.052824 339.88402,159.853907 341.532229,161.409605 C343.180968,162.965303 346.403046,164.806752 348.692697,165.503072 C350.982347,166.199392 355.21544,165.76864 358.099805,164.546496 C360.983639,163.32382 363.707643,160.43975 364.153148,158.136212 C364.598653,155.832674 364.894948,151.299958 364.812113,148.063214 C364.729278,144.826469 362.048284,139.691975 358.855411,136.654407 C355.662006,133.615777 350.333471,130.790663 347.014221,130.375314 C343.695502,129.959966 337.961287,131.349949 334.272996,133.462809 C330.584704,135.575669 327.688126,140.120071 327.836274,143.561303 C327.984952,147.002534 329.153141,150.733767 330.432839,151.853402 L330.432839,151.853402 Z M119.616129,188.681858 C118.35714,189.871603 116.999385,192.012613 116.598484,193.440307 C116.197052,194.868001 116.637247,196.630843 117.576046,197.357437 C118.514845,198.084562 119.672414,199.344949 120.148186,200.157587 C120.624488,200.970226 122.236589,201.506142 123.730809,201.347332 C125.225029,201.188523 127.043156,200.491141 127.770089,199.797477 C128.497552,199.103813 129.111913,197.079653 129.135808,195.300877 C129.159703,193.521571 128.770483,191.265835 128.270817,190.288014 C127.771151,189.310192 126.134624,188.062553 124.633501,187.51442 C123.132378,186.966819 120.874587,187.492112 119.616129,188.681858 L119.616129,188.681858 Z M96.2587193,178.345415 C97.0833546,179.554281 99.4834522,181.232672 101.592033,182.075054 C103.700615,182.917436 106.416654,182.685329 107.627323,181.559852 C108.837461,180.433843 110.443721,178.597705 111.19561,177.478601 C111.947499,176.360028 111.933693,173.924768 111.164812,172.067916 C110.395931,170.210532 109.144376,168.599596 108.383991,168.488058 C107.624137,168.376519 106.657726,168.223552 106.236647,168.149193 C105.815568,168.074303 105.063679,167.991445 104.565075,167.96542 C104.067001,167.938863 102.890316,168.207618 101.950986,168.562417 C101.011656,168.917216 99.3363665,169.006447 98.2287109,168.761062 C97.1205243,168.515146 95.5631158,169.271484 94.7676853,170.442108 C93.9722547,171.612732 93.6451618,173.375042 94.0402221,174.359238 C94.4352824,175.342902 95.433553,177.136549 96.2587193,178.345415 L96.2587193,178.345415 Z M83.6805089,151.378035 C82.5123199,151.593145 80.8009229,151.615984 79.8775225,151.429555 C78.9535911,151.242595 77.4800799,152.087102 76.6023451,153.306059 C75.7251413,154.525017 75.0337858,156.34469 75.0667075,157.3496 C75.0996292,158.354509 76.1993199,160.160904 77.5103466,161.364458 C78.8213734,162.568013 80.7632222,163.781128 81.8257433,164.059975 C82.8877334,164.339352 84.9097624,163.951092 86.3184923,163.19741 C87.7277531,162.443727 88.8407187,160.411069 88.7918671,158.680096 C88.7430156,156.949123 88.0505981,154.510145 87.2535745,153.259851 C86.45602,152.010087 84.848167,151.162925 83.6805089,151.378035 L83.6805089,151.378035 Z M107.358109,158.79429 C108.868789,159.324364 110.760725,159.999438 111.563058,160.295281 C112.364861,160.591124 113.477826,160.508798 114.036433,160.112039 C114.59504,159.715812 115.552424,158.664162 116.164661,157.774509 C116.776367,156.884855 117.296212,156.172071 117.319044,156.190129 C117.342408,156.208719 117.595693,156.623005 117.88243,157.112182 C118.168636,157.601358 119.138764,157.923227 120.037208,157.828153 C120.936183,157.732549 122.029501,157.313482 122.467572,156.895478 C122.905112,156.478005 123.274685,155.261172 123.289022,154.190401 C123.303889,153.120162 122.748469,152.098787 122.056051,151.920856 C121.363103,151.742394 120.662189,151.114591 120.497581,150.524499 C120.332972,149.934407 119.63259,148.85142 118.940703,148.117921 C118.248817,147.38389 116.798669,146.73378 115.718094,146.67323 C114.63805,146.612149 112.433359,146.651453 110.819134,146.760336 C109.20544,146.869219 106.349218,147.936803 104.473212,149.132391 C102.596676,150.32851 101.860186,152.774923 102.836155,154.569101 C103.812655,156.362748 105.847428,158.264216 107.358109,158.79429 L107.358109,158.79429 Z M76.9851926,214.094071 C79.6385747,214.548724 85.9106881,211.46176 90.9232812,207.235509 C95.9353433,203.008726 100.770053,197.016979 101.667435,193.921517 C102.564816,190.825523 102.099134,187.728999 100.632525,187.041178 C99.1659171,186.352825 97.680193,186.029894 97.3307983,186.324675 C96.9814036,186.619456 95.5264772,186.660353 94.0981005,186.41603 C92.6691929,186.171177 90.621145,184.683464 89.5474731,183.109176 C88.4732701,181.534357 85.1954378,179.270123 82.2638142,178.077722 C79.3321906,176.88479 74.9509506,177.119022 72.5285512,178.598236 C70.1061519,180.076919 66.4221083,183.791686 64.3411388,186.852093 C62.2601693,189.913031 61.4036743,194.522232 62.4375216,197.094524 C63.4713689,199.667348 66.0822715,204.358875 68.2386423,207.520198 C70.3955442,210.681521 74.3312794,213.639949 76.9851926,214.094071 L76.9851926,214.094071 Z M79.0273995,219.867522 C78.4629517,220.400783 77.0680278,220.289244 75.9274504,219.61895 C74.7868731,218.948125 73.1004329,218.365469 72.1802185,218.323509 C71.2600041,218.281549 69.669674,218.956092 68.6469775,219.822375 C67.6242811,220.688659 67.0693913,222.551884 67.4140071,223.963113 C67.7591538,225.374342 68.7563625,227.252971 69.6303803,228.137844 C70.5043982,229.022717 71.9725994,229.434879 72.8922828,229.052461 C73.8124972,228.670043 75.2122001,228.350299 76.0028517,228.340738 C76.7935033,228.331709 77.6542463,227.834034 77.9160268,227.235975 C78.1778074,226.637384 78.4109142,226.162549 78.434278,226.180076 C78.4576418,226.197604 78.7109264,226.612952 78.9971327,227.102129 C79.2838701,227.591305 80.253467,227.913705 81.1524416,227.8181 C82.0514162,227.722496 83.144735,227.302898 83.5822749,226.885425 C84.0198148,226.467952 84.3899183,225.250588 84.4042552,224.180348 C84.419123,223.110109 84.1849542,221.753587 83.884411,221.164557 C83.5833369,220.576058 82.5988721,219.825031 81.6956495,219.495727 C80.7929579,219.166422 79.5918472,219.33373 79.0273995,219.867522 L79.0273995,219.867522 Z M140.744952,126.221298 C142.101114,128.210403 144.576612,130.070442 146.24553,130.356194 C147.914447,130.641414 151.858678,128.700642 155.011196,126.042305 C158.163713,123.384499 161.204191,119.616619 161.768639,117.668942 C162.333086,115.721266 162.039977,113.77412 161.117639,113.341775 C160.1953,112.908899 159.26128,112.706536 159.041448,112.891903 C158.821616,113.076738 157.906712,113.102233 157.008268,112.948734 C156.109825,112.794705 154.821631,111.858843 154.146205,110.868805 C153.470779,109.878236 151.408926,108.454791 149.565311,107.704295 C147.721165,106.954331 144.966363,107.101987 143.442938,108.032006 C141.918982,108.962557 139.602251,111.298494 138.293348,113.223332 C136.984976,115.14817 136.446547,118.047111 137.096485,119.664952 C137.746423,121.282793 139.38826,124.233255 140.744952,126.221298 L140.744952,126.221298 Z M76.2157807,100.010787 C76.7345629,100.770843 78.2441818,101.826742 79.5706074,102.356284 C80.896502,102.885827 82.604713,102.739765 83.3656289,102.032291 C84.1270758,101.324287 85.1370283,100.169065 85.6101449,99.4658409 C86.0832615,98.7620854 86.0742346,97.2308196 85.5904981,96.062851 C85.1072926,94.8948824 84.319827,93.8814745 83.8419314,93.8108334 C83.3640359,93.7401922 82.7565776,93.6445877 82.4916111,93.5978477 C82.2266445,93.5505766 81.754059,93.4990564 81.4402409,93.48206 C81.1269538,93.4661259 80.3867467,93.6350273 79.7957493,93.8581045 C79.2052828,94.0817128 78.1512576,94.1380133 77.4545922,93.9834526 C76.7579267,93.828892 75.7787718,94.3047901 75.2785745,95.0409449 C74.7783772,95.7765686 74.5723511,96.8850499 74.8208568,97.5032925 C75.0693625,98.1220662 75.6969986,99.1511996 76.2157807,100.010787 L76.2157807,100.010787 Z M64.425036,89.3312303 C65.2496713,90.0880994 66.4709599,90.8508111 67.1389516,91.026086 C67.8069434,91.2018921 69.0786765,90.9575695 69.9649072,90.4837959 C70.8511379,90.0100224 71.5509894,88.7310464 71.5201917,87.6427482 C71.4893939,86.5539189 71.053978,85.0199974 70.5527187,84.2339158 C70.0509284,83.4478342 69.0399139,82.9156357 68.3050167,83.0510754 C67.5706506,83.1865151 66.4948547,83.2008558 65.9134151,83.0834747 C65.3325065,82.9655625 64.4059202,83.4966987 63.8542164,84.2636594 C63.3025125,85.0306202 62.8676276,86.1746876 62.8883364,86.8067398 C62.9090452,87.4382607 63.6009317,88.5748923 64.425036,89.3312303 L64.425036,89.3312303 Z M360.601853,184.864581 C359.810671,185.613483 358.955769,186.960445 358.704077,187.857534 C358.451854,188.755154 358.728503,189.864167 359.318969,190.321475 C359.909436,190.778783 360.63743,191.571239 360.936911,192.082723 C361.235861,192.593676 362.249531,192.929885 363.189392,192.830563 C364.129253,192.73124 365.272486,192.291991 365.730203,191.855397 C366.18739,191.419334 366.574485,190.1462 366.589353,189.027627 C366.60369,187.909054 366.359432,186.490389 366.045083,185.875865 C365.731265,185.260809 364.701666,184.47579 363.758088,184.131082 C362.813979,183.786375 361.393567,184.11621 360.601853,184.864581 L360.601853,184.864581 Z M63.4766789,131.453521 C63.9742212,131.447679 64.5153052,131.134839 64.6799136,130.758795 C64.8445221,130.38275 64.9910767,130.083721 65.0059446,130.094875 C65.0208124,130.10656 65.180111,130.367347 65.3601183,130.674344 C65.5406566,130.981872 66.1502389,131.184235 66.7157486,131.124748 C67.2812583,131.064198 67.9688969,130.800755 68.2439523,130.537842 C68.5190077,130.275461 68.7515836,129.510094 68.7606105,128.836613 C68.7696374,128.163663 68.6225518,127.310127 68.4335175,126.940456 C68.2444833,126.570786 67.6248121,126.098605 67.0571784,125.891462 C66.4890137,125.683788 65.7344698,125.788953 65.3792341,126.1241 C65.0239984,126.459778 64.1467946,126.389668 63.4294203,125.967946 C62.712046,125.546224 61.6516489,125.17974 61.0728644,125.153183 C60.4940798,125.127157 59.4942161,125.551535 58.8506501,126.09595 C58.2070842,126.640364 57.8582204,127.812051 58.0753974,128.69958 C58.2920434,129.587108 58.9191485,130.768886 59.4692594,131.326048 C60.0193702,131.882679 60.9422396,132.141874 61.5210242,131.901269 C62.0998088,131.661195 62.9796675,131.459895 63.4766789,131.453521 L63.4766789,131.453521 Z M238.758671,56.2648125 C239.709152,56.5983661 240.899112,57.0227439 241.403557,57.2086416 C241.908533,57.3945393 242.608385,57.3430191 242.959372,57.0939162 C243.31036,56.8442821 243.912509,56.1835487 244.29748,55.6237311 C244.682982,55.0644446 245.009544,54.6161656 245.023881,54.6273195 C245.037687,54.6390045 245.196986,54.8997924 245.377524,55.2067891 C245.558062,55.514317 246.167644,55.717211 246.733154,55.6577238 C247.298133,55.5977054 247.985771,55.3337307 248.261358,55.0713494 C248.536944,54.8084369 248.76952,54.0425385 248.778547,53.3690577 C248.787574,52.6961081 248.43871,52.0539644 248.002763,51.9418946 C247.566816,51.8298249 247.12609,51.4346595 247.023077,51.0639264 C246.920064,50.6931933 246.479339,50.0122767 246.043923,49.5512504 C245.608507,49.089693 244.696257,48.6807181 244.017115,48.6419452 C243.337441,48.6037034 241.951013,48.6281356 240.93575,48.6966522 C239.921019,48.7651688 238.124663,49.436525 236.944261,50.1886139 C235.76439,50.9407028 235.301362,52.4794045 235.915192,53.6075379 C236.529023,54.7362024 237.808721,55.9317901 238.758671,56.2648125 L238.758671,56.2648125 Z M346.996699,302.185141 C344.172867,300.587483 340.560508,299.374899 338.969116,299.491218 C337.377723,299.607006 336.0205,300.355377 335.953064,301.154206 C335.885096,301.952503 335.990764,302.697156 336.188295,302.808695 C336.385825,302.920234 336.655039,303.587872 336.786726,304.29269 C336.918944,304.996976 336.580169,306.203187 336.034306,306.972272 C335.487912,307.740826 335.00099,309.650261 334.951607,311.215519 C334.901694,312.780778 335.76403,314.772008 336.866906,315.641478 C337.969252,316.510417 340.327401,317.580125 342.106234,318.019375 C343.884537,318.458624 346.171532,318.062928 347.187857,317.140875 C348.204181,316.218823 349.93257,314.200505 351.029606,312.657023 C352.126642,311.113541 352.823307,308.779197 352.577456,307.470478 C352.331606,306.161758 349.82053,303.782799 346.996699,302.185141 L346.996699,302.185141 Z M193.91083,369.516751 C193.813127,368.461383 193.368684,366.456875 192.92371,365.062643 C192.479798,363.668941 190.659017,361.374964 188.878059,359.965328 C187.098695,358.556224 184.429383,358.00278 182.947376,358.735748 C181.465899,359.468716 179.401922,360.769468 178.362234,361.627253 C177.321483,362.485038 176.639155,364.822569 176.845181,366.822297 C177.051207,368.822025 177.790352,370.723493 178.486486,371.047486 C179.183152,371.37201 180.065666,371.794263 180.447982,371.986003 C180.829767,372.177744 181.526964,372.471993 181.996895,372.63877 C182.467356,372.806078 183.671122,372.884686 184.67311,372.812983 C185.675628,372.741279 187.306314,373.133789 188.297151,373.685639 C189.288518,374.23749 190.99726,373.955988 192.094296,373.062086 C193.191332,372.168183 194.008533,370.57265 193.91083,369.516751 L193.91083,369.516751 Z M202.67331,382.874828 C201.735042,382.303856 199.686463,382.098306 198.12109,382.41805 C196.555185,382.737794 194.908039,384.368383 194.46041,386.040931 C194.01225,387.71401 193.978797,390.249123 194.38554,391.674693 C194.792813,393.100262 196.091627,394.37074 197.27256,394.498213 C198.452962,394.625686 200.099577,395.092023 200.931115,395.534991 C201.762654,395.977959 203.416172,395.589167 204.605601,394.670832 C205.795561,393.753029 206.977556,392.206891 207.233496,391.234381 C207.488904,390.262402 206.951537,388.218058 206.038226,386.689979 C205.125445,385.162431 203.611578,383.445799 202.67331,382.874828 L202.67331,382.874828 Z M126.15374,356.55862 C125.92966,355.643473 124.537922,354.670431 123.060694,354.395302 C121.583465,354.120705 119.642148,354.270485 118.74689,354.727794 C117.851632,355.185102 116.683974,356.949005 116.152979,358.646517 C115.621984,360.344559 115.350115,362.617291 115.549769,363.697622 C115.748892,364.777422 116.960623,366.440941 118.242445,367.394331 C119.524798,368.34772 121.838343,368.489002 123.384601,367.708232 C124.930858,366.927462 126.844564,365.263412 127.636809,364.009399 C128.429584,362.755918 128.511358,360.941025 127.819471,359.976482 C127.127054,359.011939 126.37782,357.473768 126.15374,356.55862 L126.15374,356.55862 Z M229.806625,323.140059 C228.815258,323.244162 227.382633,323.151213 226.622779,322.933978 C225.862394,322.716744 224.894921,322.947788 224.473311,323.446525 C224.051701,323.945262 223.692218,324.334585 223.675226,324.310683 C223.658234,324.286782 223.533981,323.817258 223.399108,323.26647 C223.264236,322.715681 222.427387,322.129838 221.538502,321.965186 C220.650147,321.800002 219.482489,321.889764 218.943529,322.164893 C218.404569,322.43949 217.702594,323.500701 217.382404,324.522076 C217.062745,325.543982 216.899198,326.911126 217.019203,327.560706 C217.139208,328.210286 217.867733,329.210415 218.639269,329.784573 C219.411336,330.358732 220.60926,330.540912 221.303271,330.191424 C221.99675,329.841405 223.301405,330.346516 224.203035,331.314777 C225.105195,332.282507 226.554281,333.322472 227.424582,333.62522 C228.294352,333.928498 230.010528,333.736227 231.238188,333.198186 C232.46638,332.660145 233.529963,331.032744 233.602709,329.582211 C233.675455,328.131146 233.255969,326.045374 232.671875,324.947516 C232.087249,323.849657 230.797993,323.035956 229.806625,323.140059 L229.806625,323.140059 Z M176.70075,380.630246 C175.403529,379.691197 173.782932,378.504107 173.099011,377.991561 C172.41562,377.479546 171.324956,377.240534 170.676611,377.460425 C170.027735,377.680846 168.809633,378.415408 167.969068,379.093138 C167.128503,379.770336 166.426527,380.305722 166.409535,380.28182 C166.392543,380.257919 166.268291,379.787864 166.133949,379.237607 C165.999076,378.686818 165.161697,378.100975 164.272811,377.935261 C163.383926,377.770077 162.216268,377.859839 161.677839,378.134968 C161.138879,378.410096 160.436903,379.471838 160.116713,380.493213 C159.797054,381.514588 160.037064,382.652281 160.649832,383.02089 C161.2626,383.389499 161.755364,384.192045 161.744744,384.803914 C161.733593,385.415783 162.095201,386.654393 162.549201,387.554669 C163.002671,388.454945 164.206968,389.492254 165.224885,389.859269 C166.242272,390.226284 168.366252,390.81797 169.943838,391.174362 C171.522486,391.530224 174.564557,391.322549 176.703936,390.712805 C178.843315,390.103061 180.248328,387.968424 179.825656,385.970821 C179.402984,383.972155 177.996909,381.569295 176.70075,380.630246 L176.70075,380.630246 Z M49.3729198,292.011757 C46.7455563,291.644211 42.8841605,292.066996 40.792571,292.9524 C38.7004506,293.837273 37.0113554,296.048924 37.0384361,297.866472 C37.0655169,299.68402 36.6640846,302.27331 36.1463645,303.620271 C35.6286443,304.967233 36.5286809,307.407273 38.1471538,309.042641 C39.7656266,310.677478 42.3382976,312.184843 43.8643773,312.391455 C45.390457,312.597536 48.3996059,311.39823 50.5522597,309.726213 C52.7049136,308.053665 55.0322648,305.431446 55.7246824,303.899118 C56.4170999,302.36679 56.3464776,299.215027 55.5669768,296.896086 C54.7874761,294.577146 52.0002832,292.378773 49.3729198,292.011757 L49.3729198,292.011757 Z M114.982666,239.281614 C112.30061,238.791906 108.793919,238.804122 107.189252,239.309233 C105.584585,239.814343 103.28166,241.967039 102.071522,244.093177 C100.860853,246.219315 101.079092,249.761463 102.555789,251.965147 C104.032487,254.1683 106.921631,256.764494 108.975519,257.733287 C111.029939,258.70261 113.804919,258.488563 115.143027,257.256326 C116.480603,256.024621 118.679454,254.59799 120.028712,254.086505 C121.37797,253.575552 122.598197,251.277857 122.739442,248.982286 C122.881217,246.686715 122.290751,243.764935 121.427884,242.490208 C120.565017,241.216012 117.664722,239.771853 114.982666,239.281614 L114.982666,239.281614 Z M151.353171,329.0771 C151.541143,327.881512 151.009086,326.45488 150.171707,325.906748 C149.333797,325.358084 148.675894,324.885373 148.708816,324.855098 C148.741738,324.824823 149.433093,324.548101 150.244984,324.240573 C151.056876,323.933046 151.790711,322.55156 151.876201,321.170075 C151.96116,319.788058 151.605925,318.03106 151.086612,317.263568 C150.567829,316.496076 148.822449,315.627668 147.209286,315.332888 C145.596123,315.038638 143.485949,315.045543 142.5206,315.349353 C141.555251,315.653163 140.169885,316.948604 139.44189,318.22758 C138.713896,319.506556 138.659735,321.362346 139.321886,322.35026 C139.984567,323.338173 139.459413,325.415447 138.156883,326.966896 C136.853821,328.517814 135.543325,330.914831 135.245437,332.293661 C134.947018,333.67196 135.560848,336.244252 136.60797,338.009218 C137.655623,339.773653 140.329183,341.086622 142.549273,340.925687 C144.768833,340.764753 147.861879,339.738067 149.421411,338.644457 C150.981475,337.550316 151.97709,335.439581 151.634598,333.952931 C151.292107,332.466812 151.165199,330.272688 151.353171,329.0771 L151.353171,329.0771 Z M54.9828823,250.460438 C53.7961084,249.309997 52.8514682,248.34386 52.8843899,248.313586 C52.9178426,248.283311 53.6091982,248.006589 54.4210896,247.69853 C55.232981,247.391002 55.9673471,246.008985 56.0523063,244.6275 C56.1372655,243.245484 55.7820298,241.487954 55.2632477,240.721524 C54.7439345,239.954563 52.9990849,239.086156 51.385391,238.791375 C49.772228,238.497126 48.0873808,239.074471 47.641876,240.0746 C47.1963711,241.075261 46.0680067,241.973412 45.1350484,242.071141 C44.2020901,242.16887 42.3876801,242.950172 41.1026721,243.807426 C39.8181951,244.665211 38.4662818,246.688309 38.0977712,248.304025 C37.7297917,249.91921 37.2269394,253.257402 36.9805577,255.721874 C36.733645,258.186346 37.6188137,262.769521 38.9468323,265.906411 C40.2748509,269.043302 43.783135,270.778524 46.7423704,269.76246 C49.7021367,268.746928 53.093071,266.159763 54.2787829,264.014504 C55.4639638,261.869245 56.9672108,259.184351 57.6182107,258.049313 C58.2692106,256.913744 58.4285091,255.211983 57.9723844,254.268685 C57.5157286,253.324856 56.1701872,251.61141 54.9828823,250.460438 L54.9828823,250.460438 Z" id="Page-1" fill="#FDC785" sketch:type="MSShapeGroup"></path>
            </g>
        </g>
    </g>
</svg>