<?xml version="1.0" encoding="UTF-8" standalone="no"?>
<svg width="612px" height="355px" viewBox="0 0 612 355" version="1.1" xmlns="http://www.w3.org/2000/svg" xmlns:xlink="http://www.w3.org/1999/xlink" xmlns:sketch="http://www.bohemiancoding.com/sketch/ns">
    <!-- Generator: Sketch 3.3.3 (12072) - http://www.bohemiancoding.com/sketch -->
    <title>palms-bg</title>
    <desc>Created with Sketch.</desc>
    <defs>
        <radialGradient cx="46.9587001%" cy="80.2573674%" fx="46.9587001%" fy="80.2573674%" r="101.229524%" id="radialGradient-1">
            <stop stop-color="#714F72" offset="0%"></stop>
            <stop stop-color="#453F70" offset="100%"></stop>
        </radialGradient>
        <filter x="-50%" y="-50%" width="200%" height="200%" filterUnits="objectBoundingBox" id="filter-2">
            <feOffset dx="0" dy="2" in="SourceAlpha" result="shadowOffsetOuter1"></feOffset>
            <feGaussianBlur stdDeviation="0" in="shadowOffsetOuter1" result="shadowBlurOuter1"></feGaussianBlur>
            <feColorMatrix values="0 0 0 0 0   0 0 0 0 0   0 0 0 0 0  0 0 0 0.042 0" in="shadowBlurOuter1" type="matrix" result="shadowMatrixOuter1"></feColorMatrix>
            <feMerge>
                <feMergeNode in="shadowMatrixOuter1"></feMergeNode>
                <feMergeNode in="SourceGraphic"></feMergeNode>
            </feMerge>
        </filter>
    </defs>
    <g id="Page-1" stroke="none" stroke-width="1" fill="none" fill-rule="evenodd" sketch:type="MSPage">
        <g id="Product" sketch:type="MSArtboardGroup" transform="translate(-380.000000, -4.000000)" filter="url(#filter-2)" fill="url(#radialGradient-1)">
            <g id="Imported-Layers-+-Imported-Layers-Copy-2" sketch:type="MSLayerGroup" transform="translate(380.000000, 3.000000)">
                <path d="M441.794506,192.471274 C442.99666,193.946356 445.290477,195.79897 447.34336,195.35141 C448.743145,195.046582 449.741742,194.067259 450.750578,193.224337 C451.153352,192.888233 453.225874,190.6901 453.592786,192.191176 C453.718329,192.705378 453.351812,193.160899 453.002521,193.538058 C450.945199,195.757112 448.618466,197.739102 446.358745,199.777249 C446.108697,200.002392 445.850894,200.220382 445.591268,200.435862 L446.585967,201.804948 C447.703158,200.441548 448.719887,198.997069 449.909831,197.693328 C450.658981,196.872223 453.356412,193.403047 454.702191,194.311204 C455.588278,194.909577 454.870929,196.579576 454.651206,197.321613 C453.965263,199.634941 454.877319,201.112018 456.470836,202.812553 C459.639058,205.633384 464.795998,205.452641 467.848204,202.703189 C468.102133,202.474588 468.360018,202.162561 468.272909,201.828846 C468.235067,201.684369 468.136677,201.562147 468.030714,201.455017 C467.164039,200.57979 465.806837,200.49887 464.590032,200.321699 C462.673267,200.042551 460.774525,199.366731 459.256674,198.153984 C458.567042,197.603389 457.936386,196.895511 457.785835,196.038917 C457.634865,195.182627 458.138339,194.189681 459.002491,194.059211 C459.981336,193.910619 460.774149,194.819691 461.417746,195.581457 C463.998211,198.636891 468.660737,201.495929 472.411998,199.153417 C473.200119,198.661364 478.640038,195.071513 476.625873,193.950855 C475.439986,193.290927 473.074017,193.510116 471.710724,193.203475 C470.140406,192.850343 468.598747,192.360676 467.110387,191.740227 C466.485146,191.479758 465.787676,191.097878 465.671138,190.440325 C467.37715,189.719304 469.351278,190.274505 471.172818,190.734076 C473.106481,191.222143 475.108491,191.596623 477.07247,191.348571 C479.042039,191.100294 480.392791,190.19563 481.758687,188.872732 C482.430869,188.221982 483.955292,186.821627 483.299883,185.713633 C483.070623,185.325931 482.576869,185.154048 482.127854,185.176611 C481.678954,185.198451 481.259714,185.379024 480.84626,185.546442 C477.05523,187.08101 472.673079,187.695498 468.788611,186.226774 C468.346303,186.059707 467.88246,185.839243 467.653439,185.428991 C466.16184,182.753001 475.223349,184.229674 476.173088,184.35603 C478.38363,184.650604 480.366024,184.538768 482.407473,183.705732 C484.288471,182.938213 485.159376,181.515242 485.827251,179.634091 C486.582667,180.883279 487.386542,182.091036 488.240523,183.250905 C493.157376,189.928239 499.961867,193.265169 507.384648,195.373715 C498.842456,198.410967 491.906145,202.341336 488.602432,205.26244 C492.589691,204.713277 496.73715,204.48502 500.948284,204.560122 L510.290893,199.98621 C510.290893,199.98621 507.314011,202.864685 505.158263,204.731338 C505.596047,204.761559 506.035504,204.793773 506.476634,204.827982 L515.757526,200.28207 C515.757526,200.28207 512.70533,203.237333 510.540562,205.101361 L510.406223,205.217482 C512.674838,205.491999 514.943607,205.847939 517.203181,206.286349 L524.204382,202.858195 C524.204382,202.858195 521.934063,205.055446 519.923097,206.854981 C522.331104,207.393108 524.71959,208.025769 527.074514,208.744358 C510.087361,215.532891 496.307792,232.773362 493.195649,240.43417 C497.746733,237.335731 502.871914,234.669626 508.312574,232.513544 L512.757391,223.853419 C512.757391,223.853419 512.078787,228.045091 511.46232,230.832224 L511.335804,231.380122 C514.580705,230.230596 517.913091,229.26251 521.289574,228.485087 L524.926328,221.396678 C524.926328,221.396678 524.312426,225.194259 523.725636,227.95989 C524.522661,227.800804 525.324379,227.651373 526.125116,227.512959 L530.297462,219.377089 C530.297462,219.377089 529.620532,223.570755 529.008066,226.354531 C528.954405,226.583049 528.899436,226.826257 528.835159,227.090867 C538.665228,225.709794 548.518548,226.042186 557.165094,228.45415 C511.330723,241.12302 440.331285,283.521791 413.364363,321.32854 L430.460944,341.703452 C460.830226,294.49386 508.466172,257.060853 560.173399,236.800047 C558.399642,241.88008 555.608691,246.868999 552.094284,251.544115 L557.557813,250.897938 C557.557813,250.897938 553.698068,252.675514 551.038272,253.718052 C550.756345,253.828891 550.436703,253.947591 550.096041,254.073735 C547.083185,257.709565 543.64453,261.11823 539.933108,264.181513 L545.499436,264.937397 C545.499436,264.937397 541.319909,265.692065 538.487185,266.037006 C538.172737,266.076592 537.821228,266.116694 537.444333,266.150913 C536.723828,266.697723 535.997285,267.229212 535.264702,267.74538 L543.586643,268.876839 C543.586643,268.876839 539.40679,269.63518 536.574065,269.98012 C535.230478,270.145893 533.192375,270.296388 531.370734,270.323016 C527.277346,272.853911 523.017855,274.943127 518.74562,276.468777 C526.624727,278.437342 550.133917,277.093907 563.279604,265.101735 C562.728077,270.11103 561.743901,275.157154 560.373542,280.09238 L569.958958,275.555986 C569.958958,275.555986 566.864278,278.468743 564.678086,280.303177 C563.305965,281.454523 560.902679,283.253647 559.093353,284.326716 C558.136589,287.256677 557.038488,290.131937 555.820686,292.91735 L565.466145,288.350961 C565.466145,288.350961 562.373138,291.265712 560.184946,293.101824 C558.5288,294.491495 555.372931,296.823571 553.567876,297.68238 C551.716303,301.329195 549.63733,304.786247 547.364846,307.963935 C558.473376,303.739755 588.364667,279.544858 585.589675,253.197728 C587.599886,255.085645 589.523838,257.090115 591.322106,259.196649 L594.235645,252.456842 C594.235645,252.456842 593.839236,256.680165 593.408476,259.50176 C593.328655,260.024067 593.217312,260.650979 593.085352,261.322376 C594.355777,262.913589 595.555504,264.550534 596.678167,266.221561 L598.904538,261.067559 C598.904538,261.067559 598.509802,265.292877 598.077041,268.116149 L598.043055,268.331556 C600.136831,271.692041 601.913292,275.165874 603.291472,278.664688 C605.266314,269.53882 602.127741,239.64685 583.688174,230.07291 C585.57096,229.712943 587.49969,229.460538 589.447997,229.320829 L587.546437,226.794667 C587.546437,226.794667 589.520305,228.176198 590.794969,229.179401 L590.869204,229.239437 C593.262642,229.13058 595.671078,229.185833 598.054434,229.39805 L595.381673,225.847193 C595.381673,225.847193 597.355214,227.232395 598.628204,228.233604 C599.081293,228.590781 599.68693,229.105386 600.271911,229.644119 C601.1389,229.75933 602.000254,229.89626 602.852299,230.054592 L600.078782,226.367409 C600.078782,226.367409 602.05465,227.747261 603.325313,228.753821 C603.897775,229.204517 604.717465,229.913289 605.433608,230.600211 C607.473588,231.093759 609.448695,231.7131 611.316524,232.456438 C607.823526,227.371556 592.595676,215.690518 579.345226,218.653794 C581.024862,200.787953 564.929053,181.89412 557.966718,177.569431 C559.261226,180.428275 560.344081,183.481706 561.210802,186.655332 L566.381217,191.899166 C566.381217,191.899166 563.937792,190.636404 561.915284,189.489374 C562.145193,190.482355 562.349755,191.489809 562.535295,192.50303 L568.878556,198.937443 C568.878556,198.937443 565.644383,197.264433 563.541888,196.018018 L563.046834,195.716442 C563.497791,199.02826 563.723806,202.392907 563.722073,205.737982 C551.271363,187.804765 528.569581,188.761935 510.992564,194.176929 C505.064194,192.786803 499.411529,190.691968 494.483523,186.683905 C490.377764,183.345469 487.443632,178.68848 485.195008,173.772385 C485.891556,173.377494 486.486807,172.871558 486.760107,172.049032 C487.08672,171.066954 486.892717,169.788029 485.571147,169.860862 C485.052315,169.8894 484.57711,170.13109 484.125023,170.376442 C484.04768,170.418416 483.94671,170.47783 483.825144,170.551575 C483.702668,170.242742 483.582424,169.933795 483.464296,169.624988 C484.682835,168.886563 485.597777,167.871338 485.844973,166.427717 C486.183394,164.449987 485.899274,162.367733 485.431505,160.416349 C485.359515,160.115762 485.262324,159.791929 485.007907,159.609818 C484.804769,159.46397 484.54153,159.44042 484.29312,159.421441 C482.904961,159.316595 481.516415,159.212029 480.128226,159.107204 C479.443024,156.358204 478.89603,153.57686 478.487986,150.774867 L478.487986,150.774867 C487.279705,142.248563 496.087694,130.255118 498.52277,117.277631 C501.789054,122.774964 504.645035,128.639995 507.024994,134.687544 L513.274332,122.771009 C513.274332,122.771009 512.362559,128.085803 511.547979,131.614139 C511.036723,133.82863 509.975189,137.486963 508.961116,139.955989 C510.228941,143.65567 511.311771,147.407847 512.204693,151.160383 L518.491972,139.167602 C518.491972,139.167602 517.583418,144.483139 516.768092,148.014703 C516.151008,150.687588 514.73381,155.460673 513.560455,157.709316 C514.468924,162.818712 515.002051,167.909458 515.125756,172.864879 C523.156957,160.101652 534.971758,112.758257 512.040639,88.1783676 C515.519332,88.5564646 518.999617,89.1185389 522.430477,89.8800137 L520.236297,80.8253937 C520.236297,80.8253937 523.05959,85.4078109 524.777691,88.596014 C525.095648,89.1862474 525.461538,89.9065535 525.840503,90.6876814 C528.342967,91.330024 530.808709,92.0726946 533.222383,92.9087501 L531.542805,85.9858421 C531.542805,85.9858421 534.369316,90.5690023 536.086672,93.7604335 L536.216721,94.0046689 C540.90457,95.8111826 545.357423,97.974865 549.425753,100.467995 C544.458309,89.7122606 518.45186,61.8178372 492.455282,66.1968051 C494.08833,64.3943083 495.850071,62.6657251 497.717708,61.0363937 L493.861743,59.9285624 C493.861743,59.9285624 496.916923,59.8212632 498.974667,59.864508 L499.095739,59.8686583 C501.438009,57.9306823 503.920794,56.1475535 506.498025,54.5426373 L501.078088,52.98533 C501.078088,52.98533 504.135741,52.8820019 506.190267,52.9245038 C506.922151,52.9404644 507.928835,52.9994664 508.933011,53.0986918 C509.899553,52.5533948 510.876969,52.0344095 511.861296,51.5442212 L506.235158,49.9257078 C506.235158,49.9257078 509.291083,49.8151805 511.347337,49.8648816 C512.271601,49.8844544 513.643464,49.9767621 514.893714,50.1259976 C517.337812,49.0683761 519.812229,48.1877632 522.272621,47.5147235 C514.850091,45.0292565 490.499099,44.8204743 479.334533,57.9415642 C474.726517,50.4598846 467.318977,44.8445606 459.363629,40.823014 C469.267696,33.8077386 479.657098,24.9635607 486.826026,12.4412144 C487.857771,10.6408945 484.197443,9.88864675 483.497622,10.5764135 C473.603119,20.3302276 464.346521,30.4075293 453.976543,38.3639768 C442.913163,33.818042 431.765739,32.1404884 426.297928,32.6336059 C429.792777,34.5421139 433.221737,36.8094301 436.52346,39.3635879 L445.767183,40.7292287 C445.767183,40.7292287 442.326869,41.315443 439.401466,41.6975166 C440.392701,42.5281932 441.369302,43.3928931 442.331031,44.2779609 L444.857269,44.6513961 C433.82735,51.6066252 422.443391,56.9432932 411.103608,62.1924082 C397.90819,68.3018194 384.874104,74.7006541 371.402101,78.9168788 C369.373081,79.5527646 367.339613,80.1434528 365.30238,80.6918197 C364.848269,79.887933 364.372271,79.090817 363.877057,78.3013949 C361.195057,74.0243949 357.959057,69.9453949 354.502057,65.9503949 C352.773057,63.9523949 351.027057,62.0173949 349.305057,60.1213949 L346.746057,57.3003949 L345.531057,55.9483949 L344.458057,54.4923949 C341.594057,50.5023949 339.029057,46.4833949 336.750057,42.5733949 C332.212057,34.7513949 328.787057,27.2603949 327.240057,20.6503949 C326.475057,17.3553949 326.213057,14.2783949 326.583057,11.6613949 C326.934057,9.03739489 327.980057,6.95439489 329.197057,5.55539489 C330.414057,4.14539489 331.687057,3.35139489 332.547057,2.84139489 C333.418057,2.33939489 333.904057,2.10239489 333.873057,2.02039489 C333.850057,1.95339489 333.311057,2.04239489 332.344057,2.42339489 C331.391057,2.81539489 329.969057,3.51139489 328.537057,4.94639489 C327.105057,6.36339489 325.812057,8.62739489 325.308057,11.4513949 C324.783057,14.2703949 324.951057,17.5413949 325.645057,20.9943949 C327.050057,27.9223949 330.402057,35.6283949 334.904057,43.6313949 C337.171057,47.6333949 339.725057,51.7223949 342.620057,55.8093949 L343.754057,57.3683949 L345.049057,58.8253949 L347.602057,61.6623949 C349.316057,63.5623949 351.047057,65.4853949 352.758057,67.4613949 C356.174057,71.4083949 359.348057,75.3913949 361.962057,79.5093949 C362.336136,80.0969689 362.69854,80.687651 363.048227,81.2810669 C351.752382,84.1470056 340.348776,85.7477579 328.953304,86.5716877 C318.597417,87.3205036 308.223865,87.1843398 297.87586,86.2629477 C296.524733,84.954433 295.206912,83.6400171 293.916243,82.3274278 C280.046243,68.2204278 269.045243,52.8334278 263.130243,36.8024278 C261.329243,31.9244278 260.603243,26.9944278 259.556243,22.0514278 C259.529243,21.9294278 259.167243,22.0514278 259.157243,22.1394278 C258.322243,29.2944278 260.943243,36.7294278 263.934243,43.6194278 C267.342243,51.4714278 272.135243,59.1164278 277.629243,66.5184278 C282.418058,72.9695986 287.840312,79.5915009 294.118338,85.8939124 L294.118333,85.8939119 C282.773239,84.6760705 271.465189,82.5276791 260.25124,79.5804516 L261.289182,79.0639383 C258.60901,77.5202496 255.474074,75.8369446 251.829034,74.0110999 L246.160129,75.4489306 C245.3285,75.1801335 244.497531,74.9071817 243.667246,74.6301304 L246.309522,71.3364444 C243.287734,69.9121699 239.96831,68.4262476 236.336814,66.8685424 L232.177258,70.2227999 C231.356226,69.8621923 230.536698,69.4922482 229.718763,69.1129997 L231.71397,64.9741724 C227.514426,63.4236356 223.364586,62.4180704 219.329872,61.8740826 L218.387942,63.2029858 C213.883934,60.5867898 209.443602,57.6812531 205.082989,54.4921154 C206.041587,53.6677177 206.792241,52.9880245 207.279049,52.4846409 C208.38983,51.3461609 209.543642,50.0690568 210.714993,48.700093 L205.261957,48.1483471 L213.387178,45.4390999 C214.964979,43.4574131 216.51942,41.3910785 217.997844,39.3719635 L213.39969,38.0481111 L220.215586,36.2840947 C224.435309,30.3197082 227.541589,25.4308663 227.541589,25.4308663 C227.541589,25.4308663 225.13171,25.2048362 218.959383,26.8638278 L212.482929,34.0208114 L214.049181,28.3383159 C211.8698,29.0607589 209.384908,29.9638816 206.570212,31.0773293 L203.143406,37.6162648 L202.354198,32.8056155 C200.074793,33.7739531 197.608961,34.8808375 194.950444,36.1146914 L194.497485,44.7626736 L191.623169,37.7412198 C190.463072,38.3515988 189.356326,39.0016525 188.300336,39.6854011 C187.145969,38.4797215 186.001628,37.2521332 184.864406,36.0073975 C184.917944,35.3904366 184.96592,34.7600779 185.008694,34.118348 L183.806254,34.8422208 C183.424005,34.4188639 183.042463,33.9937238 182.661515,33.5669801 L185.206572,29.9071884 C185.286993,27.3737205 185.301957,24.7799357 185.283021,22.2808952 L180.807153,23.970461 L185.218512,18.4710689 C185.041934,11.1556917 184.609281,5.37759589 184.609281,5.37759589 C184.613371,5.37687472 182.54649,6.64167093 178.590697,11.6633971 L177.66522,21.2908194 L175.53643,15.7948902 C174.436753,17.3693039 173.241622,19.1699377 171.950481,21.2215226 C170.027834,18.9897741 168.093476,16.7611912 166.132907,14.5595197 C165.792343,14.177172 164.092663,14.6226948 164.549106,15.4849649 C166.764994,19.6839836 169.251547,23.5575604 171.91928,27.1600481 L172.332427,29.7678619 L168.829173,26.3783914 C167.584161,28.5254291 166.262694,30.8846165 164.875121,33.4668098 L169.66873,40.6824414 L163.172314,36.7724522 C161.745875,39.7799708 160.732541,42.7865068 160.056029,45.7421059 L167.013727,51.7180709 L159.498602,48.6555721 C159.084744,51.3070119 158.926384,53.9007193 158.963125,56.4050742 L164.760481,60.7511242 L159.087277,59.1899059 C159.109741,59.5325581 159.13894,59.8655689 159.169585,60.2067788 C157.935162,59.5917234 156.654551,59.0017202 155.327276,58.457988 L155.017133,64.8785249 L152.490599,57.3899565 C149.909001,56.5009783 147.173469,55.7913147 144.29412,55.3183592 L144.90417,64.1593337 L141.084208,54.9079182 C137.80022,54.6035326 134.349587,54.6455552 130.74051,55.1043992 L132.58847,63.1691337 L126.755669,55.7520832 C123.607844,56.3155837 120.719626,56.8924863 118.073687,57.4562577 L120.394289,62.2462734 L113.229553,58.5640287 C110.023078,59.3449933 107.242454,60.1015928 104.850148,60.8362184 L109.811841,64.9153731 L99.5406315,62.6051469 C92.9987024,65.0140822 90.9901634,66.7293334 90.9901634,66.7293334 C90.9901634,66.7293334 96.8293589,69.1362704 104.337162,71.7984959 L111.520683,69.0819889 L108.254195,73.1579085 C110.836991,74.0297675 113.522759,74.8876967 116.168807,75.6638628 L125.114225,72.9663912 L120.600681,76.8817711 C122.500322,77.3710766 124.33715,77.791145 126.04114,78.1035996 C127.035817,78.2917325 128.638719,78.4613858 130.685524,78.6373069 L140.297558,73.7891096 L136.723177,79.060607 L138.921063,79.1845264 C137.42541,79.7187779 135.916783,80.3229489 134.410096,80.9859557 L139.833699,86.7759079 L131.033495,82.5958198 C128.036537,84.1345155 125.059381,85.952928 122.177834,88.1222306 L130.531268,95.1497762 L119.067323,90.619341 C115.986449,93.2845323 113.057987,96.3835916 110.383727,99.991564 L119.110592,105.262467 L107.539494,104.094476 C105.343456,107.377187 103.378817,110.441562 101.623679,113.283008 L107.84581,115.326534 L98.4534994,118.550866 C96.3956255,122.067061 94.6862749,125.192096 93.2826267,127.946204 L101.146785,127.032964 L90.310473,134.193622 C86.8428753,142.079707 86.6377731,145.341067 86.6377731,145.341067 C86.6377731,145.341067 93.7735485,142.21028 102.558287,137.812301 L106.303796,129.086765 L107.116757,135.491029 C110.103366,133.941477 113.168141,132.285149 116.117181,130.594277 L121.390078,120.318643 L121.000548,127.700024 C123.057803,126.428471 124.996925,125.156613 126.73756,123.907073 C127.751246,123.174597 129.28063,121.898901 131.18789,120.231097 L135.124599,107.51961 L136.730663,115.216979 C138.123385,113.931564 139.597888,112.559871 141.128434,111.123344 C140.924733,111.450925 140.721756,111.782605 140.522868,112.113563 L148.286384,113.69086 L138.703601,115.380563 C137.139778,118.374263 135.766565,121.587973 134.667929,125.019568 L145.539303,125.926283 L133.575417,128.868556 C132.599383,132.828042 132.000918,137.063339 131.90272,141.552812 L142.064864,140.805019 L131.952861,146.54873 C132.059753,150.503255 132.225751,154.147241 132.433773,157.479474 L138.687348,155.539855 L132.88697,163.613242 C133.237376,167.681227 133.650921,171.222386 134.098026,174.284205 L139.977318,168.978265 L135.276322,181.110155 C136.456124,186.899526 137.635571,190.023901 138.260866,191.416695 C135.341129,192.42527 133.265409,193.84224 133.265409,193.84224 C131.004677,194.854452 132.935572,195.825446 132.935572,195.825446 C133.91665,196.071882 135.847664,198.289324 135.847664,198.289324 C141.13989,204.490952 148.544298,203.031912 148.544298,203.031912 C148.510314,203.04442 148.475428,203.057238 148.441754,203.070647 C144.868224,204.498414 142.561811,211.791655 142.561811,211.791655 C140.871357,214.009982 144.666987,213.83244 144.666987,213.83244 C149.318026,215.175096 153.114696,214.517714 154.564274,214.162052 L154.564274,214.162052 C151.475922,216.719199 148.322494,218.9953 145.133869,221.045488 C144.066728,220.037015 142.501193,218.693777 140.257566,217.033956 L129.968529,216.361259 L135.746202,213.908681 C133.6952,212.565981 131.287443,211.078084 128.48204,209.468481 L120.744297,210.945135 L124.224358,207.087611 C121.898276,205.828237 119.333402,204.490692 116.531231,203.0914 L109.017446,208.444253 L112.948868,201.381797 C109.850482,200.022671 106.775692,199.06874 103.754046,198.444538 C104.942054,197.903462 105.880949,197.440098 106.515633,197.081847 C107.994115,196.248131 109.561122,195.281402 111.15863,194.220578 L105.725941,192.035922 L114.870128,191.678309 C117.071989,190.122187 119.283517,188.468518 121.393382,186.839755 L117.060229,184.109282 L124.58713,184.332786 C130.679072,179.482798 135.31229,175.399871 135.31229,175.399871 C135.31229,175.399871 132.902346,174.45588 126.074202,174.309507 L117.306305,179.716579 L120.592172,174.363677 C118.141018,174.451822 115.325359,174.63718 112.106749,174.94104 L106.660701,180.626494 L107.270838,175.461778 C104.640125,175.773789 101.783342,176.169416 98.6865216,176.647912 L95.6648278,185.365498 L94.781531,177.316593 C91.3057039,178.038621 88.0923183,179.106262 85.1503256,180.435939 L84.5823379,190.20026 L82.3142979,181.839005 C79.7962737,183.186728 77.495136,184.721188 75.3892116,186.36417 L75.4508864,194.091205 L73.1047435,188.256757 C71.4281527,189.721945 69.897464,191.255657 68.5059892,192.806167 C69.3050056,190.607509 70.0686256,188.507354 70.7372165,186.621584 L66.1968804,187.524732 L72.1507948,182.45254 C72.6112407,181.029595 72.9466334,179.905817 73.1002649,179.185571 C73.3688524,177.953144 73.6081242,176.609409 73.8205894,175.196525 L69.9214987,177.117009 L74.2472912,171.880533 C74.4756127,169.884783 74.6526526,167.841924 74.7984138,165.862764 L71.1497767,166.904749 L74.99225,162.854171 C75.3236374,157.06979 75.3581989,152.47663 75.3581989,152.47663 C75.3581989,152.47663 73.6425423,153.33733 70.1887424,157.046829 L68.8408449,164.581596 L67.5062014,160.101863 C66.3441362,161.503559 65.0525384,163.155151 63.6275291,165.086782 L64.0708314,170.924345 L61.518492,168.020778 C60.3924919,169.629875 59.1993396,171.410489 57.9299609,173.357463 L61.2594986,179.363679 L56.3758492,175.849549 C55.0449362,178.131782 54.0534612,180.441541 53.3315172,182.730719 L58.4502591,187.898854 L52.9317016,185.111872 L53.4078809,183.017329 C52.9270852,181.602324 52.5212216,180.501871 52.2171583,179.829483 C51.694824,178.678427 51.0827026,177.457184 50.4050919,176.192739 L48.4345891,180.068103 L48.7685035,173.277531 C47.7579441,171.539949 46.6780164,169.789311 45.6151053,168.116634 L43.3150412,171.133789 L43.9707117,165.581591 C40.7778066,160.736119 38.0587019,157.032097 38.0587019,157.032097 C38.0611493,157.029894 37.2026558,158.749053 36.6526286,163.788572 L40.0759843,170.65204 L36.3347839,167.850549 C36.24149,169.671414 36.1924425,171.767829 36.2048353,174.168733 L40.0519427,178.593959 L36.2716005,177.786679 C36.3365691,179.753781 36.4392731,181.895684 36.5912341,184.215341 L42.8472302,187.05351 L36.8352127,187.153998 C37.1397711,189.776024 37.7217345,192.22379 38.5088096,194.495756 L45.6992329,195.590815 L39.358265,196.689344 C40.1941597,198.646385 41.1776196,200.457231 42.2547384,202.125998 L47.9798755,202.612534 L43.5085065,203.946658 C43.6676076,204.167655 43.827186,204.379338 43.9911821,204.595928 C42.9025525,204.70104 41.7933885,204.84241 40.6722871,205.034507 L43.1618269,209.482724 L38.3157683,205.508305 C36.2060372,205.995326 34.0681365,206.667627 31.9329906,207.559553 L36.0585151,213.248849 L29.601807,208.632434 C27.2653741,209.807768 24.9624433,211.286095 22.728118,213.111322 L27.3599508,217.758377 L20.320444,215.221454 C18.4402959,216.923231 16.740369,218.524926 15.1978585,220.015977 L18.7714078,222.262127 L12.4056433,222.796625 C10.5774383,224.669295 9.02538375,226.346624 7.72524332,227.845992 L12.7762295,228.504209 L4.89789195,231.266845 C1.51068034,235.636009 0.880717774,237.633587 0.880717774,237.633587 C0.880717774,237.633587 5.81911597,236.798464 11.9869521,235.433823 L15.6763906,230.588196 L15.192471,234.701982 C17.295814,234.202944 19.4625531,233.651266 21.5682207,233.061293 L26.4505548,227.488062 L25.0605114,232.017936 C26.5436639,231.548709 27.9554777,231.059317 29.2327339,230.553375 C29.9807253,230.261902 31.129989,229.702405 32.5804167,228.960581 L37.0072542,221.660829 L36.8186925,226.708041 L38.3488714,225.867757 C37.567537,226.855568 36.8068598,227.895853 36.0722121,228.974891 L42.15277,230.58953 L34.4779248,231.476499 C33.1090449,233.770706 31.871028,236.244706 30.8447639,238.914505 L39.4157439,240.130231 L29.8022748,241.900976 C28.85035,244.988029 28.1832485,248.302816 27.9009629,251.853028 L35.984882,251.730465 L27.7123578,255.807522 C27.6149968,258.938027 27.5815018,261.824459 27.5952177,264.47293 L32.6384277,263.232487 L27.676957,269.347835 C27.7706302,272.577301 27.9343116,275.397248 28.1477057,277.839274 L33.0526707,273.92034 L28.7742623,283.289729 C29.7562468,290.050408 30.9888407,292.3299 30.9888407,292.3299 C30.9888407,292.3299 34.4720756,287.22573 38.5317428,280.576411 L37.3838931,273.134405 L40.6218942,277.099715 C41.9792524,274.802555 43.3443073,272.400738 44.6170121,270.024327 L43.8449476,260.898004 L46.6848758,266.025762 C47.5340566,264.306104 48.3036633,262.635884 48.949164,261.064083 C49.3230694,260.145501 49.8155098,258.644885 50.3972999,256.721776 L47.7030103,246.518824 L52.0177868,251.020474 C52.4142365,249.570751 52.8294275,248.028638 53.2550627,246.419374 C53.2557315,246.725277 53.2586092,247.033633 53.2639344,247.339786 L59.1478186,245.138059 L53.4133539,250.301394 C53.6197127,252.971861 54.0467143,255.710186 54.7499349,258.479655 L62.4420899,254.520933 L55.6326753,261.527252 C56.6401834,264.600213 58.0175152,267.699994 59.8380954,270.760482 L66.3580086,265.987126 L61.97126,274.099223 C63.7049634,276.713768 65.3479182,279.094633 66.8881256,281.248181 L70.2786378,277.315813 L69.7705106,285.182763 C71.7156597,287.771278 73.4818819,289.978964 75.0692386,291.850185 L76.7934057,285.811213 L78.7301382,295.945557 C83.4371418,300.902508 85.7598765,302.04496 85.7598765,302.04496 C85.7598765,302.04496 85.6425059,295.860621 85.1095216,288.082651 L79.8659433,282.662666 L84.7966085,284.028906 C84.5711469,281.366755 84.2987601,278.618035 83.9622614,275.935926 L78.0528797,268.929918 L83.3294758,271.472785 C83.0273937,269.577034 82.6881835,267.768018 82.3016396,266.108233 C82.0824539,265.1462 81.6137727,263.631445 80.9737456,261.724591 L72.879285,254.944733 L78.998211,256.129478 C77.8682606,253.016302 76.5343263,249.475269 75.1276927,245.80421 C75.9167155,245.776303 76.708453,245.737492 77.5026806,245.688249 L77.94141,248.96086 C79.1776155,250.486385 80.1778246,251.651371 80.8548749,252.334404 C82.0180571,253.508123 83.3280958,254.731737 84.7310233,255.964998 L85.3799442,250.316708 L88.0689123,258.800916 C90.0985558,260.469353 92.2129685,262.123652 94.2851122,263.691632 L95.7260684,258.942674 L97.4535028,266.053831 C103.564501,270.537314 108.591713,273.846663 108.591713,273.846663 C108.591713,273.846663 108.855355,271.343805 107.230805,264.912937 L99.9084025,258.055367 L105.766116,259.781814 C105.053781,257.509183 104.159418,254.916262 103.04255,251.972863 L96.3180791,248.299397 L101.307343,247.565063 C100.628272,245.8904 99.8803843,244.117412 99.0629115,242.245246 C99.132072,242.228622 99.2012357,242.211953 99.2704024,242.195241 C101.85204,241.57129 104.4779,240.89091 107.134818,240.139786 C125.957215,250.424423 145.298036,264.093376 163.144607,278.995461 L163.144607,278.995461 C162.124903,279.025089 161.533775,279.092705 161.546176,279.084598 C163.138929,279.932461 164.605794,280.689156 165.956594,281.364149 C166.976533,282.230833 167.991147,283.101241 169.000051,283.974961 C163.819197,281.990871 159.800633,282.133494 159.856537,282.095514 C163.068907,284.30356 166.167788,286.618906 169.146314,289.034117 C176.188107,294.410662 179.183169,293.490854 179.483432,293.360663 C179.487508,293.364437 179.491584,293.36821 179.495661,293.371983 C178.626392,295.042094 177.750342,296.715322 176.867746,298.391497 C174.632879,292.833528 159.949912,286.496205 159.862535,287.3485 C159.906494,289.223375 163.902738,294.588209 176.002198,299.276289 C177.670454,299.926286 172.04292,306.647346 172.039899,306.647714 C171.91877,306.685665 169.435257,301.612693 165.924741,298.967633 C160.96802,295.225901 158.025924,295.796614 158.094182,295.913443 C161.135299,305.165644 171.241772,307.669307 171.250651,307.666692 C169.841131,309.225656 168.430122,310.783325 167.016375,312.342253 C166.288163,310.628387 163.549756,308.153442 163.540637,308.160251 C152.424743,297.892802 145.723608,299.231355 146.757804,299.577144 C147.689184,299.998911 153.214809,304.963939 153.169438,305.000557 C160.294084,313.090229 165.308133,313.852634 165.380862,313.799611 C164.930932,314.545389 160.77232,317.619592 160.7727,317.619864 C150.614345,302.145808 140.025911,304.479476 140.262189,304.318406 C142.721801,304.585446 149.644455,311.804712 149.560452,311.870128 C155.347266,318.232332 158.671582,318.881165 158.719995,318.846721 C156.54848,320.965334 153.814049,321.542274 153.812929,321.544001 C153.565002,320.023015 148.313043,313.85387 148.25551,313.895122 C137.618382,304.092024 134.427665,305.368027 134.565954,305.255132 C135.572212,306.013797 142.711171,314.757295 142.600744,314.843918 C148.353368,322.628464 152.192228,322.95059 152.255576,322.906027 C150.526697,324.103125 146.487504,324.802682 146.484743,324.805419 C146.419374,323.624207 141.391508,316.20987 141.319834,316.261579 C134.003003,306.332383 128.303489,305.078602 128.396828,305.007682 C130.635369,308.197642 132.742422,311.504325 134.710721,314.917481 C140.146998,323.586408 145.014783,325.849476 145.071762,325.807713 C143.272044,326.287014 141.469847,326.769943 139.662324,327.257107 C138.086342,325.148048 136.444438,323.083779 134.739794,321.06692 C128.877761,311.306351 122.414708,308.274491 122.476261,308.233241 C128.614273,324.094112 138.006785,327.940385 138.136997,327.835733 C136.311566,328.096597 134.480689,328.363793 132.642235,328.637407 C131.21826,326.633471 129.73798,324.669712 128.202894,322.748694 C121.68295,310.639337 115.782221,308.389999 115.892332,308.306711 C116.246757,309.479954 119.866924,315.77896 119.82266,315.816599 C126.794929,327.966702 130.874101,329.078964 131.003757,328.977822 C129.503504,329.018688 127.996838,329.065311 126.483627,329.118515 C124.906544,327.222165 123.273689,325.36798 121.58682,323.556874 C114.781777,313.679112 109.454966,312.575989 109.543111,312.504458 C113.516541,321.293394 124.410936,329.465492 124.32975,329.526486 C123.183849,329.372926 122.032969,329.22408 120.875534,329.080543 C119.811789,327.994083 109.73582,319.297514 109.594232,319.423218 C107.51665,314.564997 102.718952,310.069079 102.703905,310.086588 C102.374949,311.345856 105.452553,317.803764 105.410907,317.842242 C104.544745,320.967501 109.547175,324.420637 109.522999,324.443683 C110.71397,325.736937 111.878124,327.053876 113.014039,328.392795 C112.045659,328.133824 111.07116,327.87875 110.091965,327.629281 C108.293745,325.49645 106.428031,323.422338 104.495181,321.408695 C102.403522,318.770398 93.9538934,312.394013 93.8792608,312.475091 C94.1373777,313.772745 97.5232383,318.03722 97.4999958,318.061049 C95.0206707,315.866262 88.9465452,311.205845 88.910723,311.246303 C89.1442032,311.824378 89.3733137,312.405994 89.5998694,312.990379 C89.051353,312.896943 88.5012608,312.804103 87.9500486,312.712991 C88.0522418,312.917512 88.1537502,313.122349 88.2552259,313.327392 C88.1013344,313.256886 87.9479641,313.187098 87.7942565,313.118103 C87.0057207,317.42334 94.1021661,322.269377 94.0548002,322.318588 C85.6705113,317.140973 77.3385006,319.280982 77.3865717,319.234 C81.3031409,321.815134 92.8493922,322.881437 92.8166787,322.919637 C86.3606402,321.46816 79.1363221,326.227535 79.1527811,326.210462 C87.6184396,326.644315 93.7712016,323.479867 93.7892814,323.459242 C94.6590554,323.600598 95.5248399,323.745766 96.3883844,323.894388 C85.5995812,325.460964 85.0676786,330.735197 85.068269,330.727461 C89.414948,329.288979 97.2377691,324.387603 97.2396597,324.38769 C97.9927622,324.608333 98.7431137,324.832984 99.4904975,325.060339 C86.9480706,328.104502 86.5235701,332.619124 86.5264435,332.608999 C89.5511731,333.063733 99.969501,326.026887 99.9728161,326.024661 C100.184603,325.885951 100.395803,325.746937 100.607318,325.608607 C101.326424,325.870209 102.042191,326.135514 102.754242,326.404251 C90.0766568,330.422014 90.3015823,336.238074 90.2895417,336.240611 C94.0359052,335.758557 103.750757,326.905109 103.750291,326.902707 C103.982336,326.868569 104.215033,326.834322 104.446491,326.79988 C105.144525,327.022169 105.838994,327.245587 106.530506,327.472981 C92.9601601,335.182089 94.1565012,339.883171 94.1390997,339.89417 C100.049093,337.444828 107.644855,328.213215 107.636651,328.214243 C107.856942,328.128726 108.077646,328.043274 108.297046,327.958038 C109.142126,328.249961 109.981913,328.545913 110.817546,328.846708 C98.2620904,335.462961 98.6635338,343.229488 98.625894,343.253364 C105.501076,338.644803 111.641563,329.560215 111.627456,329.566445 C111.773646,329.380949 111.920358,329.196169 112.066103,329.010814 C113.068242,329.293119 114.064446,329.580833 115.054715,329.873956 C103.767697,337.593641 104.731638,346.436859 104.675825,346.473939 C109.5408,341.767071 116.019354,330.410395 115.992737,330.424801 C116.138993,330.238892 116.286389,330.053798 116.433232,329.868192 C117.56731,329.978827 118.695725,330.094489 119.819953,330.215202 C109.984274,335.72443 108.708713,347.871743 108.629989,347.918527 C114.413016,343.966087 121.080464,331.14957 121.038947,331.169869 C121.181003,330.92764 121.32258,330.685758 121.464506,330.444355 C122.768623,330.463417 124.068588,330.487324 125.362237,330.516367 C117.275538,337.830667 115.702143,349.95853 115.626931,350.001849 C120.611058,347.256253 126.848166,331.00417 126.759196,331.050177 C126.933947,330.831325 127.108665,330.612679 127.283623,330.39386 C128.868921,330.310386 130.448359,330.233178 132.020417,330.16115 C125.38638,333.793641 121.583117,351.186244 121.443772,351.257707 C129.388604,345.290712 133.381585,330.419907 133.289104,330.469378 C133.490915,330.218626 133.692455,329.968254 133.893755,329.718056 C135.399506,329.540935 136.900179,329.369146 138.39594,329.201658 C131.942933,333.027245 128.507319,353.231804 128.299026,353.335093 C135.064418,346.545818 139.92434,329.446695 139.807786,329.506532 C139.953022,329.202804 140.098324,328.898663 140.243659,328.594315 C141.881557,328.126629 143.516357,327.662472 145.148124,327.201433 C137.281914,335.404303 136.899426,353.893555 136.68046,354.002771 C142.824835,347.380076 146.807945,327.151134 146.614497,327.250214 C146.685704,327.038452 146.75664,326.827069 146.827847,326.615307 C148.393137,325.925988 149.957415,325.239048 151.520672,324.553217 C151.686652,324.656956 151.852534,324.761314 152.017938,324.86602 C145.991565,331.582739 145.272599,352.81771 144.984785,352.954112 C152.706636,342.991876 153.333216,324.313589 153.131201,324.424009 C153.390658,324.167363 153.650007,323.910065 153.909051,323.653353 C155.360848,322.917702 156.812275,322.183051 158.263017,321.448715 C154.531241,327.128192 155.854386,351.525397 155.415387,351.72652 C159.002797,347.327294 160.81548,331.012466 160.663412,331.08276 C161.289259,322.606034 159.587806,321.095437 159.618204,321.081207 C159.819867,320.709812 160.021051,320.338764 160.221616,319.967618 C161.552922,318.889115 162.883154,317.809384 164.214526,316.730468 C163.999386,317.428787 163.78229,318.127432 163.563487,318.827499 C161.846201,325.600334 164.40952,343.552896 164.157942,343.670278 C168.338395,337.843479 167.639683,324.531938 167.517032,324.594195 C167.616417,317.782014 165.248717,316.926644 165.269769,316.916647 C165.286881,316.64828 165.304546,316.380424 165.321114,316.112818 C166.672606,314.882823 168.023065,313.652664 169.373666,312.42295 C168.714255,313.984966 168.696637,316.042868 168.694311,316.044193 C169.460319,327.028275 172.706433,338.596253 172.645192,338.620835 C178.543456,323.331042 170.725611,310.631616 170.596075,310.730661 C171.983236,309.143186 173.367551,307.556318 174.749528,305.969504 C173.73785,310.871277 176.447844,320.505264 176.37135,320.547321 C176.983526,323.969152 179.611567,329.561884 179.582201,329.576278 C180.44138,327.195215 180.618725,321.340448 180.598934,321.349163 C180.046922,317.156007 179.350535,313.032671 178.513951,308.990186 C178.18699,305.867888 175.646616,304.479413 175.646551,304.479826 C176.662326,302.717354 177.670179,300.956801 178.671086,299.200015 C177.963837,300.663249 179.210563,303.841076 179.200237,303.847481 C180.778458,311.710244 183.526757,319.086244 183.512716,319.092062 C186.357076,312.353841 183.302899,303.689127 183.242728,303.726998 C181.932881,299.165379 179.655802,298.153378 179.666334,298.147005 C179.574432,298.008444 179.481595,297.8691 179.388324,297.731168 C179.788071,296.609466 180.182938,295.490225 180.573427,294.373231 C181.421689,295.164054 182.264291,295.956205 183.100964,296.749397 C186.720393,302.988782 195.575496,309.306957 195.420298,309.403623 C195.330801,309.155056 195.241397,308.909902 195.152099,308.668114 C196.87438,310.447683 198.560387,312.225317 200.20713,313.997823 C203.835674,309.064878 207.981669,304.056924 212.514232,299.842522 C205.582503,293.267394 197.99815,286.727499 189.969711,280.355995 C193.606628,280.141652 197.172048,277.686502 197.191147,277.671414 C190.796611,275.296132 187.124562,276.186879 185.542935,276.8944 C185.230605,276.653725 184.917682,276.41333 184.60418,276.173223 C184.600147,275.465554 184.593106,274.759907 184.582686,274.056644 C184.108965,273.859725 183.632994,273.664988 183.156,273.47136 C183.120071,273.974775 183.082731,274.479098 183.044029,274.984329 C163.480598,260.150978 141.75918,246.472916 120.64705,235.717153 C128.85363,232.621902 137.142547,228.667535 145.153835,223.462644 C146.442036,223.3432 147.180153,223.265374 147.180153,223.265374 C147.180153,223.265374 147.014463,223.013943 146.578681,222.521646 C147.945033,221.604435 149.302613,220.649852 150.64961,219.655931 C154.070028,217.131886 157.370569,214.265651 160.524577,211.097626 C157.919624,215.683925 157.364879,222.429946 157.364879,222.429946 C157.352919,224.785567 158.362578,226.683611 158.362578,226.683611 C158.420194,230.130364 161.001888,228.15978 161.5756,227.758686 C162.150685,227.356313 164.499982,225.505049 164.499982,225.505049 C172.110989,220.119318 168.956055,210.843762 168.956055,210.843762 C168.61413,209.169453 166.761322,206.730803 166.761322,206.730803 C166.483306,206.308218 166.192935,205.763183 165.924472,205.211929 C166.388795,204.663906 166.849162,204.109099 167.305469,203.547662 L167.873279,203.737854 C170.56743,204.096174 171.376391,205.881338 171.376391,205.881338 C173.825185,209.713143 180.428273,214.294909 180.428273,214.294909 C183.936761,216.904101 191.138956,215.954638 191.138956,215.954638 C195.042905,214.979611 193.186629,212.43373 193.186629,212.43373 C191.936454,209.709583 186.845389,206.007849 186.845389,206.007849 C179.996109,201.277074 174.991648,202.806574 174.991648,202.806574 C172.008234,203.755046 170.270495,203.45798 170.270495,203.45798 L167.898745,202.811103 C168.452093,202.117913 168.999313,201.414919 169.54022,200.702404 L172.38804,199.768916 C173.943023,199.193992 175.966081,199.977869 175.966081,199.977869 C180.835762,201.396066 185.474214,200.443022 185.474214,200.443022 C192.123839,199.166486 194.681897,191.664669 194.681897,191.664669 C195.455198,189.620262 191.272879,189.682661 191.272879,189.682661 C181.346743,188.114747 175.402781,196.082092 175.402781,196.082092 C174.216847,197.476549 173.363569,198.420103 173.363569,198.420103 C172.8767,198.701948 171.688165,199.14184 170.376498,199.586423 C172.078443,197.28562 173.715352,194.889681 175.281232,192.407689 C179.368276,189.771596 182.169578,185.416436 182.169578,185.416436 C184.721317,181.493567 184.878345,177.921042 184.350287,175.264554 C185.269357,173.168127 186.141725,171.034705 186.964903,168.868057 C191.812082,156.106726 194.877857,142.404769 196.350621,129.250891 C222.815885,171.833776 243.422961,231.19941 253.120936,281.590698 C260.297686,278.740121 268.077922,276.155109 275.741276,274.677043 C269.270942,249.68034 259.486853,222.853604 247.708352,196.970337 L247.708352,196.970337 C247.848261,197.005426 247.989548,197.038508 248.132171,197.069693 C250.69533,197.629975 253.494068,197.489993 256.142315,196.595337 C258.464647,195.810091 261.804478,193.831191 262.172424,191.110198 C262.420392,189.279712 261.674178,187.63787 261.097751,186.043775 C260.868135,185.407528 259.118752,181.926957 261.099348,182.14437 C261.777748,182.219022 262.168046,182.864001 262.470993,183.453551 C264.252429,186.924931 265.627812,190.618197 267.100791,194.255034 C267.263313,194.657296 267.41375,195.065799 267.560341,195.475404 L269.657868,194.873948 C268.498587,192.91903 267.19676,191.050081 266.141849,189.033323 C265.477334,187.763499 262.463474,182.965217 264.157344,181.7351 C265.273135,180.925355 266.980242,182.531014 267.782435,183.124485 C270.282885,184.975803 272.474814,184.522106 275.238026,183.34126 C280.053104,180.746474 282.108349,174.418335 280.123005,169.507591 C279.958003,169.099102 279.693663,168.649028 279.250901,168.607404 C279.059156,168.58954 278.867674,168.654853 278.691139,168.736 C277.248457,169.40013 276.551876,171.008904 275.800587,172.405117 C274.617051,174.604469 272.960833,176.607048 270.822021,177.91133 C269.850758,178.50411 268.714932,178.956068 267.610641,178.760721 C266.506534,178.566015 265.525463,177.518083 265.748474,176.413491 C266.000109,175.161939 267.451226,174.602229 268.658053,174.158357 C273.498185,172.379189 279.018554,167.990671 277.834568,162.412377 C277.585937,161.240447 275.635315,153.065998 273.389205,155.012253 C272.066618,156.158107 271.288792,159.121508 270.316027,160.638117 C269.195633,162.385067 267.922445,164.037078 266.514299,165.566835 C265.922966,166.209543 265.15267,166.886224 264.304549,166.737443 C264.183282,164.352371 265.726598,162.205257 267.086749,160.200854 C268.530875,158.073163 269.867515,155.812565 270.433088,153.323509 C271.000853,150.82758 270.500404,148.791973 269.499877,146.553572 C269.00783,145.452135 267.983362,142.987495 266.351818,143.292993 C265.780951,143.399798 265.35494,143.922255 265.18426,144.476256 C265.012755,145.0298 265.046659,145.617408 265.067177,146.192205 C265.254675,151.462377 264.066666,157.043024 260.574006,161.101941 C260.176518,161.564188 259.704833,162.028978 259.106751,162.125549 C255.206571,162.752724 260.99197,152.424527 261.56391,151.329496 C262.895695,148.780991 263.634436,146.329694 263.525376,143.488788 C263.423454,140.832457 262.044939,139.13882 260.011576,137.476861 C258.955291,136.614224 256.623329,134.791601 255.61922,136.772306 C255.364582,137.275455 255.355885,137.857241 255.352019,138.414748 C255.344504,139.625559 255.352392,140.83527 255.340221,142.043376 C254.933391,140.81877 254.429539,139.420368 253.805551,137.836784 L252.875399,137.167401 C252.759029,135.635742 252.600717,134.087771 251.321021,133.074222 C250.275119,132.245377 248.639947,131.916428 248.145376,133.549834 C248.127337,133.60939 248.111691,133.6693 248.098228,133.729511 L243.251949,130.241887 L251.06951,131.479948 C249.773405,128.673506 248.192812,125.473392 246.268302,121.877405 L237.006786,118.285898 L243.306112,116.486157 C241.660154,113.585005 239.811069,110.440688 237.749478,107.071768 L226.137243,107.775134 L235.06091,102.849646 C232.655706,99.325738 230.004969,96.2509148 227.190728,93.5642163 C228.822754,93.7794582 230.136448,93.9113398 231.054577,93.9523445 C233.192789,94.0487433 235.514554,94.0620527 237.931815,93.9951186 L233.581951,88.0285182 L243.599739,93.7565694 C246.994273,93.5638127 250.464329,93.2731996 253.809023,92.9412864 L250.999741,87.125739 L258.899674,92.3945076 C268.655354,91.2787779 276.338491,90.0085734 276.338491,90.0085734 C276.338491,90.0085734 275.611018,89.0293653 273.399417,87.1898797 L273.399417,87.1898797 C281.948529,88.8770477 290.548509,90.0328819 299.149704,90.6974641 C304.877659,95.890284 311.266231,100.760497 318.452243,105.006428 C330.923305,112.37448 346.507885,116.908789 363.322544,118.263094 C362.462146,120.166994 361.745313,122.005572 361.359057,123.803395 C361.057057,125.197395 360.953057,126.548395 361.053057,127.780395 C361.148057,129.013395 361.443057,130.114395 361.811057,131.049395 C362.570057,132.920395 363.550057,134.139395 364.240057,134.903395 C364.939057,135.667395 365.375057,135.994395 365.430057,135.945395 C365.492057,135.886395 365.171057,135.452395 364.605057,134.616395 C364.049057,133.782395 363.230057,132.523395 362.656057,130.747395 C362.078057,128.979395 361.912057,126.662395 362.615057,124.105395 C363.084715,122.299178 363.935003,120.411893 364.957042,118.384454 C369.690775,118.706256 374.516325,118.777454 379.392243,118.590428 C389.387351,118.206183 399.473626,116.744204 409.140917,114.501551 C407.475952,123.4324 407.120763,131.957411 407.568952,138.375141 C406.49574,140.100819 405.318342,143.176793 404.712951,148.643965 C404.078374,148.926847 403.476424,149.239767 402.905719,149.576831 C403.710251,146.436123 405.875077,137.348908 404.829915,134.424721 C404.833121,134.436601 399.54886,136.876627 401.724509,149.996464 C401.161799,149.484027 400.600459,148.966719 400.040903,148.444756 C400.06813,148.193494 400.096109,147.942203 400.123551,147.690526 C400.123749,147.688886 400.387473,145.552188 400.570697,142.871129 C402.788979,133.564769 397.980508,128.179806 397.980508,128.179806 C396.002518,125.164257 393.320645,127.46429 391.804278,130.871097 C391.509518,130.271262 391.187906,129.664795 390.837003,129.055387 C390.840721,129.044619 390.620915,131.023099 390.859777,133.646749 C390.559813,134.760175 390.316116,135.919335 390.11886,137.090265 C388.126745,134.489915 385.738687,131.740033 383.819088,130.648931 C383.834927,130.598212 385.010418,135.833557 389.66112,140.558499 C389.60239,141.15059 389.553214,141.737026 389.512289,142.313303 C388.277392,141.974441 386.9472,141.744938 385.727318,141.819546 C383.308339,133.263672 376.195646,128.962431 376.195646,128.962431 C373.296518,127.517341 373.265734,137.266313 373.265734,137.266313 C374.072217,145.389311 382.075216,154.843785 382.075216,154.843785 C383.612816,156.311926 383.143679,157.398125 383.143679,157.398125 C382.894056,158.450659 381.636462,162.988349 381.636462,162.988349 L380.559491,160.702534 C379.836121,158.995245 379.45996,156.937137 379.45996,156.937137 C379.261102,150.753706 374.841332,145.406793 374.841332,145.406793 C370.897345,139.904713 362.124779,139.493927 362.124779,139.493927 C359.710114,138.941773 360.667836,140.879285 360.667836,140.879285 C361.303051,141.666524 361.510738,144.599566 361.510738,144.599566 C362.005064,152.737348 368.79656,156.028191 368.79656,156.028191 C368.761891,156.017728 368.726316,156.00697 368.691353,155.997413 C364.978154,154.987075 358.746988,159.423681 358.746988,159.423681 C356.061909,160.177976 359.200081,162.320452 359.200081,162.320452 C362.929887,167.288503 367.518219,168.779342 367.518219,168.779342 C374.577759,170.53115 379.045746,165.361363 379.776628,165.017995 C380.508593,164.674378 381.220322,164.983172 381.220322,164.983172 L380.518607,167.620731 C379.700622,169.373587 377.985084,168.787924 377.314193,168.786328 C371.342131,168.775562 364.166961,176.828508 364.166961,176.828508 C362.73976,178.702592 362.40384,180.826066 362.40384,180.826066 C360.375546,183.613439 363.623305,183.593364 364.322876,183.618304 C365.024313,183.643049 368.014664,183.578406 368.014664,183.578406 C377.334298,183.857589 380.396825,174.551113 380.396825,174.551113 C381.131376,173.008175 381.119274,169.945535 381.119274,169.945535 C381.223613,168.314038 381.994644,165.583393 381.994644,165.583393 L383.808524,168.224452 C385.744526,170.132 385.316252,172.04454 385.316252,172.04454 C384.965909,176.578476 387.481994,184.211475 387.481994,184.211475 C388.713746,188.406729 395.037076,191.982844 395.037076,191.982844 C398.741693,193.553608 398.791356,190.403242 398.791356,190.403242 C398.829381,190.229549 398.858682,190.044973 398.88016,189.851418 C400.282059,191.084733 402.95675,192.853267 408.07176,194.977847 C407.783363,195.804806 407.497543,196.631854 407.214359,197.458878 C404.269811,196.466057 399.950703,194.782787 399.074129,193.443054 C399.097476,193.260353 400.237451,197.548945 405.962625,201.166063 C405.60238,202.248309 405.246797,203.330219 404.896006,204.411537 C403.154473,203.764766 398.448081,201.902354 397.798581,201.383177 C397.240184,200.834204 398.036513,204.071636 403.786022,207.882002 C403.251677,209.577036 402.729482,211.269931 402.219934,212.959691 C401.398476,212.954169 400.551112,213.012445 399.680808,213.147249 C399.597765,213.142467 399.878379,214.229236 401.404286,215.698707 C400.97001,217.175798 400.545648,218.65007 400.131534,220.120857 C396.349074,218.313419 393.811335,218.150556 392.852204,218.611266 C392.494461,218.842288 395.35644,221.479838 399.058525,224.009187 C398.870917,224.703255 398.68568,225.396406 398.502848,226.08857 C395.021087,224.539038 391.573296,222.838862 388.169035,220.990728 C388.179468,220.908044 390.757858,226.470147 397.279933,230.847889 C397.177737,231.257225 397.076424,231.666152 396.976001,232.074656 C394.64312,230.026852 391.233113,227.346427 386.25337,223.863135 C386.259271,223.8086 389.095892,231.595854 395.874146,236.695123 C395.663825,237.605582 395.458144,238.513614 395.257189,239.419047 C394.256751,237.589465 392.392686,235.046841 388.940554,232.134918 C388.932997,232.159009 384.730049,227.947615 383.758591,226.493886 C383.776266,226.415036 385.226842,237.460894 394.428166,243.268567 C394.401162,243.397973 394.374258,243.527321 394.347455,243.656608 C393.251199,244.336616 392.156355,245.006646 391.062593,245.665986 C391.451667,246.003084 391.841265,246.338769 392.231787,246.671458 C392.788381,246.398169 393.345434,246.121699 393.902841,245.842386 C390.810155,261.345974 389.206504,275.941827 389.54153,288.732763 L422.42498,296.324506 C421.059053,277.932362 421.366793,259.320442 423.214104,240.793781 C424.859032,240.697464 426.664555,240.530953 428.646349,240.280648 C428.638981,240.366282 426.502758,239.302029 423.492605,238.109289 C423.773173,235.506018 424.084041,232.904724 424.424836,230.306254 C427.003708,229.274952 429.845116,227.679288 431.872881,225.272456 C431.873607,225.281682 428.974975,225.618891 424.96431,226.369586 C425.075168,225.593936 425.188682,224.818578 425.304843,224.043532 C427.723092,223.305399 430.142732,222.507977 432.561144,221.651555 C432.562363,221.673146 437.698486,218.857121 439.429969,217.010607 C439.430476,217.043307 433.254211,217.240752 429.927415,218.248779 C429.926289,218.284563 428.274809,218.635205 426.057268,219.252126 C426.181955,218.492759 426.309171,217.733738 426.438908,216.975085 C431.640373,215.887304 438.539973,213.185937 444.339393,206.723544 C444.34434,206.778646 436.064866,208.445908 427.416384,211.519674 C427.552911,210.790942 427.691753,210.062599 427.832903,209.334664 C428.352951,209.10827 428.912348,208.839676 429.51343,208.522281 C429.513641,208.659828 441.691519,203.239072 444.985349,196.86895 C444.99234,197.07046 435.942416,200.220173 428.974589,203.693519 C429.167085,202.780687 429.363198,201.868579 429.562911,200.957233 C430.350987,200.54362 431.222115,200.052549 432.183305,199.469914 C432.187213,199.572048 437.293147,196.253804 441.794506,192.471274 Z M440.104484,189.675807 C439.690502,188.711996 439.41174,187.707758 439.276031,186.700008 C439.083771,185.271649 439.172845,183.919496 439.733891,182.646125 C437.417673,185.267033 434.760492,187.623656 432.249353,189.593083 C431.811616,191.318247 431.386727,193.04676 430.974802,194.778357 C433.932987,192.96237 437.210026,191.185669 440.104484,189.675807 Z M441.003097,181.137915 C441.538236,181.007851 442.105707,181.32668 442.566191,181.660324 C444.16605,182.820521 445.492732,184.305134 446.960717,185.62699 C447.085092,185.738969 447.212467,185.850436 447.342684,185.959999 C447.890563,185.665144 448.196838,185.478502 448.194476,185.421819 C448.072996,185.6972 447.919401,185.983344 447.737439,186.278311 C448.699539,187.018829 449.796576,187.594452 450.971841,187.509377 C451.314537,187.484786 451.703788,187.357967 451.808397,187.036474 C451.869175,186.849114 451.814404,186.640861 451.729009,186.459971 C451.428687,185.819594 450.794013,185.403597 450.191074,185.023359 C448.96482,184.248918 447.738567,183.474477 446.511895,182.70034 C444.992059,181.740918 443.782369,180.761376 443.353236,178.963482 C443.27893,178.651814 443.233168,178.338908 443.212447,178.026262 C442.551888,179.092405 441.807184,180.131707 441.003097,181.137915 Z M443.311871,176.412322 C443.479323,175.485293 443.819532,174.584234 444.236319,173.750278 C444.816952,172.588119 446.321648,168.862272 448.168079,170.469195 C448.613551,170.857077 448.861668,171.413279 449.0958,171.950234 C450.275122,174.650449 451.440086,177.240269 452.811697,179.874298 C453.086825,180.402564 453.346473,181.016875 453.986818,181.181983 C454.108408,181.21383 454.237422,181.226858 454.35828,181.197865 C456.447177,180.701148 451.819492,174.239295 451.366044,173.354722 C450.346696,171.367445 448.915815,169.107634 449.994277,166.908684 C450.525515,165.824605 451.310743,164.623758 452.27417,163.87584 C454.179988,162.395927 454.676698,164.260436 454.721249,166.041111 C454.816371,169.819285 455.582529,173.594509 456.974807,177.143059 C457.549583,178.608186 458.667114,178.046857 458.550519,176.711691 C458.410928,175.119614 457.383512,173.622786 456.986275,172.081731 C456.360888,169.65735 455.651502,167.15783 455.641862,164.651761 C455.638195,163.571457 455.809939,162.412297 456.562829,161.644733 C457.102291,161.095524 458.136532,160.405477 458.93957,160.368633 C460.355592,160.302613 460.366725,161.592935 460.369724,162.717195 C460.376104,165.042794 459.768704,167.313761 459.73638,169.626565 C459.710561,171.456449 459.835742,174.638057 461.284793,176.035042 C462.267792,176.982382 463.219445,176.124109 463.317791,175.063666 C463.433991,173.801658 462.750784,172.139774 462.458501,170.908599 C461.761643,167.972287 461.134708,164.968551 461.995108,162.025985 C462.343146,160.83632 463.236753,159.753536 464.354097,159.111461 L464.354097,159.111461 C466.561954,155.301429 468.511025,151.20854 470.174905,146.934732 C472.000536,145.516715 473.950931,143.807884 475.185871,142.613914 C475.457004,142.352607 475.739487,142.075644 476.028026,141.789108 C476.007124,140.91837 475.998013,140.052777 476.00036,139.193644 L472.152543,141.349185 C472.500753,140.266714 472.831144,139.173329 473.143717,138.06903 C473.499514,137.74655 473.825094,137.437496 474.113512,137.157264 C474.735616,136.557705 475.417614,135.875949 476.095501,135.185361 C476.107133,134.927048 476.119811,134.669549 476.133523,134.412905 C476.158348,133.949027 476.185975,133.485192 476.216434,133.021458 L474.161857,134.172867 C475.583664,128.234584 476.465323,122.154597 476.742029,116.169559 C476.990915,115.781595 477.224183,115.417227 477.425236,115.089624 C478.307292,113.655679 479.330562,111.863427 480.17362,110.354986 C480.380087,109.656967 480.594638,108.961534 480.817379,108.268913 L476.835296,112.080273 C476.826637,104.659081 475.845236,97.4723371 473.763485,90.9700074 C458.714884,115.428371 446.529314,142.260485 437.729577,170.277104 C440.08285,168.702295 441.717816,167.772984 441.717152,167.695481 C440.748478,170.335993 438.509615,173.388587 435.885371,176.334175 C435.271456,178.41595 434.676223,180.503723 434.099882,182.597015 C437.839753,179.831093 441.473648,177.573344 443.311871,176.412322 Z M409.566351,190.756976 C409.780265,190.161829 409.995465,189.56683 410.211931,188.972021 C410.200881,188.968482 410.195388,188.965572 410.195735,188.963336 C404.772708,188.066869 401.030699,186.674382 398.546611,185.416234 C398.729656,186.406934 398.877177,187.463063 398.916642,188.431525 C402.278326,189.317991 409.492244,190.859574 409.514111,190.748239 C409.53155,190.751146 409.548963,190.754058 409.566351,190.756976 Z M411.840212,184.564776 C412.250865,183.469638 412.665643,182.375509 413.084411,181.282658 C412.552393,181.164715 412.020928,181.043457 411.490049,180.918898 C402.083193,180.263034 396.601571,177.144472 394.990816,176.134157 C395.933223,177.486841 396.854853,179.228227 397.594207,181.455052 C397.594207,181.455052 397.785775,182.082464 398.023657,183.030707 C400.664335,183.327774 403.323637,183.545989 405.997661,183.68478 C408.223775,183.883134 410.16529,184.196061 411.840212,184.564776 Z M414.318855,178.094329 C414.680649,177.169412 415.045222,176.245603 415.41249,175.323067 C414.39582,175.157944 413.38108,174.980819 412.368489,174.791706 C411.985665,175.034712 410.684838,175.816269 408.886146,176.426693 C411.051721,176.892471 412.858431,177.48969 414.318855,178.094329 Z M416.184262,173.39617 C416.241255,173.25473 416.29831,173.113324 416.355426,172.97195 C415.874139,171.95518 415.394186,170.933682 414.915852,169.907252 C412.510211,169.362985 410.116819,168.749883 407.737289,168.069097 C407.387147,168.022602 407.044365,167.973795 406.708815,167.922855 C408.161487,168.663749 409.605918,169.685955 410.954901,171.081707 C410.954901,171.081707 411.194701,171.256862 411.511555,171.535915 C414.044126,172.192534 415.458878,172.905853 416.184262,173.39617 Z M417.007107,171.366964 C417.615216,169.876711 418.23011,168.390427 418.851439,166.908813 C417.609668,168.38108 416.761919,169.302851 416.762081,169.275829 C416.646418,169.53089 416.530924,169.785828 416.415383,170.041058 C416.612368,170.483787 416.809624,170.925764 417.007107,171.366964 Z M424.246944,154.516011 C434.373074,132.096043 445.801208,111.265452 457.231484,94.6178911 C453.135433,97.373384 448.692225,99.9447545 443.913243,102.295428 C440.223602,104.110474 436.282989,105.83555 432.147834,107.437794 L432.168828,107.558714 C431.463095,108.310431 430.764781,109.074062 430.078593,109.843892 C429.871326,109.399831 429.649865,108.935869 429.421957,108.46573 C428.778272,108.701895 428.13034,108.935031 427.478363,109.165023 L428.011055,112.236316 C425.183141,115.602454 422.545507,119.128127 420.135076,122.770858 L419.844898,122.119034 C418.341298,118.823944 415.828137,114.058113 415.828137,114.058113 L417.936979,126.227998 C414.070093,132.567441 410.91236,139.18281 408.666527,145.797897 C408.612997,145.596591 408.560845,145.388248 408.510132,145.173071 C408.274023,146.01007 408.02307,146.825856 407.771038,147.599136 C408.10085,147.51822 408.437648,147.445123 408.781557,147.38038 C410.860878,140.493877 414.859808,138.702038 414.862948,138.668742 C414.528061,141.462805 413.693614,144.416092 412.737974,147.096755 C413.135945,147.065252 413.504664,147.016028 413.764101,146.940154 C413.764101,146.940154 414.733546,146.543652 415.139499,147.05349 C417.783145,143.671941 420.474734,142.635014 420.479113,142.59716 C419.218301,146.707313 415.863053,152.615105 413.582502,156.371529 C413.535225,156.451203 413.486693,156.531004 413.436874,156.610886 C412.202034,158.636117 411.316733,159.977386 411.316997,159.966759 C411.217749,160.181475 411.119746,160.396837 411.021036,160.611937 C411.634472,161.572181 412.249818,162.525096 412.867763,163.471989 C413.311216,152.207198 423.555459,145.555899 423.561403,145.464517 C422.665193,152.411602 414.27255,164.170918 414.271789,164.12471 C414.120453,164.361253 413.96921,164.597211 413.818551,164.833263 C414.427592,165.986586 415.039065,167.134009 415.652247,168.273474 C417.252907,162.35303 421.145912,157.57722 424.246944,154.516011 Z M394.746394,175.792472 C392.420886,172.626382 390.053965,171.76464 390.053965,171.76464 C387.100499,170.72666 385.891458,169.443615 385.891458,169.443615 L382.72713,165.355953 L389.802739,167.771769 C391.042112,168.143813 392.011033,169.348596 392.376637,169.859506 C392.013485,169.869862 391.730898,169.888706 391.564051,169.918699 C391.571712,169.875707 392.045473,170.270152 393.124814,170.839477 C395.067817,173.171573 397.346053,174.740384 398.689324,175.546499 C397.436109,175.57854 396.122073,175.657832 394.746394,175.792472 Z M399.186097,166.116401 C396.390776,166.06896 394.429205,166.641656 394.429205,166.641656 C392.64287,167.041606 391.393567,167.281647 391.393567,167.281647 C389.867029,167.096003 383.442549,164.698204 383.442549,164.698204 C383.828103,164.707269 391.995972,163.643676 391.995972,163.643676 C392.545741,163.479678 393.176201,163.417716 393.7084,163.399609 C394.744697,164.140404 396.48239,165.167182 399.186097,166.116401 Z M401.493286,163.3762 C403.451798,163.065451 405.044015,162.595186 405.791409,162.352778 C408.764153,163.566585 411.675731,164.720794 412.335998,164.927643 C412.989354,165.893761 413.644466,166.851627 414.301518,167.802918 C414.289334,167.8726 408.351899,164.983527 401.493286,163.3762 Z M397.964782,153.794827 C397.467096,154.383306 397.017862,154.977869 396.613639,155.563827 C396.124945,155.688322 395.67699,155.90696 395.301805,156.250641 C395.291186,156.288329 391.877586,156.390439 389.445728,156.734818 C389.739034,156.417524 389.913068,156.228966 389.913068,156.228966 C390.645774,156.118008 391.661712,155.015727 391.661712,155.015727 C392.876544,154.41356 393.941343,153.639762 394.868922,152.782498 C396.091206,153.254581 397.185346,153.62553 397.964782,153.794827 Z M394.579521,159.113867 C393.774485,160.830106 393.45109,162.025908 393.45109,162.025908 C393.416239,162.133169 393.300055,162.236037 393.118438,162.33437 C392.884868,162.337917 392.652583,162.344991 392.421786,162.355765 C392.425039,162.340536 392.491856,162.407293 392.635434,162.537905 C390.305801,163.339039 383.855646,163.786945 383.855646,163.786945 C383.180858,163.95459 383.142467,163.477679 383.142467,163.477679 C383.99432,162.612956 386.742488,159.654667 388.464533,157.795258 C389.826622,158.209713 392.107658,158.813236 394.579521,159.113867 Z M398.824813,147.469261 C398.864001,147.393972 398.902303,147.31938 398.939729,147.245548 C398.97395,147.395071 399.009156,147.546074 399.045366,147.69857 C398.971828,147.622206 398.898309,147.54577 398.824813,147.469261 Z M389.330644,148.012477 C389.331689,148.240668 389.333663,148.461741 389.336388,148.675077 C388.386012,148.529665 387.340311,148.393322 386.515514,148.352005 C386.52334,148.099326 386.518816,147.962006 386.518816,147.962006 C386.525268,147.545651 386.520091,147.136109 386.504045,146.733382 C387.438964,147.164717 388.416427,147.608551 389.330644,148.012477 Z M389.378348,150.427837 C389.416498,151.500701 389.463222,152.132689 389.463222,152.132689 C390.167651,154.607416 389.118412,155.815888 389.118412,155.815888 C388.872475,156.190677 388.605709,156.563119 388.325362,156.929443 C387.770609,157.050168 387.3508,157.192274 387.162513,157.359678 C387.160814,157.363817 387.391716,157.451051 387.803501,157.586436 C385.520261,160.362072 382.682826,162.631679 382.682826,162.631679 C382.560074,161.932807 384.542028,155.954458 384.542028,155.954458 C385.950497,153.059039 386.358777,150.449076 386.475008,149.046243 C387.210681,149.410681 388.231794,149.899948 389.378348,150.427837 Z M476.855324,152.319365 C473.318125,155.582919 469.848051,158.256777 466.865,160.17775 C465.394332,164.009016 465.51397,167.683115 465.979664,171.762887 C466.062818,172.493281 466.248233,173.363543 466.943167,173.639863 C467.224122,173.750271 467.160538,166.280264 467.239891,165.49637 C467.541023,162.533727 468.579092,159.322711 471.772481,158.414783 C472.540926,158.19658 474.185661,157.832056 473.93062,159.115025 C473.775981,159.890327 473.292706,160.54767 472.864186,161.209982 C471.744767,162.93812 470.336169,165.213267 470.36495,167.371717 C470.377599,168.276081 470.96298,169.989862 472.205353,169.416462 C473.543687,168.798276 473.123189,165.402901 473.431159,164.204221 C474.082183,161.673812 475.689826,159.75481 478.057147,159.222512 C477.5645,156.937162 477.165838,154.628489 476.855328,152.319362 L476.855324,152.319365 Z M481.411432,170.558867 C479.598584,171.185529 477.597193,171.493142 476.143766,171.788315 C475.773401,171.863695 475.390751,171.944164 475.087203,172.163425 C474.783656,172.382687 474.580942,172.78121 474.708157,173.137569 C474.884093,173.6305 475.231441,173.899164 475.69439,174.001369 C477.194586,174.333193 479.903423,172.916515 481.882989,171.74205 C481.722211,171.349888 481.565037,170.955445 481.411432,170.558867 L481.411432,170.558867 Z M483.197065,174.72306 C481.754654,175.388072 480.48827,175.92072 478.855008,176.103402 C477.991481,176.199536 471.72285,176.815899 472.959472,178.65171 C473.219077,179.037184 473.774622,179.050378 474.236987,179.020673 C477.682538,178.797703 480.778753,177.530769 483.937302,176.403303 C483.962167,176.394448 483.987102,176.385582 484.012106,176.376751 C483.732371,175.831552 483.46073,175.280168 483.197065,174.72306 L483.197065,174.72306 Z M477.610486,140.187984 C479.610242,138.133106 481.449597,136.140989 481.449597,136.140989 L477.59166,138.3022 C477.59106,138.931006 477.597339,139.559643 477.610486,140.187984 L477.610486,140.187984 Z M477.729713,133.498506 C479.21401,131.948706 480.379711,130.68831 480.379711,130.68831 L477.816844,132.12457 C477.784357,132.582693 477.755293,133.040704 477.729713,133.498506 L477.729713,133.498506 Z M161.345657,207.95645 C162.3289,205.82198 162.536118,203.958515 162.72357,203.603519 C163.101349,202.888587 163.855598,202.706872 163.855598,202.706872 L164.587648,204.509538 C163.519756,205.703817 162.4386,206.851873 161.345657,207.95645 L161.345657,207.95645 Z M164.803544,206.512948 C164.605378,206.998266 164.224441,207.332393 163.852686,207.582904 C164.171358,207.229382 164.488321,206.872714 164.803544,206.512948 L164.803544,206.512948 Z M165.259381,203.750169 C165.001764,203.148885 164.835221,202.72023 164.835221,202.72023 L165.855767,203.062071 C165.657456,203.293096 165.458658,203.522456 165.259381,203.750169 L165.259381,203.750169 Z M166.41376,202.406084 L165.283334,202.097768 L167.190611,201.472582 C166.932537,201.786691 166.673579,202.097844 166.41376,202.406084 L166.41376,202.406084 Z M168.120709,200.322821 C166.64991,200.788362 165.458849,201.141916 165.458849,201.141916 C165.772222,200.917124 171.655286,195.152155 171.655286,195.152155 C171.958731,194.740422 172.3622,194.35486 172.739617,194.038857 C172.077455,195.013939 171.399563,195.97787 170.705752,196.929879 C169.855243,198.096878 168.993267,199.227315 168.120709,200.322821 L168.120709,200.322821 Z M186.464563,166.865152 L183.244033,154.742387 L188.354612,160.502994 C189.111495,157.596628 189.887747,154.226105 190.660253,150.332095 L185.923832,141.910141 L191.750072,144.458853 C192.30887,141.266163 192.851709,137.767717 193.377866,133.959415 L184.226469,127.309284 L193.95693,129.13576 C194.056483,128.002281 194.124762,126.882769 194.152864,125.774569 C194.497284,126.310026 194.840758,126.848376 195.183276,127.389564 C195.158245,127.659295 195.132707,127.92922 195.10667,128.199332 C193.882085,140.910032 191.094767,154.182138 186.464565,166.865146 L186.464563,166.865152 Z M197.390563,110.5644 C207.10721,123.33772 216.664717,138.022668 225.681513,153.817116 L225.681517,153.817123 C225.642207,153.171911 225.705587,152.526619 225.887414,151.913487 C226.420489,150.119187 227.225084,151.117821 228.034996,151.832569 C232.060351,155.384805 236.606163,156.878566 241.810008,158.126751 C242.731664,158.348104 243.86789,158.507237 244.509165,157.787075 C244.766845,157.495345 235.687735,154.278068 234.772922,153.836217 C231.316022,152.164805 227.883174,149.490947 228.191384,145.22126 C228.265886,144.193941 228.549547,142.040332 229.991588,142.915151 C230.86279,143.444434 231.446135,144.319888 232.059648,145.131191 C233.659884,147.24966 235.795376,149.959747 238.423365,150.876765 C239.52472,151.260269 241.859387,151.306778 241.712518,149.548577 C241.553704,147.654355 237.254239,146.666472 235.93767,145.764693 C232.544282,143.438741 230.884667,139.786451 232.511243,135.86494 C231.045905,134.991707 229.585621,134.102034 228.154051,133.20417 L223.282842,122.726302 L223.39183,130.112775 C221.377921,128.760177 219.490325,127.406441 217.803879,126.093323 C216.819877,125.319983 215.33673,123.987925 213.497873,122.240939 L210.053747,109.381034 L208.147317,117.008751 C205.188406,114.051672 201.846829,110.646374 198.393816,107.087419 L197.920129,97.1064745 C197.920129,97.1064745 197.45518,97.7545719 196.841075,98.6148545 C196.979335,100.094463 197.091083,101.59277 197.17564,103.109199 C197.31076,105.530565 197.382961,108.020062 197.390563,110.5644 L197.390563,110.5644 Z M195.983263,108.729231 C193.583794,105.625562 191.175768,102.640473 188.764905,99.7859896 C187.882852,97.8449312 186.927199,95.9887093 185.922009,94.234216 C186.706904,93.5674438 187.460333,93.1048885 188.04067,93.1674122 C188.604646,93.2328206 189.346986,92.6834539 190.085161,91.847386 L188.987772,97.2950367 C190.653157,99.0387946 192.348865,100.811022 194.047941,102.578428 C194.323171,102.16737 194.920426,101.317528 195.565347,100.407621 C195.802068,103.126217 195.937153,105.903836 195.983263,108.729231 L195.983263,108.729231 Z M74.0109078,243.972651 C73.3759183,243.146462 72.7143307,242.278432 72.0309908,241.382755 C70.414528,241.674393 68.1089292,242.111227 68.1089292,242.111227 L71.7596617,244.026539 C72.5078107,244.017347 73.2582648,243.999336 74.0109078,243.972651 L74.0109078,243.972651 Z M74.5551754,243.951859 L76.5800361,238.805975 L77.2502831,243.805543 C76.3489961,243.866349 75.4505636,243.915201 74.5551806,243.951858 L74.5551754,243.951859 Z M98.2665119,240.439424 C98.1750796,240.234077 98.082861,240.027609 97.989855,239.820019 L89.0408374,239.193438 L96.352229,236.332714 C95.9428551,235.528601 95.518319,234.747023 95.0715169,233.989937 C98.2094039,235.469849 101.374653,237.060378 104.557452,238.751036 C102.455077,239.362786 100.357365,239.926485 98.2665119,240.439424 L98.2665119,240.439424 Z M117.823222,234.294179 C104.901714,227.854786 92.2562875,222.546033 80.5268232,218.776508 C79.1179378,217.841791 77.6952062,216.995056 76.2819103,216.237552 C76.5295621,215.459302 76.8418718,214.831613 77.2584292,214.629785 C77.6651966,214.436772 77.9335672,213.755362 78.0786559,212.882892 L79.6299256,217.007658 C81.4826993,217.480507 83.367829,217.95976 85.2531973,218.434356 C85.2867645,217.369121 85.5577996,213.127186 85.5577996,213.127186 L90.0706707,219.640429 C93.8884483,220.582801 97.5667118,221.468666 100.799272,222.213907 L98.8759591,216.283037 L106.596316,223.48414 C108.567107,223.886262 110.124313,224.158821 111.111049,224.265392 C112.797017,224.439781 114.63533,224.556956 116.558112,224.620285 L113.380785,219.698597 L121.059863,224.698047 C123.758405,224.702542 126.521297,224.63577 129.190285,224.533612 L127.226485,219.803027 L133.248357,224.340107 C135.919801,224.193804 138.399339,224.02125 140.503762,223.857725 C133.73057,227.744551 126.865081,230.746917 120.186502,233.380047 C119.398811,233.690559 118.611016,233.995318 117.823229,234.294183 L117.823222,234.294179 Z M460.292616,90.2601573 C461.644712,88.3800776 462.995212,86.5618787 464.341957,84.8098648 C453.803699,88.9426277 443.626048,96.0669079 434.758065,104.896595 C441.130697,102.272669 447.087659,99.3019268 452.416243,95.8834278 C455.226926,94.0800451 457.840507,92.2022844 460.292616,90.2601573 L460.292616,90.2601573 Z M434.557066,104.979187 C434.433207,104.694129 434.315321,104.432124 434.205677,104.183354 C432.700586,100.89472 430.184207,96.128146 430.184207,96.128146 L431.904807,106.038064 C432.796325,105.691453 433.680595,105.338581 434.557066,104.979187 L434.557066,104.979187 Z M428.804877,107.208063 C427.537838,104.653421 426.283548,102.276182 426.283548,102.276182 L427.237176,107.774431 C427.76185,107.58757 428.284451,107.398797 428.804877,107.208063 L428.804877,107.208063 Z M409.40252,113.149255 C411.138416,104.49247 414.118688,95.5373363 418.79891,87.8145412 C415.863817,88.8846145 412.96033,90.0673901 410.109249,91.3608697 C410.772913,88.0017023 411.395691,84.0414639 411.395691,84.0414639 L406.918801,92.8616154 C404.29428,94.1427972 401.723419,95.5145713 399.214888,96.9687393 L399.262348,96.7484841 C400.03262,93.2065178 400.868884,87.8810918 400.868884,87.8810918 L394.935403,99.574733 C394.462261,99.8769213 393.992337,100.179853 393.525631,100.483527 C394.284757,96.945788 395.103338,91.7556869 395.103338,91.7556869 L389.128698,103.52483 C384.803987,106.664412 380.775452,110.062781 377.154304,113.664008 C379.034906,104.434798 389.161957,84.4480353 404.668585,70.2795897 C392.166407,75.775892 379.718251,80.6132822 367.14571,84.2587968 C368.277962,86.6791631 369.186476,89.1465602 369.803057,91.6373949 C370.957057,96.2013949 371.050057,100.801395 370.271057,104.917395 C370.082057,105.947395 369.842057,106.948395 369.562057,107.918395 C369.296057,108.835395 369.020057,109.835395 368.660057,110.737395 C367.961057,112.557395 367.123057,114.196395 366.328057,115.736395 C366.057605,116.252558 365.791941,116.759261 365.533928,117.257314 C380.352945,118.229882 395.396251,116.547308 409.40252,113.149255 L409.40252,113.149255 Z M363.844122,117.13477 C364.1737,116.435245 364.517311,115.726509 364.866057,115.007395 C365.611057,113.454395 366.379057,111.839395 366.988057,110.120395 C367.307057,109.258395 367.520057,108.394395 367.779057,107.425395 C368.021057,106.505395 368.228057,105.558395 368.387057,104.588395 C369.035057,100.709395 368.879057,96.4413949 367.741057,92.1643949 C367.102795,89.7181071 366.162404,87.2796414 364.986124,84.8728145 C352.269728,88.4161318 339.415963,90.7118858 326.240875,91.2105542 C318.496784,91.5046346 310.710826,91.4301951 302.919913,90.957441 C314.199432,101.004654 327.976694,110.118569 347.208243,114.588428 C352.668727,115.857519 358.236885,116.689266 363.844122,117.13477 L363.844122,117.13477 Z M254.659918,82.5953336 L254.198262,82.5926078 L254.366826,82.5087246 C254.464512,82.5376694 254.562209,82.566539 254.659918,82.5953336 L254.659918,82.5953336 Z M228.807134,72.9404609 L227.279995,74.1719435 L228.04731,72.5802353 C228.300443,72.7011246 228.553719,72.8211983 228.807134,72.9404609 L228.807134,72.9404609 Z M216.225102,66.2543838 L212.197585,71.9365221 L214.273649,65.070394 C214.922708,65.4712445 215.573214,65.8658807 216.225102,66.2543838 L216.225102,66.2543838 Z M208.646395,61.4115398 C207.39038,61.4687699 206.151062,61.5635118 204.92985,61.6910121 L199.832316,69.9955353 L201.222138,62.188383 C198.450094,62.6348991 195.788289,63.2521919 193.264134,63.980477 C195.587829,62.1631585 197.807847,60.4275258 199.782981,58.8576556 L194.324017,56.7894648 L200.993371,55.8012936 C203.514948,57.779648 206.067381,59.6479573 208.646395,61.4115398 L208.646395,61.4115398 Z M185.101927,41.9727547 C184.646822,42.3310027 184.202708,42.6955114 183.769301,43.0656254 L185.789758,52.0129744 L181.750563,45.3448649 L183.659442,43.4231561 C183.86492,42.5493634 184.040891,41.763247 184.182262,41.0798651 C184.488292,41.3794865 184.794879,41.6770972 185.101927,41.9727547 L185.101927,41.9727547 Z M437.074907,54.6870111 C442.373857,54.2886276 447.911268,54.8966971 453.640067,56.7833827 C451.591441,54.0618315 449.384535,51.4395245 447.049398,48.9532801 C443.745878,50.97224 440.418948,52.8736807 437.074907,54.6870111 L437.074907,54.6870111 Z M451.178665,46.3581544 C452.617099,46.1338714 453.672403,45.954473 453.672403,45.954473 L452.145582,45.7287741 C451.823531,45.9398394 451.501224,46.1496235 451.178665,46.3581544 L451.178665,46.3581544 Z M178.422718,169.309571 C177.468667,167.057905 176.389893,164.455142 175.27389,161.655509 L178.178504,152.896485 L173.464113,157.012133 C172.295939,153.950648 171.140245,150.768607 170.08465,147.628094 L172.878521,136.758193 L168.410168,142.364856 C167.733984,140.108516 167.150689,137.924563 166.691101,135.892105 C166.42349,134.709237 166.132351,132.795022 165.829762,130.337543 L171.159773,118.568164 L165.031263,123.106465 C164.880492,121.581744 164.730179,119.963948 164.573113,118.283938 C162.64958,117.515637 159.892059,116.442102 159.892059,116.442102 L164.933608,125.063874 C163.983556,129.936036 163.042597,134.620607 162.169572,138.709875 L156.417668,133.354014 L160.543353,146.013429 C159.95357,148.480312 159.442563,150.413385 159.034095,151.588654 C158.338336,153.621935 157.492238,155.783174 156.548474,158.012357 L152.604906,151.766993 L154.213774,163.005753 C154.484352,163.041923 154.776836,163.114763 155.092059,163.227865 C155.092059,163.227865 162.796346,164.758515 166.478136,174.576774 C166.478136,174.576774 169.359903,182.15354 166.195905,188.462731 C166.195905,188.462731 166.04791,189.954458 165.529521,190.484027 C165.529521,190.484027 164.723419,198.551295 164.484663,200.347756 C164.484663,200.347756 164.802335,200.705529 165.240354,200.165545 C165.240354,200.165545 172.227196,194.097903 171.843798,192.984436 C171.843798,192.984436 166.624584,179.979464 176.458711,170.867712 C176.458711,170.867712 177.62491,170.045408 178.422718,169.309571 L178.422718,169.309571 Z M151.669015,168.570357 C151.02635,169.868111 150.375976,171.15524 149.726967,172.420296 L145.367073,167.664385 L147.352735,176.964482 C147.158217,177.329088 146.964796,177.690192 146.772723,178.047444 C150.430776,179.194478 154.592348,181.467913 157.843571,185.92445 C157.843571,185.92445 160.154781,188.790113 161.074815,193.497167 C161.074815,193.497167 163.089816,199.464459 163.608442,199.948728 C163.608442,199.948728 164.919257,194.82279 164.646284,190.632364 C164.646284,190.632364 164.756967,189.035788 162.705057,187.483318 C162.705057,187.483318 154.93907,178.621134 152.170015,170.466253 C151.95674,169.837985 151.78791,169.198126 151.669015,168.570357 L151.669015,168.570357 Z M142.063739,186.561919 C140.9654,188.494959 140.070085,190.03508 139.482965,191.036014 C141.778637,190.400114 144.440384,190.117299 146.979751,190.911452 C146.979751,190.911452 153.727389,192.521802 157.607485,197.340435 C157.607485,197.340435 159.146502,198.757733 160.751683,199.685899 L162.987427,200.863295 C162.987427,200.863295 161.260937,196.482496 160.826864,195.491678 C160.826864,195.491678 160.547842,194.341868 158.436311,194.094709 C158.436311,194.094709 147.974974,191.727005 142.063739,186.561919 L142.063739,186.561919 Z M244.561651,190.178475 C244.263562,189.5464 243.964337,188.915042 243.663994,188.284444 C244.639416,187.883402 245.54364,187.260808 246.477016,186.538447 C247.955972,185.393544 249.435113,184.249281 250.914253,183.105019 C251.64087,182.542152 252.42481,181.956604 253.33317,181.875127 C253.590005,181.851431 253.866491,181.876908 254.066703,182.033177 C254.410108,182.301708 254.392107,182.829273 254.270771,183.255348 C253.739052,185.12696 251.951112,186.36532 250.221038,187.2853 C248.349716,188.280231 246.385007,189.106935 244.561651,190.178475 L244.561651,190.178475 Z M238.820648,178.374565 C238.49564,177.726346 238.169528,177.079191 237.842336,176.433146 C240.281466,175.918943 248.40708,173.869471 248.116839,176.368737 C248.09867,176.527962 248.025988,176.678537 247.933778,176.811817 C247.451328,177.51488 246.59249,177.55857 245.831081,177.65896 C243.460972,177.971295 241.14726,178.193641 238.820648,178.374565 L238.820648,178.374565 Z M234.82483,170.565284 C234.499706,169.942594 234.17362,169.321095 233.846593,168.700829 C235.307644,168.897473 236.781929,169.023887 238.230195,169.164244 C240.272606,169.362544 242.539342,168.777781 244.529949,169.310761 C246.199128,169.758305 246.386427,171.359916 244.357719,171.410216 C241.152551,171.489815 237.948009,171.204078 234.82483,170.565284 L234.82483,170.565284 Z M230.046892,161.627236 C229.537542,160.696545 229.026185,159.769112 228.512896,158.845088 C231.650951,161.031041 235.460585,161.577939 239.222051,162.016437 C240.842708,162.205246 243.157636,162.110337 244.635509,162.807684 C245.877029,163.394508 246.497274,164.926087 244.915917,165.699359 C242.584213,166.839029 238.673998,165.587596 236.468196,164.749322 C234.242568,163.903854 232.210853,162.626121 230.046892,161.627236 L230.046892,161.627236 Z M246.647553,143.791445 C247.606472,144.301308 248.522638,144.78359 249.385508,145.234222 C249.314456,146.088489 249.137039,146.823692 248.806529,147.343043 C248.478528,147.858903 247.999818,148.161287 247.324967,148.157075 C246.837081,148.154059 246.443606,147.732688 246.311803,147.268198 C246.18,146.803707 246.25125,146.30458 246.32325,145.822583 C246.415374,145.207637 246.531455,144.521914 246.647553,143.791445 L246.647553,143.791445 Z M252.237293,146.709622 C253.292732,147.250453 254.206589,147.712845 254.94568,148.083991 C254.785202,149.165591 254.560426,150.245203 254.245468,151.322455 C254.077554,151.895782 253.816569,152.563092 253.235021,152.707647 C251.264986,153.197541 251.716955,149.358867 252.237293,146.709622 L252.237293,146.709622 Z M373.251883,2.03075535 C372.706267,2.47226445 370.49183,4.48289712 370.49183,4.48289712 C363.275053,10.3864255 367.069331,19.41931 367.069331,19.41931 C367.527217,21.0656891 369.545623,23.3691535 369.545623,23.3691535 C370.537236,24.6689125 371.746796,27.2355985 371.746796,27.2355985 L368.645153,26.4323774 C365.932569,26.2628649 365.001053,24.5384796 365.001053,24.5384796 C362.29093,20.8868287 355.384319,16.7768319 355.384319,16.7768319 C351.702369,14.4187352 344.58395,15.8682848 344.58395,15.8682848 C340.757525,17.113262 342.786871,19.5234546 342.786871,19.5234546 C344.224028,22.1537577 349.560911,25.4913396 349.560911,25.4913396 C356.723509,29.7328092 361.609086,27.8579419 361.609086,27.8579419 C364.519071,26.7036678 366.2733,26.8787911 366.2733,26.8787911 L371.343196,27.8878028 L364.418249,30.7065812 C362.907158,31.3885753 360.834348,30.7477295 360.834348,30.7477295 C355.877601,29.6726788 351.316929,30.946963 351.316929,30.946963 C344.772549,32.6842441 342.744022,40.3462283 342.744022,40.3462283 C342.115216,42.4395972 346.282994,42.0856062 346.282994,42.0856062 C356.294322,42.9572895 361.668031,34.5947223 361.668031,34.5947223 C362.753804,33.1209352 363.539184,32.1201582 363.539184,32.1201582 C364.81307,31.2587658 371.234784,28.8535697 371.234784,28.8535697 C370.937856,29.0996746 365.471267,35.2609823 365.471267,35.2609823 C364.776486,36.356203 363.428328,37.328407 363.428328,37.328407 C358.751838,40.07381 355.661716,45.7064253 355.661716,45.7064253 C350.922826,54.2404611 356.471476,60.5270721 356.471476,60.5270721 C357.189943,61.181389 358.187169,62.3992732 358.187169,62.3992732 C359.153861,63.829056 360.001148,62.148468 360.001148,62.148468 C360.530501,61.3238534 362.37354,59.8213395 362.37354,59.8213395 C371.548108,50.0457894 365.434427,37.4365709 365.434427,37.4365709 C364.974291,36.35256 371.520856,29.8123217 371.520856,29.8123217 C371.920141,29.2430978 372.261996,29.57784 372.261996,29.57784 C372.149136,31.3865798 371.907742,39.490427 371.907742,39.490427 C371.427556,40.0548668 371.38398,41.5532839 371.38398,41.5532839 C368.667795,48.0678156 372.071071,55.425103 372.071071,55.425103 C376.428779,64.9626158 384.221072,65.952114 384.221072,65.952114 C388.129291,67.0534557 388.290177,62.4839208 386.631074,58.5275268 C383.299909,50.5856694 374.934644,42.2868011 374.934644,42.2868011 C372.779438,40.8812479 372.77848,39.2808401 372.77848,39.2808401 C372.213863,35.1196632 373.163917,29.9147736 373.163917,29.9147736 C373.715061,30.3616855 376.141411,36.1738821 376.141411,36.1738821 C377.387551,40.8052921 379.89303,43.5027518 379.89303,43.5027518 C388.036794,53.1695857 400.148868,51.069304 400.148868,51.069304 C403.284932,50.257928 396.912264,42.8800898 396.912264,42.8800898 C390.974438,37.2786859 378.731805,35.3937427 378.731805,35.3937427 C376.608176,35.2944793 376.249628,34.1669334 376.249628,34.1669334 C375.747496,33.2088086 373.719622,28.9591143 373.719622,28.9591143 L376.032051,29.9776846 C377.698068,30.791618 379.332201,32.0981079 379.332201,32.0981079 C383.538976,36.6343405 390.38251,37.7700768 390.38251,37.7700768 C396.968764,39.3350603 403.859003,33.8897639 403.859003,33.8897639 C406.04362,32.7223166 404.049695,31.8883806 404.049695,31.8883806 C403.053817,31.7109816 400.972825,29.6336418 400.972825,29.6336418 C395.260887,23.8162874 387.976293,25.7882787 387.976293,25.7882787 C388.009323,25.7734305 388.043229,25.7582101 388.075886,25.7424849 C391.541114,24.0689191 393.333159,16.6325569 393.333159,16.6325569 C394.864752,14.3017135 391.090753,14.7435925 391.090753,14.7435925 C385.016498,13.4411293 380.575562,15.326195 380.575562,15.326195 C374.098369,18.6355643 374.118022,25.468515 373.791688,26.2071599 C373.4647,26.9467034 372.724964,27.1805895 372.724964,27.1805895 L371.524161,24.7296318 C370.991525,22.8700885 372.670488,22.1865995 373.177863,21.7476602 C377.692099,17.8377597 377.82406,7.05278952 377.82406,7.05278952 C377.671672,4.7020724 376.532071,2.87908303 376.532071,2.87908303 C376.234162,-0.555255106 373.796218,1.59061798 373.251883,2.03075535 Z" id="palms-bg" sketch:type="MSShapeGroup"></path>
            </g>
        </g>
    </g>
</svg>