<?xml version="1.0" encoding="UTF-8" standalone="no"?>
<svg width="1319px" height="222px" viewBox="0 0 1319 222" version="1.1" xmlns="http://www.w3.org/2000/svg" xmlns:xlink="http://www.w3.org/1999/xlink" xmlns:sketch="http://www.bohemiancoding.com/sketch/ns">
    <!-- Generator: Sketch 3.3.3 (12072) - http://www.bohemiancoding.com/sketch -->
    <title>palms-mounts</title>
    <desc>Created with Sketch.</desc>
    <defs>
        <linearGradient x1="49.7879361%" y1="98.1754225%" x2="44.188686%" y2="50%" id="linearGradient-1">
            <stop stop-color="#654B71" stop-opacity="0" offset="0%"></stop>
            <stop stop-color="#534471" offset="100%"></stop>
        </linearGradient>
    </defs>
    <g id="Page-1" stroke="none" stroke-width="1" fill="none" fill-rule="evenodd" sketch:type="MSPage">
        <g id="Product" sketch:type="MSArtboardGroup" transform="translate(-77.000000, -394.000000)" fill="url(#linearGradient-1)">
            <g id="palms-mounts" sketch:type="MSLayerGroup" transform="translate(77.000000, 394.000000)">
                <path d="M130.998953,118.150849 C138.623055,107.592786 153.349923,94.8167807 168.945544,101.83504 C167.799703,99.9257999 166.517202,98.0834736 165.124465,96.3484097 L165.510327,96.350759 C167.1373,96.3411215 169.556245,96.1869053 169.556245,96.1869053 L163.730898,94.6902654 C163.277658,94.1757487 162.815541,93.6710433 162.343923,93.1832869 C163.891184,93.1443641 165.71829,93.0271687 165.71829,93.0271687 L160.97033,91.8077534 C159.387743,90.2940815 157.72304,88.9230897 156.004284,87.7356906 C161.459564,87.816312 177.121164,93.0785196 182.287941,103.848331 C188.832502,97.6147297 201.526013,99.0590055 205.26237,100.762813 C203.94177,100.979045 202.60247,101.302808 201.269281,101.720587 C200.625156,101.574164 199.914458,101.450774 199.433303,101.389877 C198.363192,101.251186 196.762723,101.141274 196.762723,101.141274 L199.609367,102.294245 C199.06892,102.49602 198.530501,102.713198 197.996312,102.9447 C197.477831,102.837863 196.955836,102.751876 196.574856,102.703414 C195.505252,102.568574 193.904276,102.454811 193.904276,102.454811 L196.646692,103.56454 C195.214031,104.260565 193.820872,105.054751 192.492536,105.937432 L192.429595,105.928628 C191.358353,105.793224 189.75845,105.681668 189.75845,105.681668 L191.709522,106.471122 C190.645747,107.218798 189.63178,108.024065 188.680904,108.874953 C202.484569,108.015842 214.523595,123.995689 216.525508,129.879821 C214.539602,128.355951 212.335007,126.982882 209.988219,125.783276 L209.933761,125.648717 C209.212752,123.889434 207.989368,121.343204 207.989368,121.343204 L208.486042,125.047287 C207.272571,124.478721 206.026814,123.956023 204.756395,123.483656 C204.601507,123.055327 204.450107,122.659448 204.316582,122.334062 C203.595007,120.576423 202.373262,118.030756 202.373262,118.030756 L203.021528,122.875264 C201.273258,122.289831 199.488266,121.805723 197.694016,121.417691 C208.31027,135.49956 199.549792,159.552753 194.659666,165.771468 C194.866866,163.179228 194.867874,160.493931 194.674073,157.778321 C195.409573,156.669451 196.410729,154.256843 196.879263,152.896123 C197.498315,151.098264 198.263837,148.374743 198.263837,148.374743 L194.32584,154.287115 C194.065743,152.28029 193.706544,150.263238 193.247946,148.263431 C193.912427,147.030843 194.666888,145.180345 195.055069,144.052986 C195.673556,142.25677 196.440717,139.533813 196.440717,139.533813 L192.526696,145.408485 C191.616601,142.122707 190.448135,138.906054 189.045434,135.858744 C185.656129,147.208171 172.702747,156.034639 167.532149,157.612692 C169.446762,155.277481 171.160889,152.625077 172.628815,149.777606 C173.659085,149.137878 174.770398,148.353263 175.480194,147.798038 C176.978241,146.630045 179.103208,144.764321 179.103208,144.764321 L173.96693,146.971835 C174.207967,146.426158 174.440304,145.87381 174.663944,145.31479 C174.867262,145.166049 175.054079,145.022656 175.219926,144.892264 C176.717973,143.72427 178.844013,141.860754 178.844013,141.860754 L175.408807,143.337826 C176.476265,140.317537 177.269675,137.193694 177.742248,134.086216 C177.893377,133.897447 178.035065,133.720132 178.157927,133.560233 C179.318139,132.053488 180.911021,129.715952 180.911021,129.715952 L178.015155,131.957774 C178.417596,128.085343 178.29966,124.281893 177.570092,120.77519 C155.01302,150.063061 140.666298,187.753313 139.523477,225.102198 L125.261635,220.191452 C120.723686,220.639319 116.157906,221.461585 111.826658,222.434718 C110.465309,181.258095 101.37352,131.361496 85.3645419,94.9786089 C85.2073988,95.8304083 85.0178674,96.6860262 84.8024935,97.5486013 L77.5164286,94.9496906 L83.7660128,101.200395 C82.8944697,104.075074 82.0479266,106.708588 81.2264401,109.104189 L77.0416698,106.42512 L79.6675015,113.503553 C78.5953667,116.414264 77.5843275,118.920526 76.6449691,121.07095 L73.4050901,116.000632 L74.4173037,125.83332 C71.4683395,131.665536 69.6544099,133.356274 69.6544099,133.356274 C69.6544099,133.356274 68.0553131,127.645735 66.4092746,120.361521 L69.72148,113.956927 L65.5801727,116.556865 C65.0528613,114.051431 64.5499165,111.454485 64.1191456,108.901822 L67.6039006,100.854659 L63.4702211,104.635335 C63.2241814,102.811393 63.0409794,101.05467 62.9347284,99.4299791 C62.8727865,98.4844111 62.8820801,96.971562 62.948941,95.0380595 L68.5008621,86.6067336 L63.2165711,89.3599989 C63.2865843,88.1648928 63.3683267,86.898014 63.4524622,85.582297 C62.0619186,84.7542594 60.0650672,83.5887244 60.0650672,83.5887244 L62.9019533,90.8586589 C61.5732398,94.5025409 60.2744738,98.0027642 59.1008989,101.051876 L55.316615,96.2155241 L56.9531753,106.489494 C56.1964921,108.321179 55.5658514,109.750534 55.1069692,110.607601 C54.3215005,112.091708 53.4043693,113.656187 52.4035622,115.261164 L50.1235553,109.959388 L49.9890742,118.98906 C48.5055468,121.201032 46.9312868,123.421094 45.3780921,125.546448 L42.594736,121.343243 L42.9903815,128.763141 C38.3589283,134.891478 34.4485646,139.566109 34.4485646,139.566109 C34.4485646,139.566109 33.4598432,137.215118 33.1638905,130.486387 L38.2746898,121.698415 L33.0888996,125.074554 C33.1181019,122.656999 33.2317927,119.873622 33.4586048,116.691394 L38.9217605,111.16988 L33.8585909,111.90237 C34.1053544,109.30535 34.4226544,106.472876 34.8235257,103.407975 L43.3293461,100.211359 L35.3954831,99.5463323 C36.0200161,96.0936618 36.9995539,92.8982949 38.2367613,89.9619307 L47.8293195,89.1536333 L39.550352,87.125079 C40.8176504,84.6110913 42.2702175,82.2988143 43.8429928,80.1796245 L51.444873,80.0469332 L45.6463072,77.8807438 C45.8402485,77.6496422 46.0374344,77.418484 46.234677,77.1905779 C44.8779178,78.1121131 43.5723327,78.9904649 42.3404063,79.8122284 L42.0418069,73.6756064 L37.4499886,83.0042919 C35.7742371,84.0582656 34.4380323,84.8558246 33.5662072,85.2971972 C32.0701701,86.0487497 30.4182264,86.7932643 28.6751526,87.5231041 L29.8779955,81.8742626 L24.5527322,89.1597975 C22.0701858,90.1042365 19.5025443,91.0078706 17.0082775,91.838656 L17.1636856,86.7969068 L13.206627,93.0728734 C5.88958934,95.3931754 -4.08562073e-14,96.9370975 -4.08562073e-14,96.9370975 C-4.08562073e-14,96.9370975 0.556921664,94.4452687 4.19690028,88.7831646 L13.4348884,84.5815771 L7.25423354,84.3251148 C8.67411073,82.3712483 10.3752471,80.1684907 12.393162,77.7064627 L20.0356278,76.3661666 L15.4835861,74.0285769 C17.1853948,72.0502707 19.0761317,69.9255309 21.172133,67.6605784 L29.9591648,69.9762955 L23.8686217,64.8418783 C26.3734397,62.3843637 29.0122298,60.3506654 31.7156085,58.6704266 L40.0089537,63.5679553 L34.4213146,57.1235238 C36.9102542,55.8016148 39.4300885,54.7621854 41.9310146,53.941043 L48.2114863,58.2426071 L44.733623,53.1113817 C45.9774223,52.7838806 47.2155273,52.5020222 48.4350734,52.2725372 L46.7540391,51.9082559 L50.1568441,48.2769668 L42.1463246,50.8435961 C40.5882409,50.4576502 39.3719658,50.1307997 38.6273364,49.8640315 C37.3505031,49.4146207 35.9843083,48.8659238 34.578101,48.2561167 L38.5399298,45.7861823 L31.3067437,46.7745069 C29.3595729,45.8520864 27.3917429,44.8617116 25.5050824,43.8731731 L28.5241398,41.1269167 L22.6483409,42.3452891 C17.1797285,39.3730801 12.967631,36.8018404 12.967631,36.8018404 C12.967631,36.8018404 14.7273423,35.7236295 20.0704087,34.6641982 L27.7146574,37.7025301 L24.3841539,33.9480427 C26.3201685,33.6735208 28.5585467,33.4295051 31.1285458,33.218738 L36.2077251,36.936196 L35.0023259,32.9559355 C37.1131944,32.8442691 39.4126417,32.7520827 41.9107987,32.701971 L45.5055725,39.1388979 L45.0651976,32.6892009 C47.9065255,32.7762351 50.5746279,33.1655773 53.0717844,33.8018851 L54.8889692,41.4084215 L55.4988105,34.510985 C57.6630884,35.2279243 59.6874462,36.1099604 61.5710893,37.1115639 L62.6055673,43.199557 L63.6296998,38.2825271 C64.5875407,38.8643765 65.503714,39.476231 66.3811802,40.1017735 C66.399237,39.834705 66.4174073,39.5741406 66.4419531,39.3069588 L70.6293221,41.2052406 L66.6865328,37.1426378 C66.9642867,35.2054541 67.4035281,33.2231615 68.047003,31.2275447 L73.4723405,34.5095525 L68.833302,29.0472618 C69.7166523,26.8490194 70.8661657,24.6526374 72.3346058,22.5059909 L76.8701838,26.3175178 L74.0527683,20.1630533 C75.4392266,18.3398938 76.7474104,16.680755 77.9706605,15.1759941 L80.2599398,18.2199639 L80.2597038,12.4424801 C81.802466,10.6491232 83.1940899,9.12190472 84.4404968,7.8281904 L85.4115837,12.3297821 L87.302569,5.01310621 C90.9691919,1.62119395 92.7188682,0.897745055 92.7156237,0.897801689 C92.7156237,0.897801689 92.3432576,5.40983108 91.5853663,11.0769306 L87.5087824,14.7817892 L91.1694734,14.0249835 C90.8786279,15.9558895 90.5500405,17.9557692 90.1783094,19.9010995 L85.540486,24.7348175 L89.5108687,23.1268026 C89.197395,24.5050783 88.8631487,25.8088956 88.5075053,27.0024812 C88.2989699,27.6990294 87.8894276,28.7796977 87.3322754,30.1427083 L85.6242402,31.3924309 L87.9263732,37.0321422 L87.4607589,29.8802184 C89.4773629,28.6446282 91.7076981,27.5679618 94.1726507,26.731182 L95.532619,32.501197 L96.939229,25.882631 C99.1417083,25.2553773 101.179967,24.702558 103.057419,24.2338729 L103.078468,28.0428739 L106.522304,23.4154231 C108.830594,22.9001806 110.858656,22.5069408 112.62886,22.2157946 L110.725558,26.409719 L116.598452,21.6780601 C121.564618,21.1522082 123.396773,21.6212037 123.396773,21.6212037 C123.396773,21.6212037 120.40199,25.0144013 116.416461,29.1015352 L110.940794,29.6297743 L114.327526,31.2134691 C112.939779,32.5909778 111.487597,33.9956359 110.027734,35.3321132 L103.426083,36.4297786 L107.566929,37.5221061 C106.49563,38.4354055 105.449094,39.2799577 104.452711,40.0227887 C103.872892,40.4590643 102.897063,41.0779191 101.634858,41.8384024 L93.9287079,41.7614629 L97.8887735,44.0248053 C96.1726119,44.994904 94.2472036,46.0629948 92.2318006,47.1814527 C94.2687923,46.9279399 96.3984467,46.7769085 98.5923012,46.7711455 L96.5654581,52.6263023 L101.514458,46.8405034 C104.1425,46.9800569 106.845554,47.3264988 109.589179,47.9519983 L105.870894,55.6356381 L112.605051,48.7419064 C115.65228,49.6548845 118.731936,50.9381489 121.783339,52.6480613 L117.237247,59.2043159 L125.11939,54.6750611 C127.731536,56.3210727 130.111618,57.8735423 132.269542,59.3420563 L128.477292,62.7882109 L136.202206,62.0808281 C138.792028,63.9354272 141.005611,65.6176736 142.885302,67.1365874 L136.981695,68.9930508 L146.996832,70.6399664 C151.979719,75.1626183 153.161578,77.422405 153.161578,77.422405 C153.161578,77.422405 147.076992,77.4635501 139.411838,77.132154 L133.959205,72.1004601 L135.416382,76.9318884 C132.794602,76.7792133 130.081125,76.5793423 127.437891,76.3131835 L120.406978,70.6681799 L123.034611,75.8044869 C121.160949,75.5606791 119.370794,75.2666174 117.732449,74.9308687 C117.028911,74.7870007 116.03121,74.5246499 114.798031,74.1590574 C116.641477,76.5764567 118.3113,79.2733993 119.736746,82.2869041 L112.248015,84.9973208 L121.29553,85.8738785 C122.474742,88.7257738 123.517411,91.3783609 124.433041,93.8184615 L119.351662,94.4374109 L126.060086,98.3411343 C127.105754,101.351509 127.934398,104.014338 128.591612,106.338585 L122.709873,104.427588 L129.926105,111.578791 C130.584417,114.546722 130.876551,116.691178 130.998953,118.150849 Z M129.83425,119.827466 C127.863119,122.781454 126.508876,125.453524 125.920444,127.31783 C128.007235,125.637489 130.295453,124.085328 132.724007,122.684429 L136.486623,116.871594 C136.486623,116.871594 135.774923,119.534604 135.184853,121.338767 C135.445007,121.20592 135.706798,121.073637 135.970228,120.941918 L139.707229,115.166219 C139.707229,115.166219 138.978882,117.898864 138.382766,119.704621 L138.345926,119.816935 C139.734477,119.195794 141.15103,118.62106 142.590612,118.096534 L145.410073,113.740182 C145.410073,113.740182 144.867974,115.772258 144.337504,117.488486 C145.895966,116.969968 147.475701,116.512083 149.065745,116.114732 C141.700538,125.812061 139.748884,140.373405 140.599588,145.811511 C142.13409,142.483291 144.144385,139.20493 146.509544,136.10942 L146.076636,129.644224 C146.076636,129.644224 147.126514,132.268578 147.730313,134.070222 L147.845967,134.426219 C149.30335,132.657831 150.872856,130.962977 152.532891,129.361793 L152.177764,124.070431 C152.177764,124.070431 153.12945,126.447741 153.742809,128.226941 C154.143038,127.862916 154.549254,127.502791 154.958688,127.149289 L154.550048,121.076638 C154.550048,121.076638 155.601565,123.701556 156.206495,125.499913 C156.254223,125.648699 156.30624,125.806315 156.360284,125.979335 C161.495675,121.821162 167.231779,118.632693 172.992281,117.044526 C155.787482,135.143634 135.989911,169.169148 127.207009,197.858954 C119.919515,154.105778 103.621415,106.050063 84.3830738,74.2637976 C83.9396212,72.6580055 83.4289989,71.1086883 82.8677133,69.6318234 C83.5549421,69.2131915 84.1929268,68.9483144 84.6331492,69.0675008 C85.0603934,69.1869138 85.7004306,68.853686 86.3722972,68.2986924 L84.8595374,72.3686887 C85.9316297,73.9179647 87.0236432,75.4929176 88.1188444,77.0645618 C88.8323876,76.2941369 91.7759786,73.3149753 91.7759786,73.3149753 L90.9215629,81.0754966 C93.1513535,84.2441222 95.3139267,87.2805445 97.2359699,89.9242882 L99.6395642,84.270753 L100.725637,94.6161404 C101.931208,96.1891112 102.912983,97.3983892 103.577844,98.1154761 C104.718827,99.3349875 106.010079,100.610432 107.39895,101.900437 L108.217692,96.1867322 L110.696249,104.868256 C112.700017,106.615974 114.797705,108.352293 116.848437,110.001597 L118.446044,105.21444 L119.991162,112.480898 C124.257196,115.797767 127.994884,118.511342 129.83425,119.827466 Z" id="Path-Copy-8" sketch:type="MSShapeGroup"></path>
                <path d="M858.473445,118.150849 C866.097548,107.592786 880.824415,94.8167807 896.420037,101.83504 C895.274195,99.9257999 893.991694,98.0834736 892.598957,96.3484097 L892.98482,96.350759 C894.611792,96.3411215 897.030737,96.1869053 897.030737,96.1869053 L891.205391,94.6902654 C890.75215,94.1757487 890.290033,93.6710433 889.818415,93.1832869 C891.365676,93.1443641 893.192782,93.0271687 893.192782,93.0271687 L888.444822,91.8077534 C886.862235,90.2940815 885.197532,88.9230897 883.478777,87.7356906 C888.934056,87.816312 904.595656,93.0785196 909.762433,103.848331 C916.306994,97.6147297 929.000506,99.0590055 932.736862,100.762813 C931.416262,100.979045 930.076962,101.302808 928.743774,101.720587 C928.099648,101.574164 927.38895,101.450774 926.907795,101.389877 C925.837684,101.251186 924.237216,101.141274 924.237216,101.141274 L927.083859,102.294245 C926.543413,102.49602 926.004993,102.713198 925.470804,102.9447 C924.952323,102.837863 924.430328,102.751876 924.049348,102.703414 C922.979744,102.568574 921.378769,102.454811 921.378769,102.454811 L924.121184,103.56454 C922.688523,104.260565 921.295365,105.054751 919.967028,105.937432 L919.904087,105.928628 C918.832845,105.793224 917.232942,105.681668 917.232942,105.681668 L919.184015,106.471122 C918.12024,107.218798 917.106272,108.024065 916.155397,108.874953 C929.959061,108.015842 941.998087,123.995689 944,129.879821 C942.014094,128.355951 939.8095,126.982882 937.462712,125.783276 L937.408253,125.648717 C936.687244,123.889434 935.46386,121.343204 935.46386,121.343204 L935.960534,125.047287 C934.747063,124.478721 933.501306,123.956023 932.230888,123.483656 C932.076,123.055327 931.924599,122.659448 931.791074,122.334062 C931.0695,120.576423 929.847754,118.030756 929.847754,118.030756 L930.49602,122.875264 C928.74775,122.289831 926.962759,121.805723 925.168509,121.417691 C935.784763,135.49956 927.024284,159.552753 922.134159,165.771468 C922.341359,163.179228 922.342367,160.493931 922.148565,157.778321 C922.884065,156.669451 923.885222,154.256843 924.353755,152.896123 C924.972807,151.098264 925.73833,148.374743 925.73833,148.374743 L921.800333,154.287115 C921.540236,152.28029 921.181037,150.263238 920.722439,148.263431 C921.386919,147.030843 922.141381,145.180345 922.529562,144.052986 C923.148048,142.25677 923.915209,139.533813 923.915209,139.533813 L920.001188,145.408485 C919.091093,142.122707 917.922628,138.906054 916.519926,135.858744 C913.130621,147.208171 900.177239,156.034639 895.006641,157.612692 C896.921254,155.277481 898.635381,152.625077 900.103307,149.777606 C901.133578,149.137878 902.244891,148.353263 902.954686,147.798038 C904.452733,146.630045 906.5777,144.764321 906.5777,144.764321 L901.441423,146.971835 C901.682459,146.426158 901.914797,145.87381 902.138436,145.31479 C902.341755,145.166049 902.528571,145.022656 902.694419,144.892264 C904.192466,143.72427 906.318505,141.860754 906.318505,141.860754 L902.883299,143.337826 C903.950757,140.317537 904.744167,137.193694 905.216741,134.086216 C905.36787,133.897447 905.509557,133.720132 905.63242,133.560233 C906.792632,132.053488 908.385514,129.715952 908.385514,129.715952 L905.489648,131.957774 C905.892089,128.085343 905.774152,124.281893 905.044584,120.77519 C882.487512,150.063061 868.14079,187.753313 866.997969,225.102198 L852.736128,220.191452 C848.198178,220.639319 843.632398,221.461585 839.30115,222.434718 C837.939802,181.258095 828.848013,131.361496 812.839034,94.9786089 C812.681891,95.8304083 812.49236,96.6860262 812.276986,97.5486013 L804.990921,94.9496906 L811.240505,101.200395 C810.368962,104.075074 809.522419,106.708588 808.700932,109.104189 L804.516162,106.42512 L807.141994,113.503553 C806.069859,116.414264 805.05882,118.920526 804.119461,121.07095 L800.879582,116.000632 L801.891796,125.83332 C798.942832,131.665536 797.128902,133.356274 797.128902,133.356274 C797.128902,133.356274 795.529805,127.645735 793.883767,120.361521 L797.195972,113.956927 L793.054665,116.556865 C792.527354,114.051431 792.024409,111.454485 791.593638,108.901822 L795.078393,100.854659 L790.944713,104.635335 C790.698674,102.811393 790.515472,101.05467 790.409221,99.4299791 C790.347279,98.4844111 790.356572,96.971562 790.423433,95.0380595 L795.975354,86.6067336 L790.691063,89.3599989 C790.761077,88.1648928 790.842819,86.898014 790.926955,85.582297 C789.536411,84.7542594 787.53956,83.5887244 787.53956,83.5887244 L790.376446,90.8586589 C789.047732,94.5025409 787.748966,98.0027642 786.575391,101.051876 L782.791107,96.2155241 L784.427668,106.489494 C783.670984,108.321179 783.040344,109.750534 782.581462,110.607601 C781.795993,112.091708 780.878862,113.656187 779.878055,115.261164 L777.598048,109.959388 L777.463567,118.98906 C775.980039,121.201032 774.405779,123.421094 772.852584,125.546448 L770.069228,121.343243 L770.464874,128.763141 C765.833421,134.891478 761.923057,139.566109 761.923057,139.566109 C761.923057,139.566109 760.934336,137.215118 760.638383,130.486387 L765.749182,121.698415 L760.563392,125.074554 C760.592594,122.656999 760.706285,119.873622 760.933097,116.691394 L766.396253,111.16988 L761.333083,111.90237 C761.579847,109.30535 761.897147,106.472876 762.298018,103.407975 L770.803838,100.211359 L762.869975,99.5463323 C763.494508,96.0936618 764.474046,92.8982949 765.711254,89.9619307 L775.303812,89.1536333 L767.024844,87.125079 C768.292143,84.6110913 769.74471,82.2988143 771.317485,80.1796245 L778.919365,80.0469332 L773.1208,77.8807438 C773.314741,77.6496422 773.511927,77.418484 773.709169,77.1905779 C772.35241,78.1121131 771.046825,78.9904649 769.814899,79.8122284 L769.516299,73.6756064 L764.924481,83.0042919 C763.248729,84.0582656 761.912525,84.8558246 761.0407,85.2971972 C759.544662,86.0487497 757.892719,86.7932643 756.149645,87.5231041 L757.352488,81.8742626 L752.027225,89.1597975 C749.544678,90.1042365 746.977037,91.0078706 744.48277,91.838656 L744.638178,86.7969068 L740.681119,93.0728734 C733.364082,95.3931754 727.474492,96.9370975 727.474492,96.9370975 C727.474492,96.9370975 728.031414,94.4452687 731.671393,88.7831646 L740.909381,84.5815771 L734.728726,84.3251148 C736.148603,82.3712483 737.849739,80.1684907 739.867654,77.7064627 L747.51012,76.3661666 L742.958078,74.0285769 C744.659887,72.0502707 746.550624,69.9255309 748.646625,67.6605784 L757.433657,69.9762955 L751.343114,64.8418783 C753.847932,62.3843637 756.486722,60.3506654 759.190101,58.6704266 L767.483446,63.5679553 L761.895807,57.1235238 C764.384747,55.8016148 766.904581,54.7621854 769.405507,53.941043 L775.685979,58.2426071 L772.208115,53.1113817 C773.451915,52.7838806 774.69002,52.5020222 775.909566,52.2725372 L774.228531,51.9082559 L777.631336,48.2769668 L769.620817,50.8435961 C768.062733,50.4576502 766.846458,50.1307997 766.101829,49.8640315 C764.824995,49.4146207 763.458801,48.8659238 762.052593,48.2561167 L766.014422,45.7861823 L758.781236,46.7745069 C756.834065,45.8520864 754.866235,44.8617116 752.979575,43.8731731 L755.998632,41.1269167 L750.122833,42.3452891 C744.654221,39.3730801 740.442123,36.8018404 740.442123,36.8018404 C740.442123,36.8018404 742.201835,35.7236295 747.544901,34.6641982 L755.18915,37.7025301 L751.858646,33.9480427 C753.794661,33.6735208 756.033039,33.4295051 758.603038,33.218738 L763.682217,36.936196 L762.476818,32.9559355 C764.587687,32.8442691 766.887134,32.7520827 769.385291,32.701971 L772.980065,39.1388979 L772.53969,32.6892009 C775.381018,32.7762351 778.04912,33.1655773 780.546277,33.8018851 L782.363462,41.4084215 L782.973303,34.510985 C785.137581,35.2279243 787.161939,36.1099604 789.045582,37.1115639 L790.08006,43.199557 L791.104192,38.2825271 C792.062033,38.8643765 792.978206,39.476231 793.855673,40.1017735 C793.873729,39.834705 793.8919,39.5741406 793.916445,39.3069588 L798.103814,41.2052406 L794.161025,37.1426378 C794.438779,35.2054541 794.87802,33.2231615 795.521495,31.2275447 L800.946833,34.5095525 L796.307794,29.0472618 C797.191145,26.8490194 798.340658,24.6526374 799.809098,22.5059909 L804.344676,26.3175178 L801.527261,20.1630533 C802.913719,18.3398938 804.221903,16.680755 805.445153,15.1759941 L807.734432,18.2199639 L807.734196,12.4424801 C809.276958,10.6491232 810.668582,9.12190472 811.914989,7.8281904 L812.886076,12.3297821 L814.777061,5.01310621 C818.443684,1.62119395 820.193361,0.897745055 820.190116,0.897801689 C820.190116,0.897801689 819.81775,5.40983108 819.059859,11.0769306 L814.983275,14.7817892 L818.643966,14.0249835 C818.35312,15.9558895 818.024533,17.9557692 817.652802,19.9010995 L813.014978,24.7348175 L816.985361,23.1268026 C816.671887,24.5050783 816.337641,25.8088956 815.981998,27.0024812 C815.773462,27.6990294 815.36392,28.7796977 814.806768,30.1427083 L813.098733,31.3924309 L815.400866,37.0321422 L814.935251,29.8802184 C816.951855,28.6446282 819.18219,27.5679618 821.647143,26.731182 L823.007111,32.501197 L824.413721,25.882631 C826.616201,25.2553773 828.654459,24.702558 830.531911,24.2338729 L830.55296,28.0428739 L833.996796,23.4154231 C836.305087,22.9001806 838.333148,22.5069408 840.103352,22.2157946 L838.200051,26.409719 L844.072944,21.6780601 C849.03911,21.1522082 850.871265,21.6212037 850.871265,21.6212037 C850.871265,21.6212037 847.876482,25.0144013 843.890954,29.1015352 L838.415286,29.6297743 L841.802018,31.2134691 C840.414272,32.5909778 838.96209,33.9956359 837.502226,35.3321132 L830.900575,36.4297786 L835.041421,37.5221061 C833.970122,38.4354055 832.923586,39.2799577 831.927204,40.0227887 C831.347384,40.4590643 830.371555,41.0779191 829.10935,41.8384024 L821.4032,41.7614629 L825.363266,44.0248053 C823.647104,44.994904 821.721696,46.0629948 819.706293,47.1814527 C821.743285,46.9279399 823.872939,46.7769085 826.066793,46.7711455 L824.03995,52.6263023 L828.98895,46.8405034 C831.616992,46.9800569 834.320046,47.3264988 837.063672,47.9519983 L833.345387,55.6356381 L840.079543,48.7419064 C843.126772,49.6548845 846.206428,50.9381489 849.257832,52.6480613 L844.71174,59.2043159 L852.593882,54.6750611 C855.206028,56.3210727 857.586111,57.8735423 859.744034,59.3420563 L855.951784,62.7882109 L863.676698,62.0808281 C866.266521,63.9354272 868.480103,65.6176736 870.359794,67.1365874 L864.456187,68.9930508 L874.471324,70.6399664 C879.454211,75.1626183 880.636071,77.422405 880.636071,77.422405 C880.636071,77.422405 874.551484,77.4635501 866.88633,77.132154 L861.433697,72.1004601 L862.890875,76.9318884 C860.269095,76.7792133 857.555617,76.5793423 854.912383,76.3131835 L847.881471,70.6681799 L850.509103,75.8044869 C848.635442,75.5606791 846.845286,75.2666174 845.206941,74.9308687 C844.503403,74.7870007 843.505702,74.5246499 842.272523,74.1590574 C844.115969,76.5764567 845.785792,79.2733993 847.211238,82.2869041 L839.722508,84.9973208 L848.770022,85.8738785 C849.949235,88.7257738 850.991903,91.3783609 851.907534,93.8184615 L846.826155,94.4374109 L853.534578,98.3411343 C854.580246,101.351509 855.408891,104.014338 856.066105,106.338585 L850.184365,104.427588 L857.400598,111.578791 C858.058909,114.546722 858.351043,116.691178 858.473445,118.150849 Z M857.308742,119.827466 C855.337611,122.781454 853.983368,125.453524 853.394937,127.31783 C855.481727,125.637489 857.769945,124.085328 860.198499,122.684429 L863.961115,116.871594 C863.961115,116.871594 863.249415,119.534604 862.659346,121.338767 C862.919499,121.20592 863.18129,121.073637 863.44472,120.941918 L867.181722,115.166219 C867.181722,115.166219 866.453374,117.898864 865.857258,119.704621 L865.820418,119.816935 C867.208969,119.195794 868.625523,118.62106 870.065105,118.096534 L872.884565,113.740182 C872.884565,113.740182 872.342466,115.772258 871.811996,117.488486 C873.370459,116.969968 874.950193,116.512083 876.540237,116.114732 C869.17503,125.812061 867.223376,140.373405 868.07408,145.811511 C869.608582,142.483291 871.618877,139.20493 873.984037,136.10942 L873.551128,129.644224 C873.551128,129.644224 874.601006,132.268578 875.204805,134.070222 L875.320459,134.426219 C876.777842,132.657831 878.347348,130.962977 880.007383,129.361793 L879.652256,124.070431 C879.652256,124.070431 880.603942,126.447741 881.217301,128.226941 C881.61753,127.862916 882.023746,127.502791 882.43318,127.149289 L882.02454,121.076638 C882.02454,121.076638 883.076057,123.701556 883.680988,125.499913 C883.728715,125.648699 883.780733,125.806315 883.834776,125.979335 C888.970167,121.821162 894.706272,118.632693 900.466774,117.044526 C883.261974,135.143634 863.464404,169.169148 854.681501,197.858954 C847.394007,154.105778 831.095907,106.050063 811.857566,74.2637976 C811.414113,72.6580055 810.903491,71.1086883 810.342206,69.6318234 C811.029434,69.2131915 811.667419,68.9483144 812.107641,69.0675008 C812.534886,69.1869138 813.174923,68.853686 813.84679,68.2986924 L812.33403,72.3686887 C813.406122,73.9179647 814.498136,75.4929176 815.593337,77.0645618 C816.30688,76.2941369 819.250471,73.3149753 819.250471,73.3149753 L818.396055,81.0754966 C820.625846,84.2441222 822.788419,87.2805445 824.710462,89.9242882 L827.114057,84.270753 L828.200129,94.6161404 C829.4057,96.1891112 830.387475,97.3983892 831.052337,98.1154761 C832.193319,99.3349875 833.484571,100.610432 834.873442,101.900437 L835.692184,96.1867322 L838.170741,104.868256 C840.174509,106.615974 842.272197,108.352293 844.32293,110.001597 L845.920536,105.21444 L847.465654,112.480898 C851.731688,115.797767 855.469376,118.511342 857.308742,119.827466 Z" id="Path-Copy-9" sketch:type="MSShapeGroup"></path>
                <path d="M1250.9524,140.619827 C1256.97479,132.279865 1268.60775,122.187919 1280.92695,127.731741 C1280.02183,126.223605 1279.00877,124.768326 1277.90862,123.397774 L1278.21342,123.39963 C1279.49859,123.392017 1281.40935,123.2702 1281.40935,123.2702 L1276.80783,122.087983 C1276.4498,121.681559 1276.08477,121.282885 1275.71223,120.897599 C1276.93444,120.866854 1278.37769,120.77428 1278.37769,120.77428 L1274.62721,119.811046 C1273.37711,118.615376 1272.06213,117.53241 1270.70447,116.594467 C1275.01367,116.658151 1287.38498,120.814842 1291.46629,129.322068 C1296.63593,124.398058 1306.66272,125.538912 1309.61412,126.884773 C1308.57096,127.055578 1307.51303,127.311323 1306.45992,127.641332 C1305.95112,127.525671 1305.38973,127.428203 1305.00966,127.3801 C1304.16436,127.270547 1302.90013,127.183725 1302.90013,127.183725 L1305.14873,128.094473 C1304.72183,128.253858 1304.29652,128.42541 1303.87456,128.608277 C1303.465,128.523885 1303.05267,128.455962 1302.75173,128.417681 C1301.90683,128.311169 1300.6422,128.221306 1300.6422,128.221306 L1302.80847,129.097897 C1301.67679,129.647697 1300.57632,130.275035 1299.52705,130.972278 L1299.47733,130.965323 C1298.63114,130.858365 1297.36735,130.770246 1297.36735,130.770246 L1298.90853,131.393847 C1298.06824,131.984447 1297.2673,132.620539 1296.51619,133.292667 C1307.41989,132.614043 1316.92969,145.236748 1318.51103,149.884706 C1316.94233,148.68098 1315.20089,147.596374 1313.34713,146.648788 L1313.30412,146.542498 C1312.73458,145.152816 1311.76821,143.141513 1311.76821,143.141513 L1312.16054,146.06742 C1311.202,145.618302 1310.21796,145.205415 1309.21444,144.832286 C1309.09209,144.493943 1308.9725,144.181232 1308.86703,143.924205 C1308.29704,142.535822 1307.33197,140.524964 1307.33197,140.524964 L1307.84405,144.351709 C1306.46306,143.889267 1305.05307,143.506863 1303.63577,143.200351 C1312.0217,154.323817 1305.10167,173.323772 1301.23889,178.236022 C1301.40256,176.188375 1301.40336,174.067222 1301.25027,171.922123 C1301.83126,171.046211 1302.62208,169.140458 1302.99218,168.065607 C1303.48118,166.645453 1304.08588,164.494105 1304.08588,164.494105 L1300.9752,169.16437 C1300.76975,167.579151 1300.48601,165.985854 1300.12376,164.406178 C1300.64864,163.432539 1301.2446,161.970805 1301.55123,161.080288 C1302.03978,159.661432 1302.64577,157.51053 1302.64577,157.51053 L1299.55403,162.151016 C1298.83513,159.555534 1297.91215,157.014654 1296.80413,154.607542 C1294.12687,163.572614 1283.89482,170.544764 1279.81049,171.79129 C1281.32287,169.946675 1282.67688,167.851504 1283.83641,165.602246 C1284.65024,165.096916 1285.52808,164.477137 1286.08876,164.038558 C1287.27209,163.115944 1288.95063,161.642182 1288.95063,161.642182 L1284.89341,163.385928 C1285.08381,162.95489 1285.26734,162.518583 1285.44399,162.077005 C1285.6046,161.959513 1285.75217,161.846245 1285.88317,161.743246 C1287.0665,160.820631 1288.74589,159.348614 1288.74589,159.348614 L1286.03237,160.515374 C1286.87557,158.129605 1287.5023,155.662037 1287.87559,153.207397 C1287.99497,153.058285 1288.10689,152.918222 1288.20394,152.791915 C1289.12041,151.601717 1290.37865,149.755264 1290.37865,149.755264 L1288.09116,151.526111 C1288.40905,148.467223 1288.3159,145.462824 1287.7396,142.69283 C1269.92145,165.827731 1258.58877,195.59979 1257.68604,225.102198 L1246.42042,221.223131 C1242.83583,221.576908 1239.22925,222.226427 1235.80794,222.995118 C1234.73259,190.469126 1227.55086,151.055102 1214.90514,122.315749 C1214.78101,122.988598 1214.6313,123.664462 1214.46117,124.345823 L1208.70581,122.292907 L1213.64244,127.230425 C1212.954,129.501175 1212.2853,131.581424 1211.6364,133.473743 L1208.33079,131.357509 L1210.40497,136.948863 C1209.55808,139.248074 1208.75944,141.227806 1208.01743,142.926455 L1205.4582,138.92134 L1206.25776,146.688319 C1203.92834,151.295268 1202.49549,152.630806 1202.49549,152.630806 C1202.49549,152.630806 1201.23234,148.119971 1199.93211,142.366068 L1202.54847,137.306989 L1199.27719,139.360717 C1198.86066,137.381639 1198.46338,135.330275 1198.12311,133.313891 L1200.87576,126.957324 L1197.61051,129.943733 C1197.41616,128.502976 1197.27145,127.115315 1197.18752,125.831949 C1197.13859,125.085032 1197.14593,123.890011 1197.19874,122.36271 L1201.58428,115.702688 L1197.41015,117.877531 C1197.46545,116.9335 1197.53002,115.932774 1197.59648,114.893471 C1196.49807,114.239392 1194.92073,113.31872 1194.92073,113.31872 L1197.16163,119.061343 C1196.11206,121.939697 1195.08614,124.704572 1194.15912,127.113108 L1191.16986,123.292806 L1192.4626,131.408359 C1191.86489,132.855233 1191.36674,133.984301 1191.00426,134.661309 C1190.38381,135.833626 1189.65935,137.069431 1188.8688,138.337225 L1187.06779,134.149277 L1186.96156,141.281942 C1185.7897,143.029209 1184.54617,144.782867 1183.31928,146.461714 L1181.12067,143.141544 L1181.4332,149.002626 C1177.77475,153.843485 1174.6859,157.536041 1174.6859,157.536041 C1174.6859,157.536041 1173.90489,155.67896 1173.67111,150.363842 L1177.70821,143.422099 L1173.61188,146.088959 C1173.63495,144.179298 1173.72475,141.98067 1173.90391,139.466983 L1178.21934,135.105462 L1174.21987,135.684066 C1174.41479,133.632643 1174.66543,131.395233 1174.98208,128.974224 L1181.70095,126.449173 L1175.43388,125.923858 C1175.92721,123.196545 1176.70096,120.67248 1177.67825,118.353005 L1185.25554,117.71452 L1178.71587,116.112136 C1179.71693,114.126302 1180.86433,112.299802 1182.10669,110.625824 L1188.11152,110.521009 L1183.53115,108.809906 C1183.68435,108.627356 1183.84011,108.444761 1183.99591,108.264734 C1182.92419,108.992668 1181.89289,109.68649 1180.91977,110.335613 L1180.68391,105.488209 L1177.05676,112.857069 C1175.73306,113.689617 1174.67758,114.31962 1173.98891,114.668267 C1172.80717,115.261928 1171.50228,115.850031 1170.1254,116.426542 L1171.07554,111.964443 L1166.86904,117.719389 C1164.90804,118.465414 1162.87983,119.179208 1160.90957,119.835457 L1161.03233,115.852908 L1157.90659,120.810382 C1152.12676,122.643221 1147.47449,123.862787 1147.47449,123.862787 C1147.47449,123.862787 1147.91441,121.894457 1150.78968,117.421881 L1158.0869,114.102988 L1153.20471,113.900405 C1154.32629,112.357019 1155.67005,110.617029 1157.26402,108.672239 L1163.30092,107.61352 L1159.70519,105.767025 C1161.04948,104.204334 1162.543,102.525972 1164.19866,100.736854 L1171.13966,102.566071 L1166.32865,98.5103232 C1168.30724,96.5690979 1170.39166,94.9626512 1172.5271,93.6354069 L1179.07813,97.5040335 L1174.66437,92.4134867 C1176.63042,91.3692922 1178.62087,90.5482324 1180.59639,89.8996005 L1185.55742,93.2974663 L1182.81021,89.2442394 C1183.7927,88.9855417 1184.7707,88.7628978 1185.73404,88.5816243 L1184.40616,88.2938734 L1187.09409,85.4254672 L1180.76647,87.4528837 C1179.53571,87.1480196 1178.57496,86.8898358 1177.98677,86.6791119 C1176.97818,86.324116 1175.899,85.8906926 1174.78822,85.4089974 L1177.91772,83.4579616 L1172.20413,84.238653 C1170.66603,83.5100202 1169.11161,82.7277092 1167.62131,81.9468488 L1170.00611,79.7775424 L1165.36473,80.7399518 C1161.045,78.3921622 1157.71781,76.3611039 1157.71781,76.3611039 C1157.71781,76.3611039 1159.10783,75.50941 1163.32839,74.6725503 L1169.36669,77.0725713 L1166.73588,74.1068491 C1168.26516,73.8900004 1170.03329,73.6972489 1172.06337,73.530761 L1176.07548,76.4672332 L1175.12332,73.3231697 C1176.79073,73.2349628 1178.60709,73.1621434 1180.58042,73.1225595 L1183.41998,78.2071784 L1183.07212,73.1124723 C1185.31653,73.1812218 1187.4241,73.4887687 1189.39664,73.9913971 L1190.83206,79.9999069 L1191.31378,74.5515251 C1193.02337,75.1178455 1194.62244,75.8145782 1196.11036,76.6057588 L1196.92751,81.41475 L1197.73648,77.5307191 C1198.4931,77.9903301 1199.21679,78.4736426 1199.90992,78.9677674 C1199.92418,78.7568062 1199.93853,78.5509827 1199.95792,78.339932 L1203.26558,79.8394114 L1200.15112,76.6303046 C1200.37052,75.100096 1200.71748,73.5342552 1201.22577,71.9578895 L1205.51132,74.5503935 L1201.84688,70.2356535 C1202.54465,68.499231 1203.45267,66.764278 1204.61261,65.0686118 L1208.19533,68.0793904 L1205.96981,63.2178925 C1207.065,61.7777532 1208.09835,60.4671763 1209.06461,59.2785445 L1210.87294,61.683019 L1210.87276,57.1193035 C1212.09141,55.7027057 1213.19067,54.4963344 1214.17523,53.4744113 L1214.9423,57.0302817 L1216.43602,51.2507368 C1219.33233,48.5714177 1220.71443,47.9999553 1220.71186,48 C1220.71186,48 1220.41773,51.5641153 1219.81906,56.0406367 L1216.59891,58.9671565 L1219.49054,58.369345 C1219.2608,59.8945948 1219.00124,61.4743278 1218.7076,63.0109715 L1215.04412,66.8291932 L1218.18038,65.5589997 C1217.93277,66.647719 1217.66874,67.6776225 1217.38781,68.6204526 C1217.22309,69.1706658 1216.89958,70.0243008 1216.45948,71.100962 L1215.11028,72.0881354 L1216.92877,76.5430225 L1216.56097,70.8936176 C1218.15392,69.9176075 1219.91569,69.0671337 1221.86279,68.4061495 L1222.93705,72.9639653 L1224.04815,67.7358672 C1225.78792,67.2403907 1227.39797,66.803711 1228.88099,66.4334901 L1228.89762,69.4422734 L1231.61795,65.7869851 C1233.44131,65.3799878 1235.0433,65.0693621 1236.44161,64.8393816 L1234.93816,68.1522214 L1239.57725,64.4146177 C1243.50009,63.9992399 1244.94733,64.369706 1244.94733,64.369706 C1244.94733,64.369706 1242.58171,67.0500404 1239.43349,70.2785247 L1235.10818,70.6957882 L1237.78341,71.946771 C1236.68721,73.0348844 1235.54011,74.1444436 1234.38694,75.2001457 L1229.17221,76.0672071 L1232.44312,76.9300519 C1231.59688,77.6514799 1230.77021,78.3186035 1229.98315,78.9053761 C1229.52515,79.2499963 1228.75433,79.7388384 1227.75729,80.3395549 L1221.6701,80.2787793 L1224.79821,82.0666252 C1223.44259,82.8329198 1221.92168,83.6766196 1220.32969,84.5601053 C1221.93873,84.3598519 1223.62098,84.2405501 1225.35393,84.2359979 L1223.7529,88.8610683 L1227.66219,84.2907846 C1229.73811,84.4010199 1231.87329,84.6746792 1234.04052,85.16877 L1231.1034,91.2381849 L1236.4228,85.7927295 C1238.82985,86.5139038 1241.26251,87.5275723 1243.67286,88.8782561 L1240.08184,94.0571336 L1246.30805,90.4794116 C1248.37142,91.7796193 1250.25149,93.0059369 1251.95606,94.1659367 L1248.96051,96.8881025 L1255.06253,96.3293309 C1257.10826,97.7943048 1258.8568,99.1231348 1260.3416,100.322946 L1255.67825,101.789393 L1263.58935,103.090314 C1267.5254,106.662821 1268.45897,108.447858 1268.45897,108.447858 C1268.45897,108.447858 1263.65267,108.480359 1257.59786,108.218584 L1253.29075,104.243979 L1254.44179,108.060392 C1252.37081,107.939792 1250.2274,107.781911 1248.13947,107.571668 L1242.58565,103.112601 L1244.66126,107.169842 C1243.18123,106.977254 1241.76716,106.744971 1240.47301,106.479758 C1239.91727,106.366115 1239.12917,106.15888 1238.15507,105.870094 C1239.61123,107.779631 1240.93025,109.909984 1242.05623,112.290394 L1236.14077,114.43139 L1243.28753,115.123795 C1244.21901,117.376547 1245.04263,119.471863 1245.7659,121.399333 L1241.75204,121.88825 L1247.05112,124.971855 C1247.87711,127.349793 1248.53167,129.453199 1249.05081,131.289154 L1244.40474,129.779631 L1250.10495,135.428466 C1250.62496,137.772876 1250.85572,139.466812 1250.9524,140.619827 Z M1250.03239,141.944211 C1248.47536,144.277607 1247.40563,146.388313 1246.94082,147.860954 C1248.5892,146.533629 1250.3967,145.307555 1252.31505,144.200965 L1255.28719,139.609326 C1255.28719,139.609326 1254.72501,141.712875 1254.2589,143.138008 C1254.4644,143.03307 1254.6712,142.928578 1254.87928,142.824532 L1257.83119,138.262226 C1257.83119,138.262226 1257.25586,140.420781 1256.78498,141.847173 L1256.75588,141.935892 C1257.85272,141.445244 1258.97167,140.991253 1260.10882,140.576923 L1262.33595,137.13578 C1262.33595,137.13578 1261.90774,138.740944 1261.48871,140.096617 C1262.71976,139.687033 1263.96762,139.325343 1265.22362,139.01147 C1259.40574,146.671526 1257.8641,158.173736 1258.53608,162.469372 C1259.7482,159.840364 1261.33616,157.250741 1263.20444,154.805554 L1262.86248,149.698605 C1262.86248,149.698605 1263.69179,151.77162 1264.16874,153.194763 L1264.2601,153.47597 C1265.4113,152.079096 1266.65108,150.740307 1267.96236,149.475509 L1267.68184,145.295788 C1267.68184,145.295788 1268.43359,147.173658 1268.91809,148.579074 C1269.23424,148.291525 1269.55512,148.007058 1269.87853,147.727821 L1269.55574,142.930949 C1269.55574,142.930949 1270.38635,145.004409 1270.86419,146.424956 C1270.9019,146.542484 1270.94298,146.666987 1270.98567,146.803658 C1275.04219,143.519058 1279.57322,141.000442 1284.12352,139.745927 C1270.53321,154.042666 1254.89483,180.919898 1247.95709,203.582378 C1242.2006,169.02113 1229.3265,131.061246 1214.12987,105.952829 C1213.77958,104.684392 1213.37623,103.460564 1212.93286,102.293968 C1213.47571,101.963285 1213.97967,101.754055 1214.3274,101.848202 C1214.66489,101.942528 1215.17046,101.679306 1215.70118,101.240909 L1214.50623,104.455856 C1215.35309,105.679651 1216.21569,106.923729 1217.0808,108.165192 C1217.64444,107.556623 1219.96963,105.203341 1219.96963,105.203341 L1219.29471,111.333486 C1221.05605,113.836428 1222.7643,116.23494 1224.28255,118.323271 L1226.18118,113.857464 L1227.03909,122.029431 C1227.99138,123.271942 1228.7669,124.227168 1229.29208,124.793605 C1230.19336,125.756914 1231.21334,126.764405 1232.31043,127.783399 L1232.95717,123.270063 L1234.91501,130.127721 C1236.49782,131.508267 1238.15481,132.87981 1239.77471,134.182619 L1241.03668,130.401176 L1242.25719,136.141053 C1245.62699,138.761095 1248.57945,140.904585 1250.03239,141.944211 Z" id="Path-Copy-10" sketch:type="MSShapeGroup" transform="translate(1232.992760, 136.551099) scale(-1, 1) translate(-1232.992760, -136.551099) "></path>
            </g>
        </g>
    </g>
</svg>