<?xml version="1.0" encoding="UTF-8" standalone="no"?>
<svg xmlns="http://www.w3.org/2000/svg" viewBox="0 0 1200 800" width="1200" height="800" preserveAspectRatio="xMidYMid slice" style="width: 100%; height: 100%; transform: translate3d(0px, 0px, 0px);"><defs><clipPath id="__lottie_element_1901"><rect width="1200" height="800" x="0" y="0"></rect></clipPath><clipPath id="__lottie_element_1942"><path d="M0,0 L1200,0 L1200,800 L0,800z"></path></clipPath></defs><g clip-path="url(#__lottie_element_1901)"><g transform="matrix(1,0,0,1,46,80)" opacity="1" style="display: block;"><image width="741px" height="518px" preserveAspectRatio="xMidYMid slice" xlink:href="https://cdn.playhub.io/builds/20200714.8/assets/bitkong/img_21.b7de6b6f.png"></image></g><g transform="matrix(1,0,0,1,581,249)" opacity="1" style="display: block;"><image width="128px" height="150px" preserveAspectRatio="xMidYMid slice" xlink:href="https://cdn.playhub.io/builds/20200714.8/assets/bitkong/img_20.8ceadf01.png"></image></g><g transform="matrix(1,0,0,1,343,275)" opacity="1" style="display: block;"><image width="167px" height="119px" preserveAspectRatio="xMidYMid slice" xlink:href="https://cdn.playhub.io/builds/20200714.8/assets/bitkong/img_19.71bd7625.png"></image></g><g transform="matrix(1,0,0,1,139,271)" opacity="1" style="display: block;"><image width="142px" height="126px" preserveAspectRatio="xMidYMid slice" xlink:href="https://cdn.playhub.io/builds/20200714.8/assets/bitkong/img_18.c6e875ba.png"></image></g><g transform="matrix(1,0,0,1,600,400)" opacity="0.26" style="display: block;"><g opacity="1" transform="matrix(1,0,0,1,0,0)"><path fill="rgb(27,32,37)" fill-opacity="1" d=" M439,237 C439,237 381.5,242 381.5,242 C381.5,242 360.5,239.5 360.5,239.5 C360.5,239.5 289.5,253.5 287.5,254 C285.5,254.5 236,259 236,259 C236,259 221,259 221,259 C221,259 206,279 206,279 C206,279 235,301.5 235,301.5 C235,301.5 271.5,299 271.5,299 C271.5,299 302.5,293 302.5,293 C302.5,293 303.5,301.5 303.5,301.5 C303.5,301.5 358.5,302.5 358.5,302.5 C358.5,302.5 416,301.5 416,301.5 C416,301.5 470,309.5 470,309.5 C470,309.5 491,284.5 491,284.5 C491,284.5 497.5,265 497.5,265 C497.5,265 480.5,256 480.5,256 C480.5,256 439,237 439,237z"></path></g></g><g transform="matrix(0.9144201874732971,-0.4047662615776062,0.4047662615776062,0.9144201874732971,721.6593627929688,395.9295654296875)" opacity="1" style="display: block;"><image width="148px" height="182px" preserveAspectRatio="xMidYMid slice" xlink:href="https://cdn.playhub.io/builds/20200714.8/assets/bitkong/img_17.c95fffaa.png"></image></g><g transform="matrix(0.960665225982666,0.2777089774608612,-0.2777089774608612,0.960665225982666,718.6803588867188,347.7769775390625)" opacity="1" style="display: block;"><image width="178px" height="160px" preserveAspectRatio="xMidYMid slice" xlink:href="https://cdn.playhub.io/builds/20200714.8/assets/bitkong/img_16.b95a9ee7.png"></image></g><g transform="matrix(0.8077479004859924,0.5895279049873352,-0.5895279049873352,0.8077479004859924,625.2955322265625,181.92193603515625)" opacity="1" style="display: block;"><image width="267px" height="209px" preserveAspectRatio="xMidYMid slice" xlink:href="https://cdn.playhub.io/builds/20200714.8/assets/bitkong/img_15.b7cde49a.png"></image></g><g transform="matrix(1,0,0,1,832,523)" opacity="1" style="display: block;"><image width="116px" height="162px" preserveAspectRatio="xMidYMid slice" xlink:href="https://cdn.playhub.io/builds/20200714.8/assets/bitkong/img_14.ccfdb1f2.png"></image></g><g transform="matrix(1,0,0,1,983,485)" opacity="1" style="display: block;"><image width="122px" height="213px" preserveAspectRatio="xMidYMid slice" xlink:href="https://cdn.playhub.io/builds/20200714.8/assets/bitkong/img_13.1bb78a57.png"></image></g><g transform="matrix(1,0,0,1,809,268)" opacity="1" style="display: block;"><image width="309px" height="327px" preserveAspectRatio="xMidYMid slice" xlink:href="https://cdn.playhub.io/builds/20200714.8/assets/bitkong/img_12.3278b04f.png"></image></g><g transform="matrix(0.9851617813110352,0.17162825167179108,-0.17162825167179108,0.9851617813110352,913.7640380859375,421.3411865234375)" opacity="1" style="display: block;"><image width="174px" height="279px" preserveAspectRatio="xMidYMid slice" xlink:href="https://cdn.playhub.io/builds/20200714.8/assets/bitkong/img_11.19eef9a0.png"></image></g><g transform="matrix(0.9963675737380981,0.08515649288892746,-0.08515649288892746,0.9963675737380981,935.2827758789062,302.0402526855469)" opacity="1" style="display: block;"><image width="141px" height="231px" preserveAspectRatio="xMidYMid slice" xlink:href="https://cdn.playhub.io/builds/20200714.8/assets/bitkong/img_10.c0ad9f1b.png"></image></g><g clip-path="url(#__lottie_element_1942)" transform="matrix(1,0,0,1,0,0)" opacity="1" style="display: block;"><g transform="matrix(1,0,0,1,777.2020263671875,234.52999877929688)" opacity="1" style="display: block;"><image width="194px" height="232px" preserveAspectRatio="xMidYMid slice" xlink:href="https://cdn.playhub.io/builds/20200714.8/assets/bitkong/img_9.5815118e.png"></image></g><g transform="matrix(1,0,0,1,889,276)" opacity="1" style="display: block;"><image width="67px" height="57px" preserveAspectRatio="xMidYMid slice" xlink:href="https://cdn.playhub.io/builds/20200714.8/assets/bitkong/img_8.7e7a089b.png"></image></g><g transform="matrix(1,0,0,1,904.3189697265625,282.8070068359375)" opacity="1" style="display: block;"><image width="35px" height="43px" preserveAspectRatio="xMidYMid slice" xlink:href="https://cdn.playhub.io/builds/20200714.8/assets/bitkong/img_7.7d1bea0e.png"></image></g><g transform="matrix(1,0,0,1,852,295)" opacity="1" style="display: block;"><image width="34px" height="45px" preserveAspectRatio="xMidYMid slice" xlink:href="https://cdn.playhub.io/builds/20200714.8/assets/bitkong/img_6.93c63e72.png"></image></g><g transform="matrix(1,0,0,1,806,308)" opacity="1" style="display: block;"><image width="31px" height="40px" preserveAspectRatio="xMidYMid slice" xlink:href="https://cdn.playhub.io/builds/20200714.8/assets/bitkong/img_5.5567c0b7.png"></image></g><g transform="matrix(1,0,0,1,834,280)" opacity="1" style="display: block;"><image width="53px" height="42px" preserveAspectRatio="xMidYMid slice" xlink:href="https://cdn.playhub.io/builds/20200714.8/assets/bitkong/img_4.5f1102df.png"></image></g><g transform="matrix(1,0,0,1,799,299)" opacity="1" style="display: block;"><image width="36px" height="28px" preserveAspectRatio="xMidYMid slice" xlink:href="https://cdn.playhub.io/builds/20200714.8/assets/bitkong/img_3.a9073f9b.png"></image></g><g transform="matrix(1,0,0,1,793,356)" opacity="1" style="display: block;"><image width="106px" height="52px" preserveAspectRatio="xMidYMid slice" xlink:href="https://cdn.playhub.io/builds/20200714.8/assets/bitkong/img_2.a37bd00f.png"></image></g><g transform="matrix(1,0,0,1,785,302)" opacity="1" style="display: block;"><image width="110px" height="49px" preserveAspectRatio="xMidYMid slice" xlink:href="https://cdn.playhub.io/builds/20200714.8/assets/bitkong/img_1.7a9f9126.png"></image></g><g transform="matrix(1,0,0,1,805,333)" opacity="1" style="display: block;"><image width="57px" height="31px" preserveAspectRatio="xMidYMid slice" xlink:href="https://cdn.playhub.io/builds/20200714.8/assets/bitkong/img_0.8c9ac196.png"></image></g></g></g></svg>